<svg xmlns="http://www.w3.org/2000/svg" xmlns:xlink="http://www.w3.org/1999/xlink" width="1200" zoomAndPan="magnify" viewBox="0 0 900 599.999999" height="800" preserveAspectRatio="xMidYMid meet" version="1.0"><defs><g/><clipPath id="495f6975a1"><path d="M 577 216 L 599.949219 216 L 599.949219 240 L 577 240 Z M 577 216 " clip-rule="nonzero"/></clipPath><clipPath id="ace600551c"><path d="M 471 302 L 495 302 L 495 325.320312 L 471 325.320312 Z M 471 302 " clip-rule="nonzero"/></clipPath><clipPath id="613ad5984f"><path d="M 439 48.570312 L 463 48.570312 L 463 72 L 439 72 Z M 439 48.570312 " clip-rule="nonzero"/></clipPath></defs><path fill="#00ccff" d="M 450.933594 130.269531 C 480.441406 130.269531 504.292969 154.125 504.292969 183.628906 C 504.292969 213.132812 480.441406 236.988281 450.933594 236.988281 C 421.429688 236.988281 397.574219 213.132812 397.574219 183.628906 C 397.574219 154.125 421.429688 130.269531 450.933594 130.269531 Z M 450.933594 130.269531 " fill-opacity="1" fill-rule="evenodd"/><path fill="#0330ab" d="M 450.933594 110.449219 C 491.292969 110.449219 524.023438 143.183594 524.023438 183.539062 C 524.023438 223.894531 491.292969 256.628906 450.933594 256.628906 C 410.578125 256.628906 377.84375 223.894531 377.84375 183.539062 C 377.84375 143.183594 410.578125 110.449219 450.933594 110.449219 Z M 450.933594 120.582031 C 485.730469 120.582031 513.980469 148.832031 513.980469 183.628906 C 513.980469 218.425781 485.730469 246.671875 450.933594 246.671875 C 416.136719 246.671875 387.886719 218.425781 387.886719 183.628906 C 387.886719 148.832031 416.136719 120.582031 450.933594 120.582031 Z M 450.933594 120.582031 " fill-opacity="1" fill-rule="evenodd"/><path fill="#0330ab" d="M 396.675781 146.679688 L 353.003906 146.679688 L 353.003906 109.644531 L 362.328125 109.644531 L 362.328125 137.355469 L 396.675781 137.355469 Z M 396.675781 146.679688 " fill-opacity="1" fill-rule="nonzero"/><path fill="#0330ab" d="M 311.390625 186.140625 L 380.625 186.140625 L 380.625 195.464844 L 311.390625 195.464844 Z M 311.390625 186.140625 " fill-opacity="1" fill-rule="nonzero"/><path fill="#0330ab" d="M 502.679688 133.855469 L 550.570312 133.855469 L 550.570312 111.078125 L 559.898438 111.078125 L 559.898438 143.183594 L 502.679688 143.183594 Z M 502.679688 133.855469 " fill-opacity="1" fill-rule="nonzero"/><path fill="#0330ab" d="M 501.515625 223.175781 L 588.507812 223.175781 L 588.507812 232.59375 L 501.515625 232.59375 Z M 501.515625 223.175781 " fill-opacity="1" fill-rule="nonzero"/><path fill="#0330ab" d="M 518.375 172.148438 L 552.902344 172.148438 L 552.902344 181.476562 L 518.375 181.476562 Z M 518.375 172.148438 " fill-opacity="1" fill-rule="nonzero"/><path fill="#0330ab" d="M 368.335938 216.808594 L 396.496094 216.808594 L 396.496094 226.136719 L 368.335938 226.136719 Z M 368.335938 216.808594 " fill-opacity="1" fill-rule="nonzero"/><path fill="#0330ab" d="M 357.664062 98.253906 C 363.941406 98.253906 369.054688 103.367188 369.054688 109.644531 C 369.054688 115.921875 363.941406 121.03125 357.664062 121.03125 C 351.386719 121.03125 346.277344 115.921875 346.277344 109.644531 C 346.277344 103.367188 351.386719 98.253906 357.664062 98.253906 Z M 357.664062 98.253906 " fill-opacity="1" fill-rule="evenodd"/><path fill="#0330ab" d="M 311.390625 179.414062 C 317.667969 179.414062 322.78125 184.523438 322.78125 190.800781 C 322.78125 197.082031 317.667969 202.191406 311.390625 202.191406 C 305.113281 202.191406 300 197.082031 300 190.800781 C 300 184.523438 305.113281 179.414062 311.390625 179.414062 Z M 311.390625 179.414062 " fill-opacity="1" fill-rule="evenodd"/><path fill="#0330ab" d="M 359.816406 210.082031 C 366.09375 210.082031 371.207031 215.195312 371.207031 221.472656 C 371.207031 227.75 366.09375 232.863281 359.816406 232.863281 C 353.539062 232.863281 348.429688 227.75 348.429688 221.472656 C 348.429688 215.195312 353.539062 210.082031 359.816406 210.082031 Z M 359.816406 210.082031 " fill-opacity="1" fill-rule="evenodd"/><path fill="#0330ab" d="M 555.234375 99.6875 C 561.511719 99.6875 566.625 104.800781 566.625 111.078125 C 566.625 117.355469 561.511719 122.46875 555.234375 122.46875 C 548.957031 122.46875 543.84375 117.355469 543.84375 111.078125 C 543.84375 104.800781 548.957031 99.6875 555.234375 99.6875 Z M 555.234375 99.6875 " fill-opacity="1" fill-rule="evenodd"/><path fill="#0330ab" d="M 550.929688 165.421875 C 557.207031 165.421875 562.320312 170.535156 562.320312 176.8125 C 562.320312 183.089844 557.207031 188.203125 550.929688 188.203125 C 544.652344 188.203125 539.539062 183.089844 539.539062 176.8125 C 539.539062 170.535156 544.652344 165.421875 550.929688 165.421875 Z M 550.929688 165.421875 " fill-opacity="1" fill-rule="evenodd"/><g clip-path="url(#495f6975a1)"><path fill="#0330ab" d="M 588.507812 216.539062 C 594.785156 216.539062 599.894531 221.652344 599.894531 227.929688 C 599.894531 234.207031 594.785156 239.320312 588.507812 239.320312 C 582.226562 239.320312 577.117188 234.207031 577.117188 227.929688 C 577.117188 221.652344 582.226562 216.539062 588.507812 216.539062 Z M 588.507812 216.539062 " fill-opacity="1" fill-rule="evenodd"/></g><path fill="#0330ab" d="M 426.363281 243.355469 L 426.363281 287.027344 L 389.234375 287.027344 L 389.234375 277.703125 L 416.945312 277.703125 L 416.945312 243.355469 Z M 426.363281 243.355469 " fill-opacity="1" fill-rule="nonzero"/><path fill="#0330ab" d="M 377.84375 282.363281 C 377.84375 276.085938 382.957031 270.976562 389.234375 270.976562 C 395.511719 270.976562 400.621094 276.085938 400.621094 282.363281 C 400.621094 288.644531 395.511719 293.753906 389.234375 293.753906 C 382.957031 293.753906 377.84375 288.644531 377.84375 282.363281 Z M 377.84375 282.363281 " fill-opacity="1" fill-rule="evenodd"/><path fill="#0330ab" d="M 478.109375 242.1875 L 487.433594 242.1875 L 487.433594 313.933594 L 478.109375 313.933594 Z M 478.109375 242.1875 " fill-opacity="1" fill-rule="nonzero"/><g clip-path="url(#ace600551c)"><path fill="#0330ab" d="M 494.160156 313.933594 C 494.160156 320.210938 489.050781 325.320312 482.769531 325.320312 C 476.492188 325.320312 471.382812 320.210938 471.382812 313.933594 C 471.382812 307.65625 476.492188 302.542969 482.769531 302.542969 C 489.050781 302.542969 494.160156 307.65625 494.160156 313.933594 Z M 494.160156 313.933594 " fill-opacity="1" fill-rule="evenodd"/></g><path fill="#0330ab" d="M 446.269531 58.078125 L 455.597656 58.078125 L 455.597656 117.445312 L 446.269531 117.445312 Z M 446.269531 58.078125 " fill-opacity="1" fill-rule="nonzero"/><g clip-path="url(#613ad5984f)"><path fill="#0330ab" d="M 439.542969 59.960938 C 439.542969 53.683594 444.65625 48.570312 450.933594 48.570312 C 457.210938 48.570312 462.324219 53.683594 462.324219 59.960938 C 462.324219 66.238281 457.210938 71.351562 450.933594 71.351562 C 444.65625 71.351562 439.542969 66.238281 439.542969 59.960938 Z M 439.542969 59.960938 " fill-opacity="1" fill-rule="evenodd"/></g><path fill="#ffffff" d="M 439.992188 151.882812 L 461.964844 151.882812 L 461.964844 215.195312 L 439.992188 215.195312 Z M 439.992188 151.882812 " fill-opacity="1" fill-rule="evenodd"/><path fill="#ffffff" d="M 482.625 172.601562 L 482.625 194.601562 L 419.285156 194.601562 L 419.285156 172.601562 Z M 482.625 172.601562 " fill-opacity="1" fill-rule="evenodd"/><g fill="#0330ab" fill-opacity="1"><g transform="translate(166.397455, 434.558761)"><g><path d="M 38.875 -1.703125 L 32.3125 -21.15625 L 14.484375 -21.15625 L 7.5625 -1.703125 L 14.3125 -1.703125 L 14.3125 0 L 0.546875 0 L 0.546875 -1.703125 L 4.765625 -1.703125 L 27.71875 -63.546875 L 35.09375 -63.546875 L 57.78125 -1.703125 L 61.921875 -1.703125 L 61.921875 0 L 32.484375 0 L 32.484375 -1.703125 Z M 23.765625 -46.703125 L 15.296875 -23.125 L 31.59375 -23.125 Z M 23.765625 -46.703125 "/></g></g></g><g fill="#0330ab" fill-opacity="1"><g transform="translate(228.849326, 434.558761)"><g><path d="M 1.078125 -42.84375 L 22.765625 -42.84375 L 22.765625 -34.5625 C 23.722656 -37.320312 25.191406 -39.539062 27.171875 -41.21875 C 29.160156 -42.894531 32.164062 -43.734375 36.1875 -43.734375 C 45.476562 -43.734375 50.125 -38.722656 50.125 -28.703125 L 50.125 -1.625 L 55.171875 -1.625 L 55.171875 0 L 29.703125 0 L 29.703125 -1.625 L 33.390625 -1.625 L 33.390625 -30.875 C 33.390625 -34.46875 33.148438 -36.789062 32.671875 -37.84375 C 32.191406 -38.894531 31.320312 -39.421875 30.0625 -39.421875 C 28.144531 -39.421875 26.445312 -38.160156 24.96875 -35.640625 C 23.5 -33.117188 22.765625 -30.054688 22.765625 -26.453125 L 22.765625 -1.625 L 26.640625 -1.625 L 26.640625 0 L 1.078125 0 L 1.078125 -1.625 L 6.03125 -1.625 L 6.03125 -41.21875 L 1.078125 -41.21875 Z M 1.078125 -42.84375 "/></g></g></g><g fill="#0330ab" fill-opacity="1"><g transform="translate(284.282112, 434.558761)"><g><path d="M 22.5 -21.15625 L 25.109375 -21.15625 L 25.109375 -28.078125 C 25.109375 -33.773438 24.789062 -37.597656 24.15625 -39.546875 C 23.53125 -41.503906 22.316406 -42.484375 20.515625 -42.484375 C 19.441406 -42.484375 18.46875 -42.195312 17.59375 -41.625 C 16.726562 -41.050781 16.296875 -40.269531 16.296875 -39.28125 C 16.296875 -38.289062 16.472656 -37.285156 16.828125 -36.265625 L 19.078125 -36.265625 C 19.554688 -35.003906 19.796875 -33.488281 19.796875 -31.71875 C 19.796875 -29.945312 19.046875 -28.414062 17.546875 -27.125 C 16.046875 -25.84375 14.15625 -25.203125 11.875 -25.203125 C 6.71875 -25.203125 4.140625 -27.691406 4.140625 -32.671875 C 4.140625 -40.046875 10.410156 -43.734375 22.953125 -43.734375 C 30.085938 -43.734375 35.019531 -42.519531 37.75 -40.09375 C 40.476562 -37.664062 41.84375 -33.210938 41.84375 -26.734375 L 41.84375 -8.453125 C 41.84375 -5.335938 42.710938 -3.78125 44.453125 -3.78125 C 46.492188 -3.78125 47.695312 -6.867188 48.0625 -13.046875 L 49.40625 -12.953125 C 49.164062 -7.679688 48.175781 -4.050781 46.4375 -2.0625 C 44.695312 -0.0820312 41.847656 0.90625 37.890625 0.90625 C 30.691406 0.90625 26.550781 -1.316406 25.46875 -5.765625 C 24.6875 -3.484375 23.515625 -1.800781 21.953125 -0.71875 C 20.398438 0.363281 18.125 0.90625 15.125 0.90625 C 6.238281 0.90625 1.796875 -2.722656 1.796875 -9.984375 C 1.796875 -14.242188 3.488281 -17.171875 6.875 -18.765625 C 10.269531 -20.359375 15.476562 -21.15625 22.5 -21.15625 Z M 18.90625 -10.078125 C 18.90625 -6.960938 19.066406 -4.953125 19.390625 -4.046875 C 19.722656 -3.148438 20.351562 -2.703125 21.28125 -2.703125 C 22.21875 -2.703125 23.085938 -3.46875 23.890625 -5 C 24.703125 -6.53125 25.109375 -8.644531 25.109375 -11.34375 L 25.109375 -19.703125 L 24.484375 -19.703125 C 20.765625 -19.703125 18.90625 -16.972656 18.90625 -11.515625 Z M 18.90625 -10.078125 "/></g></g></g><g fill="#0330ab" fill-opacity="1"><g transform="translate(333.685682, 434.558761)"><g><path d="M 0.90625 -42.84375 L 22.59375 -42.84375 L 22.59375 -34.5625 C 24.570312 -40.675781 28.9375 -43.734375 35.6875 -43.734375 C 42.4375 -43.734375 46.53125 -40.492188 47.96875 -34.015625 C 50.070312 -40.492188 54.484375 -43.734375 61.203125 -43.734375 C 70.023438 -43.734375 74.4375 -38.722656 74.4375 -28.703125 L 74.4375 -1.625 L 79.46875 -1.625 L 79.46875 0 L 54.546875 0 L 54.546875 -1.625 L 57.6875 -1.625 L 57.6875 -30.875 C 57.6875 -35.425781 57.296875 -38.09375 56.515625 -38.875 C 56.160156 -39.238281 55.679688 -39.421875 55.078125 -39.421875 C 53.335938 -39.421875 51.804688 -38.25 50.484375 -35.90625 C 49.171875 -33.570312 48.515625 -30.601562 48.515625 -27 L 48.515625 -1.625 L 51.75 -1.625 L 51.75 0 L 28.625 0 L 28.625 -1.625 L 31.765625 -1.625 L 31.765625 -30.875 C 31.765625 -35.425781 31.375 -38.09375 30.59375 -38.875 C 30.238281 -39.238281 29.757812 -39.421875 29.15625 -39.421875 C 27.476562 -39.421875 25.960938 -38.144531 24.609375 -35.59375 C 23.265625 -33.039062 22.59375 -29.992188 22.59375 -26.453125 L 22.59375 -1.625 L 25.828125 -1.625 L 25.828125 0 L 0.90625 0 L 0.90625 -1.625 L 5.84375 -1.625 L 5.84375 -41.21875 L 0.90625 -41.21875 Z M 0.90625 -42.84375 "/></g></g></g><g fill="#0330ab" fill-opacity="1"><g transform="translate(413.595274, 434.558761)"><g><path d="M 35.09375 -0.90625 C 38.039062 -0.90625 39.914062 -1.441406 40.71875 -2.515625 C 41.53125 -3.597656 41.9375 -5.429688 41.9375 -8.015625 L 41.9375 -25.46875 L 36.1875 -25.46875 L 36.1875 -27.453125 L 62.09375 -27.453125 L 62.09375 -25.46875 L 58.59375 -25.46875 L 58.59375 -0.09375 L 57.234375 -0.09375 C 56.160156 -1.59375 54.632812 -2.34375 52.65625 -2.34375 C 51.8125 -2.34375 49.300781 -1.800781 45.125 -0.71875 C 40.957031 0.363281 37.40625 0.90625 34.46875 0.90625 C 24.6875 0.90625 17.109375 -1.734375 11.734375 -7.015625 C 6.367188 -12.296875 3.6875 -20.226562 3.6875 -30.8125 C 3.6875 -41.40625 6.488281 -49.582031 12.09375 -55.34375 C 17.707031 -61.101562 25.253906 -63.984375 34.734375 -63.984375 C 38.398438 -63.984375 42.078125 -63.519531 45.765625 -62.59375 C 49.453125 -61.664062 51.59375 -61.203125 52.1875 -61.203125 C 52.789062 -61.203125 53.242188 -61.335938 53.546875 -61.609375 C 53.847656 -61.878906 54.179688 -62.34375 54.546875 -63 L 55.53125 -63 L 56.25 -43.46875 L 54.625 -43.46875 C 51.6875 -49.289062 48.734375 -53.863281 45.765625 -57.1875 C 42.796875 -60.519531 39.476562 -62.1875 35.8125 -62.1875 C 26.632812 -62.1875 22.046875 -53.21875 22.046875 -35.28125 L 22.046875 -28.171875 C 22.046875 -19.171875 23.171875 -12.375 25.421875 -7.78125 C 27.671875 -3.195312 30.894531 -0.90625 35.09375 -0.90625 Z M 35.09375 -0.90625 "/></g></g></g><g fill="#0330ab" fill-opacity="1"><g transform="translate(478.65681, 434.558761)"><g><path d="M 24.5625 0.90625 C 16.820312 0.90625 11.015625 -1.085938 7.140625 -5.078125 C 3.273438 -9.066406 1.34375 -14.617188 1.34375 -21.734375 C 1.34375 -28.847656 3.519531 -34.289062 7.875 -38.0625 C 12.226562 -41.84375 17.765625 -43.734375 24.484375 -43.734375 C 38.097656 -43.734375 44.632812 -36.894531 44.09375 -23.21875 L 18.71875 -23.21875 L 18.71875 -19.703125 C 18.71875 -13.828125 19.46875 -9.390625 20.96875 -6.390625 C 22.46875 -3.390625 25.078125 -1.890625 28.796875 -1.890625 C 35.753906 -1.890625 40.316406 -5.609375 42.484375 -13.046875 L 44.09375 -12.78125 C 42.957031 -8.457031 40.90625 -5.09375 37.9375 -2.6875 C 34.96875 -0.289062 30.507812 0.90625 24.5625 0.90625 Z M 18.8125 -25.015625 L 28.078125 -25.015625 L 28.078125 -29.4375 C 28.078125 -34.289062 27.789062 -37.601562 27.21875 -39.375 C 26.65625 -41.144531 25.515625 -42.03125 23.796875 -42.03125 C 22.085938 -42.03125 20.828125 -41.082031 20.015625 -39.1875 C 19.210938 -37.300781 18.8125 -34.050781 18.8125 -29.4375 Z M 18.8125 -25.015625 "/></g></g></g><g fill="#0330ab" fill-opacity="1"><g transform="translate(525.090752, 434.558761)"><g><path d="M 1.078125 -42.84375 L 22.765625 -42.84375 L 22.765625 -34.5625 C 23.722656 -37.320312 25.191406 -39.539062 27.171875 -41.21875 C 29.160156 -42.894531 32.164062 -43.734375 36.1875 -43.734375 C 45.476562 -43.734375 50.125 -38.722656 50.125 -28.703125 L 50.125 -1.625 L 55.171875 -1.625 L 55.171875 0 L 29.703125 0 L 29.703125 -1.625 L 33.390625 -1.625 L 33.390625 -30.875 C 33.390625 -34.46875 33.148438 -36.789062 32.671875 -37.84375 C 32.191406 -38.894531 31.320312 -39.421875 30.0625 -39.421875 C 28.144531 -39.421875 26.445312 -38.160156 24.96875 -35.640625 C 23.5 -33.117188 22.765625 -30.054688 22.765625 -26.453125 L 22.765625 -1.625 L 26.640625 -1.625 L 26.640625 0 L 1.078125 0 L 1.078125 -1.625 L 6.03125 -1.625 L 6.03125 -41.21875 L 1.078125 -41.21875 Z M 1.078125 -42.84375 "/></g></g></g><g fill="#0330ab" fill-opacity="1"><g transform="translate(580.52355, 434.558761)"><g><path d="M 24.5625 0.90625 C 16.820312 0.90625 11.015625 -1.085938 7.140625 -5.078125 C 3.273438 -9.066406 1.34375 -14.617188 1.34375 -21.734375 C 1.34375 -28.847656 3.519531 -34.289062 7.875 -38.0625 C 12.226562 -41.84375 17.765625 -43.734375 24.484375 -43.734375 C 38.097656 -43.734375 44.632812 -36.894531 44.09375 -23.21875 L 18.71875 -23.21875 L 18.71875 -19.703125 C 18.71875 -13.828125 19.46875 -9.390625 20.96875 -6.390625 C 22.46875 -3.390625 25.078125 -1.890625 28.796875 -1.890625 C 35.753906 -1.890625 40.316406 -5.609375 42.484375 -13.046875 L 44.09375 -12.78125 C 42.957031 -8.457031 40.90625 -5.09375 37.9375 -2.6875 C 34.96875 -0.289062 30.507812 0.90625 24.5625 0.90625 Z M 18.8125 -25.015625 L 28.078125 -25.015625 L 28.078125 -29.4375 C 28.078125 -34.289062 27.789062 -37.601562 27.21875 -39.375 C 26.65625 -41.144531 25.515625 -42.03125 23.796875 -42.03125 C 22.085938 -42.03125 20.828125 -41.082031 20.015625 -39.1875 C 19.210938 -37.300781 18.8125 -34.050781 18.8125 -29.4375 Z M 18.8125 -25.015625 "/></g></g></g><g fill="#0330ab" fill-opacity="1"><g transform="translate(626.957492, 434.558761)"><g><path d="M 2.96875 0.90625 L 2.96875 -15.203125 L 4.046875 -15.203125 C 5.609375 -9.984375 7.707031 -6.320312 10.34375 -4.21875 C 12.988281 -2.125 16.289062 -1.078125 20.25 -1.078125 C 26.375 -1.078125 29.4375 -3.03125 29.4375 -6.9375 C 29.4375 -8.613281 28.6875 -9.867188 27.1875 -10.703125 C 24.84375 -12.023438 21.84375 -13.046875 18.1875 -13.765625 C 14.101562 -14.847656 10.679688 -16.289062 7.921875 -18.09375 C 4.617188 -20.25 2.96875 -23.664062 2.96875 -28.34375 C 2.96875 -33.03125 4.40625 -36.765625 7.28125 -39.546875 C 10.164062 -42.335938 14.007812 -43.734375 18.8125 -43.734375 C 21.75 -43.734375 24.78125 -43.046875 27.90625 -41.671875 C 29.039062 -41.191406 29.90625 -40.953125 30.5 -40.953125 C 31.101562 -40.953125 31.613281 -41.160156 32.03125 -41.578125 C 32.457031 -41.992188 32.96875 -42.773438 33.5625 -43.921875 L 34.5625 -43.921875 L 34.5625 -30.15625 L 33.484375 -30.15625 C 30.421875 -37.945312 25.679688 -41.84375 19.265625 -41.84375 C 16.441406 -41.84375 14.335938 -41.347656 12.953125 -40.359375 C 11.578125 -39.367188 10.890625 -38.125 10.890625 -36.625 C 10.890625 -35.726562 11.097656 -35.023438 11.515625 -34.515625 C 11.941406 -34.003906 12.273438 -33.628906 12.515625 -33.390625 C 12.753906 -33.148438 13.140625 -32.894531 13.671875 -32.625 C 14.210938 -32.351562 14.660156 -32.140625 15.015625 -31.984375 C 15.378906 -31.835938 15.9375 -31.644531 16.6875 -31.40625 C 17.4375 -31.164062 17.992188 -31.015625 18.359375 -30.953125 C 22.441406 -29.941406 25.378906 -29.0625 27.171875 -28.3125 C 28.972656 -27.5625 30.6875 -26.644531 32.3125 -25.5625 C 35.613281 -23.28125 37.265625 -19.601562 37.265625 -14.53125 C 37.265625 -9.46875 35.765625 -5.628906 32.765625 -3.015625 C 29.765625 -0.398438 25.65625 0.90625 20.4375 0.90625 C 16.707031 0.90625 13.101562 0.0351562 9.625 -1.703125 C 8.90625 -2.191406 8.335938 -2.4375 7.921875 -2.4375 C 6.597656 -2.4375 5.304688 -1.320312 4.046875 0.90625 Z M 2.96875 0.90625 "/></g></g></g><g fill="#0330ab" fill-opacity="1"><g transform="translate(666.012422, 434.558761)"><g><path d="M 14.125 -49.046875 C 10.945312 -49.046875 8.679688 -49.851562 7.328125 -51.46875 C 5.984375 -53.09375 5.3125 -55.101562 5.3125 -57.5 C 5.3125 -59.90625 6.046875 -61.890625 7.515625 -63.453125 C 8.984375 -65.015625 11.21875 -65.796875 14.21875 -65.796875 C 17.21875 -65.796875 19.5 -65.085938 21.0625 -63.671875 C 22.625 -62.265625 23.40625 -60.253906 23.40625 -57.640625 C 23.40625 -55.035156 22.65625 -52.953125 21.15625 -51.390625 C 19.65625 -49.828125 17.3125 -49.046875 14.125 -49.046875 Z M 0.546875 -42.84375 L 22.59375 -42.84375 L 22.59375 -1.625 L 27.625 -1.625 L 27.625 0 L 0.90625 0 L 0.90625 -1.625 L 5.84375 -1.625 L 5.84375 -41.21875 L 0.546875 -41.21875 Z M 0.546875 -42.84375 "/></g></g></g><g fill="#0330ab" fill-opacity="1"><g transform="translate(694.538696, 434.558761)"><g><path d="M 2.96875 0.90625 L 2.96875 -15.203125 L 4.046875 -15.203125 C 5.609375 -9.984375 7.707031 -6.320312 10.34375 -4.21875 C 12.988281 -2.125 16.289062 -1.078125 20.25 -1.078125 C 26.375 -1.078125 29.4375 -3.03125 29.4375 -6.9375 C 29.4375 -8.613281 28.6875 -9.867188 27.1875 -10.703125 C 24.84375 -12.023438 21.84375 -13.046875 18.1875 -13.765625 C 14.101562 -14.847656 10.679688 -16.289062 7.921875 -18.09375 C 4.617188 -20.25 2.96875 -23.664062 2.96875 -28.34375 C 2.96875 -33.03125 4.40625 -36.765625 7.28125 -39.546875 C 10.164062 -42.335938 14.007812 -43.734375 18.8125 -43.734375 C 21.75 -43.734375 24.78125 -43.046875 27.90625 -41.671875 C 29.039062 -41.191406 29.90625 -40.953125 30.5 -40.953125 C 31.101562 -40.953125 31.613281 -41.160156 32.03125 -41.578125 C 32.457031 -41.992188 32.96875 -42.773438 33.5625 -43.921875 L 34.5625 -43.921875 L 34.5625 -30.15625 L 33.484375 -30.15625 C 30.421875 -37.945312 25.679688 -41.84375 19.265625 -41.84375 C 16.441406 -41.84375 14.335938 -41.347656 12.953125 -40.359375 C 11.578125 -39.367188 10.890625 -38.125 10.890625 -36.625 C 10.890625 -35.726562 11.097656 -35.023438 11.515625 -34.515625 C 11.941406 -34.003906 12.273438 -33.628906 12.515625 -33.390625 C 12.753906 -33.148438 13.140625 -32.894531 13.671875 -32.625 C 14.210938 -32.351562 14.660156 -32.140625 15.015625 -31.984375 C 15.378906 -31.835938 15.9375 -31.644531 16.6875 -31.40625 C 17.4375 -31.164062 17.992188 -31.015625 18.359375 -30.953125 C 22.441406 -29.941406 25.378906 -29.0625 27.171875 -28.3125 C 28.972656 -27.5625 30.6875 -26.644531 32.3125 -25.5625 C 35.613281 -23.28125 37.265625 -19.601562 37.265625 -14.53125 C 37.265625 -9.46875 35.765625 -5.628906 32.765625 -3.015625 C 29.765625 -0.398438 25.65625 0.90625 20.4375 0.90625 C 16.707031 0.90625 13.101562 0.0351562 9.625 -1.703125 C 8.90625 -2.191406 8.335938 -2.4375 7.921875 -2.4375 C 6.597656 -2.4375 5.304688 -1.320312 4.046875 0.90625 Z M 2.96875 0.90625 "/></g></g></g><g fill="#0330ab" fill-opacity="1"><g transform="translate(28.350585, 528.849957)"><g><path d="M 8 0.609375 C 6.769531 0.609375 5.679688 0.390625 4.734375 -0.046875 C 3.796875 -0.492188 3.0625 -1.132812 2.53125 -1.96875 C 2.007812 -2.8125 1.75 -3.796875 1.75 -4.921875 C 1.75 -5.804688 1.945312 -6.617188 2.34375 -7.359375 C 2.738281 -8.097656 3.28125 -8.722656 3.96875 -9.234375 C 4.632812 -9.722656 5.390625 -10.191406 6.234375 -10.640625 C 7.078125 -11.097656 7.941406 -11.488281 8.828125 -11.8125 C 10.617188 -12.457031 12.234375 -13.195312 13.671875 -14.03125 C 14.367188 -14.4375 14.910156 -14.925781 15.296875 -15.5 C 15.679688 -16.070312 15.875 -16.6875 15.875 -17.34375 C 15.875 -19.019531 15.460938 -20.28125 14.640625 -21.125 C 13.816406 -21.96875 12.632812 -22.390625 11.09375 -22.390625 C 10.019531 -22.390625 9.003906 -22.222656 8.046875 -21.890625 C 7.097656 -21.554688 6.363281 -21.09375 5.84375 -20.5 C 6.769531 -20.5 7.519531 -20.25 8.09375 -19.75 C 8.675781 -19.25 8.96875 -18.632812 8.96875 -17.90625 C 8.96875 -17.289062 8.828125 -16.738281 8.546875 -16.25 C 8.265625 -15.757812 7.882812 -15.378906 7.40625 -15.109375 C 6.925781 -14.847656 6.40625 -14.71875 5.84375 -14.71875 C 4.914062 -14.71875 4.128906 -15.035156 3.484375 -15.671875 C 2.847656 -16.316406 2.53125 -17.207031 2.53125 -18.34375 C 2.53125 -18.957031 2.734375 -19.617188 3.140625 -20.328125 C 3.546875 -21.046875 4.117188 -21.742188 4.859375 -22.421875 C 5.617188 -23.117188 6.640625 -23.679688 7.921875 -24.109375 C 9.203125 -24.535156 10.582031 -24.75 12.0625 -24.75 C 13.300781 -24.75 14.421875 -24.609375 15.421875 -24.328125 C 16.429688 -24.054688 17.34375 -23.617188 18.15625 -23.015625 C 18.976562 -22.410156 19.609375 -21.566406 20.046875 -20.484375 C 20.484375 -19.410156 20.703125 -18.144531 20.703125 -16.6875 L 20.703125 -6.359375 C 20.703125 -5.710938 20.78125 -5.128906 20.9375 -4.609375 C 21.101562 -4.097656 21.378906 -3.640625 21.765625 -3.234375 C 22.203125 -2.796875 22.734375 -2.578125 23.359375 -2.578125 C 25.265625 -2.578125 26.21875 -3.910156 26.21875 -6.578125 L 26.21875 -9.921875 L 28.65625 -9.921875 L 28.65625 -7.03125 C 28.65625 -5.550781 28.5 -4.289062 28.1875 -3.25 C 27.875 -2.207031 27.414062 -1.414062 26.8125 -0.875 C 26.226562 -0.351562 25.582031 0.0195312 24.875 0.25 C 24.175781 0.488281 23.347656 0.609375 22.390625 0.609375 C 21.359375 0.609375 20.410156 0.40625 19.546875 0 C 18.691406 -0.40625 17.960938 -1.023438 17.359375 -1.859375 C 16.710938 -2.742188 16.335938 -3.796875 16.234375 -5.015625 C 15.816406 -3.929688 15.1875 -2.960938 14.34375 -2.109375 C 13.5 -1.253906 12.519531 -0.585938 11.40625 -0.109375 C 10.300781 0.367188 9.164062 0.609375 8 0.609375 Z M 9.171875 -2.625 C 10.140625 -2.625 11.15625 -2.914062 12.21875 -3.5 C 13.28125 -4.082031 14.15625 -4.832031 14.84375 -5.75 C 15.53125 -6.632812 15.875 -7.492188 15.875 -8.328125 L 15.875 -13.125 C 15.019531 -12.269531 13.988281 -11.46875 12.78125 -10.71875 C 11.582031 -9.96875 10.488281 -9.367188 9.5 -8.921875 C 8.613281 -8.523438 7.894531 -8.007812 7.34375 -7.375 C 6.800781 -6.738281 6.53125 -5.992188 6.53125 -5.140625 C 6.53125 -4.378906 6.757812 -3.769531 7.21875 -3.3125 C 7.675781 -2.851562 8.328125 -2.625 9.171875 -2.625 Z M 9.171875 -2.625 "/></g></g></g><g fill="#0330ab" fill-opacity="1"><g transform="translate(56.806181, 528.849957)"><g><path d="M 1.09375 -2.515625 L 5.484375 -2.515625 L 5.484375 -21.578125 L 1.09375 -21.578125 L 1.09375 -24.09375 L 9.609375 -24.484375 L 10.171875 -19.59375 C 10.640625 -20.664062 11.300781 -21.59375 12.15625 -22.375 C 13.007812 -23.15625 13.957031 -23.742188 15 -24.140625 C 16.050781 -24.546875 17.109375 -24.75 18.171875 -24.75 C 18.679688 -24.75 19.132812 -24.726562 19.53125 -24.6875 C 19.925781 -24.644531 20.363281 -24.546875 20.84375 -24.390625 C 21.382812 -24.222656 21.859375 -24.007812 22.265625 -23.75 C 22.679688 -23.5 23.109375 -23.160156 23.546875 -22.734375 C 23.992188 -22.265625 24.359375 -21.734375 24.640625 -21.140625 C 24.921875 -20.554688 25.160156 -19.828125 25.359375 -18.953125 C 25.535156 -18.085938 25.625 -17.109375 25.625 -16.015625 L 25.625 -2.515625 L 30.234375 -2.515625 L 30.234375 0 L 16.6875 0 L 16.6875 -2.515625 L 20.796875 -2.515625 L 20.796875 -15.96875 C 20.796875 -17.875 20.421875 -19.300781 19.671875 -20.25 C 18.921875 -21.195312 17.867188 -21.671875 16.515625 -21.671875 C 15.671875 -21.671875 14.894531 -21.515625 14.1875 -21.203125 C 13.476562 -20.890625 12.882812 -20.457031 12.40625 -19.90625 C 11.9375 -19.363281 11.539062 -18.722656 11.21875 -17.984375 C 10.894531 -17.242188 10.664062 -16.46875 10.53125 -15.65625 C 10.382812 -14.90625 10.3125 -14.070312 10.3125 -13.15625 L 10.3125 -2.515625 L 14.390625 -2.515625 L 14.390625 0 L 1.09375 0 Z M 1.09375 -2.515625 "/></g></g></g><g fill="#0330ab" fill-opacity="1"><g transform="translate(87.328007, 528.849957)"><g/></g></g><g fill="#0330ab" fill-opacity="1"><g transform="translate(98.108341, 528.849957)"><g><path d="M 0.1875 0 L 0.1875 -3.21875 L 4.21875 -3.21875 L 16.0625 -33.796875 L 21.390625 -33.796875 L 33.40625 -3.21875 L 37.171875 -3.21875 L 37.171875 0 L 22.640625 0 L 22.640625 -3.21875 L 27.65625 -3.21875 L 24.53125 -11.328125 L 11.546875 -11.328125 L 8.609375 -3.21875 L 14.265625 -3.21875 L 14.265625 0 Z M 12.59375 -14.171875 L 23.40625 -14.171875 L 17.859375 -29.40625 Z M 12.59375 -14.171875 "/></g></g></g><g fill="#0330ab" fill-opacity="1"><g transform="translate(135.435248, 528.849957)"><g><path d="M 0.671875 0 L 0.671875 -3.21875 L 6.15625 -3.21875 L 6.15625 -30.59375 L 0.671875 -30.59375 L 0.671875 -33.796875 L 16.59375 -33.796875 L 16.59375 -30.59375 L 11.4375 -30.59375 L 11.4375 -3.21875 L 16.59375 -3.21875 L 16.59375 0 Z M 0.671875 0 "/></g></g></g><g fill="#0330ab" fill-opacity="1"><g transform="translate(152.706247, 528.849957)"><g/></g></g><g fill="#0330ab" fill-opacity="1"><g transform="translate(163.486581, 528.849957)"><g><path d="M -1.1875 6.3125 L 4.09375 6.3125 L 4.09375 -21.578125 L -0.265625 -21.578125 L -0.265625 -24.09375 L 8.78125 -24.75 L 8.78125 -20.234375 C 9.59375 -21.703125 10.625 -22.820312 11.875 -23.59375 C 13.125 -24.363281 14.535156 -24.75 16.109375 -24.75 C 17.960938 -24.75 19.628906 -24.191406 21.109375 -23.078125 C 22.597656 -21.960938 23.753906 -20.429688 24.578125 -18.484375 C 25.367188 -16.554688 25.765625 -14.429688 25.765625 -12.109375 C 25.765625 -9.617188 25.34375 -7.410156 24.5 -5.484375 C 23.664062 -3.566406 22.476562 -2.070312 20.9375 -1 C 19.394531 0.0703125 17.597656 0.609375 15.546875 0.609375 C 14.210938 0.609375 12.960938 0.289062 11.796875 -0.34375 C 10.640625 -0.976562 9.679688 -1.859375 8.921875 -2.984375 L 8.921875 6.265625 L 13.875 6.265625 L 13.875 9 L -1.1875 9 Z M 14.671875 -1.9375 C 15.679688 -1.9375 16.582031 -2.238281 17.375 -2.84375 C 18.175781 -3.445312 18.804688 -4.273438 19.265625 -5.328125 C 20.171875 -7.390625 20.625 -9.738281 20.625 -12.375 C 20.625 -14.082031 20.394531 -15.632812 19.9375 -17.03125 C 19.488281 -18.4375 18.8125 -19.59375 17.90625 -20.5 C 16.976562 -21.4375 15.898438 -21.90625 14.671875 -21.90625 C 13.484375 -21.90625 12.425781 -21.476562 11.5 -20.625 C 10.582031 -19.78125 9.867188 -18.601562 9.359375 -17.09375 C 8.859375 -15.582031 8.609375 -13.867188 8.609375 -11.953125 C 8.609375 -9.460938 9.070312 -7.222656 10 -5.234375 C 10.457031 -4.210938 11.09375 -3.40625 11.90625 -2.8125 C 12.726562 -2.226562 13.648438 -1.9375 14.671875 -1.9375 Z M 14.671875 -1.9375 "/></g></g></g><g fill="#0330ab" fill-opacity="1"><g transform="translate(190.886597, 528.849957)"><g><path d="M 13.4375 0.609375 C 11.082031 0.609375 9.015625 0.0664062 7.234375 -1.015625 C 5.453125 -2.109375 4.078125 -3.613281 3.109375 -5.53125 C 2.140625 -7.445312 1.65625 -9.625 1.65625 -12.0625 C 1.65625 -14.488281 2.113281 -16.648438 3.03125 -18.546875 C 3.957031 -20.453125 5.3125 -21.957031 7.09375 -23.0625 C 8.894531 -24.1875 10.992188 -24.75 13.390625 -24.75 C 15.148438 -24.75 16.773438 -24.425781 18.265625 -23.78125 C 19.753906 -23.144531 21.003906 -22.25 22.015625 -21.09375 C 23.003906 -19.957031 23.757812 -18.613281 24.28125 -17.0625 C 24.800781 -15.507812 25.0625 -13.84375 25.0625 -12.0625 C 25.0625 -9.65625 24.601562 -7.503906 23.6875 -5.609375 C 22.78125 -3.710938 21.441406 -2.207031 19.671875 -1.09375 C 17.910156 0.0390625 15.832031 0.609375 13.4375 0.609375 Z M 13.4375 -2.25 C 14.75 -2.25 15.894531 -2.640625 16.875 -3.421875 C 17.851562 -4.210938 18.601562 -5.328125 19.125 -6.765625 C 19.65625 -8.203125 19.921875 -9.867188 19.921875 -11.765625 C 19.921875 -13.847656 19.695312 -15.632812 19.25 -17.125 C 18.800781 -18.613281 18.085938 -19.804688 17.109375 -20.703125 C 16.109375 -21.617188 14.867188 -22.078125 13.390625 -22.078125 C 11.929688 -22.078125 10.691406 -21.628906 9.671875 -20.734375 C 8.660156 -19.835938 7.929688 -18.609375 7.484375 -17.046875 C 7.035156 -15.546875 6.8125 -13.785156 6.8125 -11.765625 C 6.8125 -9.867188 7.078125 -8.203125 7.609375 -6.765625 C 8.140625 -5.328125 8.90625 -4.210938 9.90625 -3.421875 C 10.90625 -2.640625 12.082031 -2.25 13.4375 -2.25 Z M 13.4375 -2.25 "/></g></g></g><g fill="#0330ab" fill-opacity="1"><g transform="translate(217.590388, 528.849957)"><g><path d="M 11.90625 0.875 C 11.1875 0.875 10.609375 0.628906 10.171875 0.140625 C 9.742188 -0.335938 9.367188 -1.164062 9.046875 -2.34375 L 3.953125 -21.578125 L 0.1875 -21.578125 L 0.1875 -24.09375 L 12.78125 -24.09375 L 12.78125 -21.578125 L 9.171875 -21.578125 L 12.921875 -4.921875 L 18.171875 -21.515625 L 22.265625 -21.515625 L 27.140625 -4.78125 L 31.328125 -21.578125 L 27.5625 -21.578125 L 27.5625 -24.09375 L 37.921875 -24.09375 L 37.921875 -21.578125 L 34.71875 -21.578125 L 29.625 -2.453125 C 29.40625 -1.566406 29.175781 -0.882812 28.9375 -0.40625 C 28.695312 0.0625 28.398438 0.390625 28.046875 0.578125 C 27.691406 0.773438 27.238281 0.875 26.6875 0.875 C 25.914062 0.875 25.3125 0.632812 24.875 0.15625 C 24.4375 -0.320312 24.054688 -1.140625 23.734375 -2.296875 L 19.78125 -16.796875 L 15.140625 -2.5 C 14.859375 -1.625 14.578125 -0.945312 14.296875 -0.46875 C 14.015625 0.0078125 13.6875 0.351562 13.3125 0.5625 C 12.945312 0.769531 12.476562 0.875 11.90625 0.875 Z M 11.90625 0.875 "/></g></g></g><g fill="#0330ab" fill-opacity="1"><g transform="translate(255.478765, 528.849957)"><g><path d="M 13.390625 0.609375 C 11.585938 0.609375 9.929688 0.269531 8.421875 -0.40625 C 6.910156 -1.09375 5.660156 -2.035156 4.671875 -3.234375 C 3.703125 -4.398438 2.957031 -5.71875 2.4375 -7.1875 C 1.914062 -8.65625 1.65625 -10.175781 1.65625 -11.75 C 1.65625 -13.113281 1.816406 -14.429688 2.140625 -15.703125 C 2.460938 -16.972656 2.941406 -18.148438 3.578125 -19.234375 C 4.953125 -21.578125 6.789062 -23.1875 9.09375 -24.0625 C 10.3125 -24.519531 11.65625 -24.75 13.125 -24.75 C 14.644531 -24.75 16.0625 -24.476562 17.375 -23.9375 C 18.695312 -23.40625 19.851562 -22.628906 20.84375 -21.609375 C 21.84375 -20.554688 22.628906 -19.238281 23.203125 -17.65625 C 23.785156 -16.070312 24.09375 -14.3125 24.125 -12.375 L 6.8125 -12.375 L 6.8125 -12.203125 C 6.8125 -9.585938 7.363281 -7.390625 8.46875 -5.609375 C 9.019531 -4.710938 9.757812 -4.015625 10.6875 -3.515625 C 11.613281 -3.015625 12.671875 -2.765625 13.859375 -2.765625 C 14.910156 -2.765625 15.925781 -2.984375 16.90625 -3.421875 C 17.882812 -3.867188 18.734375 -4.515625 19.453125 -5.359375 C 20.179688 -6.203125 20.707031 -7.191406 21.03125 -8.328125 L 23.65625 -7.5 C 23.257812 -5.851562 22.585938 -4.421875 21.640625 -3.203125 C 20.703125 -1.984375 19.53125 -1.039062 18.125 -0.375 C 16.71875 0.28125 15.140625 0.609375 13.390625 0.609375 Z M 19.1875 -14.796875 C 19.15625 -16.222656 18.875 -17.484375 18.34375 -18.578125 C 17.8125 -19.679688 17.097656 -20.539062 16.203125 -21.15625 C 15.316406 -21.769531 14.332031 -22.078125 13.25 -22.078125 C 12.15625 -22.078125 11.148438 -21.769531 10.234375 -21.15625 C 9.328125 -20.539062 8.582031 -19.679688 8 -18.578125 C 7.425781 -17.484375 7.082031 -16.222656 6.96875 -14.796875 Z M 19.1875 -14.796875 "/></g></g></g><g fill="#0330ab" fill-opacity="1"><g transform="translate(281.306661, 528.849957)"><g><path d="M 1.09375 -2.515625 L 5.484375 -2.515625 L 5.484375 -21.578125 L 1.09375 -21.578125 L 1.09375 -24.09375 L 9.609375 -24.484375 L 10.21875 -19.234375 C 10.59375 -20.503906 11.273438 -21.703125 12.265625 -22.828125 C 12.785156 -23.421875 13.429688 -23.890625 14.203125 -24.234375 C 14.972656 -24.578125 15.800781 -24.75 16.6875 -24.75 C 17.507812 -24.75 18.257812 -24.59375 18.9375 -24.28125 C 19.613281 -23.976562 20.148438 -23.535156 20.546875 -22.953125 C 20.941406 -22.367188 21.140625 -21.679688 21.140625 -20.890625 C 21.140625 -20.140625 20.984375 -19.484375 20.671875 -18.921875 C 20.367188 -18.359375 19.953125 -17.929688 19.421875 -17.640625 C 18.898438 -17.347656 18.328125 -17.203125 17.703125 -17.203125 C 16.816406 -17.203125 16.0625 -17.476562 15.4375 -18.03125 C 14.820312 -18.59375 14.515625 -19.3125 14.515625 -20.1875 C 14.515625 -20.476562 14.582031 -20.785156 14.71875 -21.109375 C 14.863281 -21.441406 15.019531 -21.710938 15.1875 -21.921875 L 15.4375 -22.171875 C 14.550781 -22.171875 13.765625 -21.894531 13.078125 -21.34375 C 12.390625 -20.800781 11.847656 -20.050781 11.453125 -19.09375 C 10.691406 -17.238281 10.3125 -15.179688 10.3125 -12.921875 L 10.3125 -2.515625 L 15.359375 -2.515625 L 15.359375 0 L 1.09375 0 Z M 1.09375 -2.515625 "/></g></g></g><g fill="#0330ab" fill-opacity="1"><g transform="translate(302.732563, 528.849957)"><g><path d="M 13.390625 0.609375 C 11.585938 0.609375 9.929688 0.269531 8.421875 -0.40625 C 6.910156 -1.09375 5.660156 -2.035156 4.671875 -3.234375 C 3.703125 -4.398438 2.957031 -5.71875 2.4375 -7.1875 C 1.914062 -8.65625 1.65625 -10.175781 1.65625 -11.75 C 1.65625 -13.113281 1.816406 -14.429688 2.140625 -15.703125 C 2.460938 -16.972656 2.941406 -18.148438 3.578125 -19.234375 C 4.953125 -21.578125 6.789062 -23.1875 9.09375 -24.0625 C 10.3125 -24.519531 11.65625 -24.75 13.125 -24.75 C 14.644531 -24.75 16.0625 -24.476562 17.375 -23.9375 C 18.695312 -23.40625 19.851562 -22.628906 20.84375 -21.609375 C 21.84375 -20.554688 22.628906 -19.238281 23.203125 -17.65625 C 23.785156 -16.070312 24.09375 -14.3125 24.125 -12.375 L 6.8125 -12.375 L 6.8125 -12.203125 C 6.8125 -9.585938 7.363281 -7.390625 8.46875 -5.609375 C 9.019531 -4.710938 9.757812 -4.015625 10.6875 -3.515625 C 11.613281 -3.015625 12.671875 -2.765625 13.859375 -2.765625 C 14.910156 -2.765625 15.925781 -2.984375 16.90625 -3.421875 C 17.882812 -3.867188 18.734375 -4.515625 19.453125 -5.359375 C 20.179688 -6.203125 20.707031 -7.191406 21.03125 -8.328125 L 23.65625 -7.5 C 23.257812 -5.851562 22.585938 -4.421875 21.640625 -3.203125 C 20.703125 -1.984375 19.53125 -1.039062 18.125 -0.375 C 16.71875 0.28125 15.140625 0.609375 13.390625 0.609375 Z M 19.1875 -14.796875 C 19.15625 -16.222656 18.875 -17.484375 18.34375 -18.578125 C 17.8125 -19.679688 17.097656 -20.539062 16.203125 -21.15625 C 15.316406 -21.769531 14.332031 -22.078125 13.25 -22.078125 C 12.15625 -22.078125 11.148438 -21.769531 10.234375 -21.15625 C 9.328125 -20.539062 8.582031 -19.679688 8 -18.578125 C 7.425781 -17.484375 7.082031 -16.222656 6.96875 -14.796875 Z M 19.1875 -14.796875 "/></g></g></g><g fill="#0330ab" fill-opacity="1"><g transform="translate(328.560458, 528.849957)"><g><path d="M 11.6875 0.609375 C 9.71875 0.609375 7.984375 0.0859375 6.484375 -0.953125 C 4.992188 -2.003906 3.835938 -3.488281 3.015625 -5.40625 C 2.203125 -7.320312 1.796875 -9.539062 1.796875 -12.0625 C 1.796875 -14.59375 2.210938 -16.816406 3.046875 -18.734375 C 3.878906 -20.648438 5.066406 -22.128906 6.609375 -23.171875 C 8.148438 -24.222656 9.953125 -24.75 12.015625 -24.75 C 13.273438 -24.75 14.503906 -24.425781 15.703125 -23.78125 C 16.898438 -23.144531 17.875 -22.269531 18.625 -21.15625 L 18.625 -31.046875 L 13.34375 -31.046875 L 13.34375 -33.796875 L 23.453125 -33.796875 L 23.453125 -2.515625 L 27.515625 -2.515625 L 27.515625 0 L 19.546875 0 L 18.671875 -3.8125 C 17.921875 -2.4375 16.90625 -1.351562 15.625 -0.5625 C 14.34375 0.21875 13.03125 0.609375 11.6875 0.609375 Z M 12.640625 -2.25 C 13.835938 -2.25 14.921875 -2.679688 15.890625 -3.546875 C 16.859375 -4.421875 17.609375 -5.625 18.140625 -7.15625 C 18.679688 -8.6875 18.953125 -10.410156 18.953125 -12.328125 C 18.953125 -14.828125 18.472656 -17.046875 17.515625 -18.984375 C 17.023438 -19.984375 16.367188 -20.769531 15.546875 -21.34375 C 14.734375 -21.925781 13.828125 -22.21875 12.828125 -22.21875 C 11.828125 -22.21875 10.929688 -21.925781 10.140625 -21.34375 C 9.359375 -20.757812 8.734375 -19.945312 8.265625 -18.90625 C 7.378906 -16.914062 6.9375 -14.597656 6.9375 -11.953125 C 6.9375 -8.253906 7.773438 -5.503906 9.453125 -3.703125 C 10.335938 -2.734375 11.398438 -2.25 12.640625 -2.25 Z M 12.640625 -2.25 "/></g></g></g><g fill="#0330ab" fill-opacity="1"><g transform="translate(356.319818, 528.849957)"><g/></g></g><g fill="#0330ab" fill-opacity="1"><g transform="translate(367.100152, 528.849957)"><g><path d="M 0.1875 0 L 0.1875 -3.21875 L 4.21875 -3.21875 L 16.0625 -33.796875 L 21.390625 -33.796875 L 33.40625 -3.21875 L 37.171875 -3.21875 L 37.171875 0 L 22.640625 0 L 22.640625 -3.21875 L 27.65625 -3.21875 L 24.53125 -11.328125 L 11.546875 -11.328125 L 8.609375 -3.21875 L 14.265625 -3.21875 L 14.265625 0 Z M 12.59375 -14.171875 L 23.40625 -14.171875 L 17.859375 -29.40625 Z M 12.59375 -14.171875 "/></g></g></g><g fill="#0330ab" fill-opacity="1"><g transform="translate(404.427048, 528.849957)"><g><path d="M 1.09375 -2.515625 L 5.484375 -2.515625 L 5.484375 -21.578125 L 1.09375 -21.578125 L 1.09375 -24.09375 L 9.609375 -24.484375 L 10.171875 -19.59375 C 10.640625 -20.664062 11.300781 -21.59375 12.15625 -22.375 C 13.007812 -23.15625 13.957031 -23.742188 15 -24.140625 C 16.050781 -24.546875 17.109375 -24.75 18.171875 -24.75 C 18.679688 -24.75 19.132812 -24.726562 19.53125 -24.6875 C 19.925781 -24.644531 20.363281 -24.546875 20.84375 -24.390625 C 21.382812 -24.222656 21.859375 -24.007812 22.265625 -23.75 C 22.679688 -23.5 23.109375 -23.160156 23.546875 -22.734375 C 23.992188 -22.265625 24.359375 -21.734375 24.640625 -21.140625 C 24.921875 -20.554688 25.160156 -19.828125 25.359375 -18.953125 C 25.535156 -18.085938 25.625 -17.109375 25.625 -16.015625 L 25.625 -2.515625 L 30.234375 -2.515625 L 30.234375 0 L 16.6875 0 L 16.6875 -2.515625 L 20.796875 -2.515625 L 20.796875 -15.96875 C 20.796875 -17.875 20.421875 -19.300781 19.671875 -20.25 C 18.921875 -21.195312 17.867188 -21.671875 16.515625 -21.671875 C 15.671875 -21.671875 14.894531 -21.515625 14.1875 -21.203125 C 13.476562 -20.890625 12.882812 -20.457031 12.40625 -19.90625 C 11.9375 -19.363281 11.539062 -18.722656 11.21875 -17.984375 C 10.894531 -17.242188 10.664062 -16.46875 10.53125 -15.65625 C 10.382812 -14.90625 10.3125 -14.070312 10.3125 -13.15625 L 10.3125 -2.515625 L 14.390625 -2.515625 L 14.390625 0 L 1.09375 0 Z M 1.09375 -2.515625 "/></g></g></g><g fill="#0330ab" fill-opacity="1"><g transform="translate(434.948897, 528.849957)"><g><path d="M 8 0.609375 C 6.769531 0.609375 5.679688 0.390625 4.734375 -0.046875 C 3.796875 -0.492188 3.0625 -1.132812 2.53125 -1.96875 C 2.007812 -2.8125 1.75 -3.796875 1.75 -4.921875 C 1.75 -5.804688 1.945312 -6.617188 2.34375 -7.359375 C 2.738281 -8.097656 3.28125 -8.722656 3.96875 -9.234375 C 4.632812 -9.722656 5.390625 -10.191406 6.234375 -10.640625 C 7.078125 -11.097656 7.941406 -11.488281 8.828125 -11.8125 C 10.617188 -12.457031 12.234375 -13.195312 13.671875 -14.03125 C 14.367188 -14.4375 14.910156 -14.925781 15.296875 -15.5 C 15.679688 -16.070312 15.875 -16.6875 15.875 -17.34375 C 15.875 -19.019531 15.460938 -20.28125 14.640625 -21.125 C 13.816406 -21.96875 12.632812 -22.390625 11.09375 -22.390625 C 10.019531 -22.390625 9.003906 -22.222656 8.046875 -21.890625 C 7.097656 -21.554688 6.363281 -21.09375 5.84375 -20.5 C 6.769531 -20.5 7.519531 -20.25 8.09375 -19.75 C 8.675781 -19.25 8.96875 -18.632812 8.96875 -17.90625 C 8.96875 -17.289062 8.828125 -16.738281 8.546875 -16.25 C 8.265625 -15.757812 7.882812 -15.378906 7.40625 -15.109375 C 6.925781 -14.847656 6.40625 -14.71875 5.84375 -14.71875 C 4.914062 -14.71875 4.128906 -15.035156 3.484375 -15.671875 C 2.847656 -16.316406 2.53125 -17.207031 2.53125 -18.34375 C 2.53125 -18.957031 2.734375 -19.617188 3.140625 -20.328125 C 3.546875 -21.046875 4.117188 -21.742188 4.859375 -22.421875 C 5.617188 -23.117188 6.640625 -23.679688 7.921875 -24.109375 C 9.203125 -24.535156 10.582031 -24.75 12.0625 -24.75 C 13.300781 -24.75 14.421875 -24.609375 15.421875 -24.328125 C 16.429688 -24.054688 17.34375 -23.617188 18.15625 -23.015625 C 18.976562 -22.410156 19.609375 -21.566406 20.046875 -20.484375 C 20.484375 -19.410156 20.703125 -18.144531 20.703125 -16.6875 L 20.703125 -6.359375 C 20.703125 -5.710938 20.78125 -5.128906 20.9375 -4.609375 C 21.101562 -4.097656 21.378906 -3.640625 21.765625 -3.234375 C 22.203125 -2.796875 22.734375 -2.578125 23.359375 -2.578125 C 25.265625 -2.578125 26.21875 -3.910156 26.21875 -6.578125 L 26.21875 -9.921875 L 28.65625 -9.921875 L 28.65625 -7.03125 C 28.65625 -5.550781 28.5 -4.289062 28.1875 -3.25 C 27.875 -2.207031 27.414062 -1.414062 26.8125 -0.875 C 26.226562 -0.351562 25.582031 0.0195312 24.875 0.25 C 24.175781 0.488281 23.347656 0.609375 22.390625 0.609375 C 21.359375 0.609375 20.410156 0.40625 19.546875 0 C 18.691406 -0.40625 17.960938 -1.023438 17.359375 -1.859375 C 16.710938 -2.742188 16.335938 -3.796875 16.234375 -5.015625 C 15.816406 -3.929688 15.1875 -2.960938 14.34375 -2.109375 C 13.5 -1.253906 12.519531 -0.585938 11.40625 -0.109375 C 10.300781 0.367188 9.164062 0.609375 8 0.609375 Z M 9.171875 -2.625 C 10.140625 -2.625 11.15625 -2.914062 12.21875 -3.5 C 13.28125 -4.082031 14.15625 -4.832031 14.84375 -5.75 C 15.53125 -6.632812 15.875 -7.492188 15.875 -8.328125 L 15.875 -13.125 C 15.019531 -12.269531 13.988281 -11.46875 12.78125 -10.71875 C 11.582031 -9.96875 10.488281 -9.367188 9.5 -8.921875 C 8.613281 -8.523438 7.894531 -8.007812 7.34375 -7.375 C 6.800781 -6.738281 6.53125 -5.992188 6.53125 -5.140625 C 6.53125 -4.378906 6.757812 -3.769531 7.21875 -3.3125 C 7.675781 -2.851562 8.328125 -2.625 9.171875 -2.625 Z M 9.171875 -2.625 "/></g></g></g><g fill="#0330ab" fill-opacity="1"><g transform="translate(463.404493, 528.849957)"><g><path d="M 1.09375 -2.515625 L 5.484375 -2.515625 L 5.484375 -21.578125 L 1.09375 -21.578125 L 1.09375 -24.09375 L 9.609375 -24.484375 L 10.171875 -19.59375 C 10.472656 -20.46875 10.90625 -21.253906 11.46875 -21.953125 C 12.039062 -22.648438 12.6875 -23.203125 13.40625 -23.609375 C 14.78125 -24.367188 16.234375 -24.75 17.765625 -24.75 C 18.347656 -24.75 18.84375 -24.722656 19.25 -24.671875 C 19.65625 -24.617188 20.113281 -24.507812 20.625 -24.34375 C 21.1875 -24.15625 21.671875 -23.894531 22.078125 -23.5625 C 22.492188 -23.226562 22.898438 -22.765625 23.296875 -22.171875 C 23.671875 -21.566406 23.984375 -20.832031 24.234375 -19.96875 C 24.941406 -21.570312 25.921875 -22.769531 27.171875 -23.5625 C 28.421875 -24.351562 29.835938 -24.75 31.421875 -24.75 C 31.929688 -24.75 32.382812 -24.726562 32.78125 -24.6875 C 33.175781 -24.644531 33.613281 -24.546875 34.09375 -24.390625 C 34.632812 -24.222656 35.109375 -24.007812 35.515625 -23.75 C 35.929688 -23.5 36.359375 -23.160156 36.796875 -22.734375 C 37.242188 -22.265625 37.609375 -21.734375 37.890625 -21.140625 C 38.171875 -20.554688 38.410156 -19.828125 38.609375 -18.953125 C 38.785156 -18.085938 38.875 -17.109375 38.875 -16.015625 L 38.875 -2.515625 L 43.015625 -2.515625 L 43.015625 0 L 30.40625 0 L 30.40625 -2.515625 L 34.046875 -2.515625 L 34.046875 -15.96875 C 34.046875 -17.875 33.671875 -19.300781 32.921875 -20.25 C 32.179688 -21.195312 31.128906 -21.671875 29.765625 -21.671875 C 28.734375 -21.671875 27.832031 -21.445312 27.0625 -21 C 26.300781 -20.550781 25.71875 -19.929688 25.3125 -19.140625 C 24.90625 -18.347656 24.703125 -17.441406 24.703125 -16.421875 L 24.703125 -2.515625 L 28.578125 -2.515625 L 28.578125 0 L 16.015625 0 L 16.015625 -2.515625 L 19.875 -2.515625 L 19.875 -15.96875 C 19.875 -17.875 19.5 -19.300781 18.75 -20.25 C 18 -21.195312 16.945312 -21.671875 15.59375 -21.671875 C 14.75 -21.671875 14 -21.507812 13.34375 -21.1875 C 12.695312 -20.863281 12.179688 -20.4375 11.796875 -19.90625 C 11.429688 -19.394531 11.132812 -18.757812 10.90625 -18 C 10.675781 -17.25 10.515625 -16.472656 10.421875 -15.671875 C 10.347656 -14.816406 10.3125 -13.976562 10.3125 -13.15625 L 10.3125 -2.515625 L 14.171875 -2.515625 L 14.171875 0 L 1.09375 0 Z M 1.09375 -2.515625 "/></g></g></g><g fill="#0330ab" fill-opacity="1"><g transform="translate(506.727977, 528.849957)"><g><path d="M 1.09375 -2.515625 L 5.484375 -2.515625 L 5.484375 -21.578125 L 1.09375 -21.578125 L 1.09375 -24.09375 L 9.609375 -24.484375 L 10.171875 -19.59375 C 10.640625 -20.664062 11.300781 -21.59375 12.15625 -22.375 C 13.007812 -23.15625 13.957031 -23.742188 15 -24.140625 C 16.050781 -24.546875 17.109375 -24.75 18.171875 -24.75 C 18.679688 -24.75 19.132812 -24.726562 19.53125 -24.6875 C 19.925781 -24.644531 20.363281 -24.546875 20.84375 -24.390625 C 21.382812 -24.222656 21.859375 -24.007812 22.265625 -23.75 C 22.679688 -23.5 23.109375 -23.160156 23.546875 -22.734375 C 23.992188 -22.265625 24.359375 -21.734375 24.640625 -21.140625 C 24.921875 -20.554688 25.160156 -19.828125 25.359375 -18.953125 C 25.535156 -18.085938 25.625 -17.109375 25.625 -16.015625 L 25.625 -2.515625 L 30.234375 -2.515625 L 30.234375 0 L 16.6875 0 L 16.6875 -2.515625 L 20.796875 -2.515625 L 20.796875 -15.96875 C 20.796875 -17.875 20.421875 -19.300781 19.671875 -20.25 C 18.921875 -21.195312 17.867188 -21.671875 16.515625 -21.671875 C 15.671875 -21.671875 14.894531 -21.515625 14.1875 -21.203125 C 13.476562 -20.890625 12.882812 -20.457031 12.40625 -19.90625 C 11.9375 -19.363281 11.539062 -18.722656 11.21875 -17.984375 C 10.894531 -17.242188 10.664062 -16.46875 10.53125 -15.65625 C 10.382812 -14.90625 10.3125 -14.070312 10.3125 -13.15625 L 10.3125 -2.515625 L 14.390625 -2.515625 L 14.390625 0 L 1.09375 0 Z M 1.09375 -2.515625 "/></g></g></g><g fill="#0330ab" fill-opacity="1"><g transform="translate(537.249827, 528.849957)"><g><path d="M 13.390625 0.609375 C 11.585938 0.609375 9.929688 0.269531 8.421875 -0.40625 C 6.910156 -1.09375 5.660156 -2.035156 4.671875 -3.234375 C 3.703125 -4.398438 2.957031 -5.71875 2.4375 -7.1875 C 1.914062 -8.65625 1.65625 -10.175781 1.65625 -11.75 C 1.65625 -13.113281 1.816406 -14.429688 2.140625 -15.703125 C 2.460938 -16.972656 2.941406 -18.148438 3.578125 -19.234375 C 4.953125 -21.578125 6.789062 -23.1875 9.09375 -24.0625 C 10.3125 -24.519531 11.65625 -24.75 13.125 -24.75 C 14.644531 -24.75 16.0625 -24.476562 17.375 -23.9375 C 18.695312 -23.40625 19.851562 -22.628906 20.84375 -21.609375 C 21.84375 -20.554688 22.628906 -19.238281 23.203125 -17.65625 C 23.785156 -16.070312 24.09375 -14.3125 24.125 -12.375 L 6.8125 -12.375 L 6.8125 -12.203125 C 6.8125 -9.585938 7.363281 -7.390625 8.46875 -5.609375 C 9.019531 -4.710938 9.757812 -4.015625 10.6875 -3.515625 C 11.613281 -3.015625 12.671875 -2.765625 13.859375 -2.765625 C 14.910156 -2.765625 15.925781 -2.984375 16.90625 -3.421875 C 17.882812 -3.867188 18.734375 -4.515625 19.453125 -5.359375 C 20.179688 -6.203125 20.707031 -7.191406 21.03125 -8.328125 L 23.65625 -7.5 C 23.257812 -5.851562 22.585938 -4.421875 21.640625 -3.203125 C 20.703125 -1.984375 19.53125 -1.039062 18.125 -0.375 C 16.71875 0.28125 15.140625 0.609375 13.390625 0.609375 Z M 19.1875 -14.796875 C 19.15625 -16.222656 18.875 -17.484375 18.34375 -18.578125 C 17.8125 -19.679688 17.097656 -20.539062 16.203125 -21.15625 C 15.316406 -21.769531 14.332031 -22.078125 13.25 -22.078125 C 12.15625 -22.078125 11.148438 -21.769531 10.234375 -21.15625 C 9.328125 -20.539062 8.582031 -19.679688 8 -18.578125 C 7.425781 -17.484375 7.082031 -16.222656 6.96875 -14.796875 Z M 19.1875 -14.796875 "/></g></g></g><g fill="#0330ab" fill-opacity="1"><g transform="translate(563.077722, 528.849957)"><g><path d="M 11.546875 0.609375 C 9.128906 0.609375 6.957031 0.148438 5.03125 -0.765625 C 4.03125 -1.222656 3.238281 -1.859375 2.65625 -2.671875 C 2.070312 -3.492188 1.78125 -4.421875 1.78125 -5.453125 C 1.78125 -6.085938 1.921875 -6.660156 2.203125 -7.171875 C 2.484375 -7.691406 2.859375 -8.09375 3.328125 -8.375 C 3.804688 -8.664062 4.316406 -8.8125 4.859375 -8.8125 C 5.734375 -8.8125 6.457031 -8.570312 7.03125 -8.09375 C 7.601562 -7.613281 7.890625 -6.945312 7.890625 -6.09375 C 7.890625 -5.59375 7.785156 -5.140625 7.578125 -4.734375 C 7.378906 -4.335938 7.109375 -4.019531 6.765625 -3.78125 C 6.421875 -3.550781 6.0625 -3.4375 5.6875 -3.4375 C 6.269531 -3.019531 7.050781 -2.671875 8.03125 -2.390625 C 9.007812 -2.117188 9.988281 -1.984375 10.96875 -1.984375 C 12.207031 -1.984375 13.265625 -2.101562 14.140625 -2.34375 C 15.015625 -2.582031 15.757812 -2.992188 16.375 -3.578125 C 17.019531 -4.171875 17.34375 -4.957031 17.34375 -5.9375 C 17.34375 -6.632812 17.125 -7.265625 16.6875 -7.828125 C 16.25 -8.398438 15.664062 -8.851562 14.9375 -9.1875 C 13.300781 -9.914062 11.539062 -10.53125 9.65625 -11.03125 C 8.6875 -11.28125 7.738281 -11.597656 6.8125 -11.984375 C 5.894531 -12.378906 5.082031 -12.816406 4.375 -13.296875 C 3.625 -13.785156 3.035156 -14.425781 2.609375 -15.21875 C 2.191406 -16.019531 1.984375 -16.914062 1.984375 -17.90625 C 1.984375 -18.894531 2.191406 -19.796875 2.609375 -20.609375 C 3.035156 -21.421875 3.601562 -22.09375 4.3125 -22.625 C 4.96875 -23.101562 5.726562 -23.515625 6.59375 -23.859375 C 7.457031 -24.203125 8.300781 -24.441406 9.125 -24.578125 C 9.957031 -24.691406 10.71875 -24.75 11.40625 -24.75 C 12.488281 -24.75 13.578125 -24.628906 14.671875 -24.390625 C 15.773438 -24.148438 16.804688 -23.8125 17.765625 -23.375 C 18.742188 -22.914062 19.523438 -22.320312 20.109375 -21.59375 C 20.691406 -20.863281 20.984375 -20.082031 20.984375 -19.25 C 20.984375 -18.601562 20.847656 -18.019531 20.578125 -17.5 C 20.316406 -16.988281 19.960938 -16.585938 19.515625 -16.296875 C 19.066406 -16.015625 18.585938 -15.875 18.078125 -15.875 C 17.191406 -15.875 16.457031 -16.132812 15.875 -16.65625 C 15.289062 -17.1875 15 -17.894531 15 -18.78125 C 15 -19.164062 15.097656 -19.539062 15.296875 -19.90625 C 15.492188 -20.28125 15.703125 -20.554688 15.921875 -20.734375 L 16.71875 -21.265625 C 15.226562 -21.984375 13.550781 -22.34375 11.6875 -22.34375 C 10.644531 -22.34375 9.703125 -22.1875 8.859375 -21.875 C 8.023438 -21.570312 7.367188 -21.128906 6.890625 -20.546875 C 6.410156 -19.960938 6.171875 -19.273438 6.171875 -18.484375 C 6.171875 -17.910156 6.390625 -17.390625 6.828125 -16.921875 C 7.265625 -16.460938 7.859375 -16.097656 8.609375 -15.828125 C 10.335938 -15.160156 12.101562 -14.585938 13.90625 -14.109375 C 14.863281 -13.835938 15.804688 -13.484375 16.734375 -13.046875 C 17.660156 -12.617188 18.492188 -12.132812 19.234375 -11.59375 C 19.972656 -11.050781 20.554688 -10.347656 20.984375 -9.484375 C 21.410156 -8.628906 21.625 -7.675781 21.625 -6.625 C 21.625 -5.5625 21.429688 -4.601562 21.046875 -3.75 C 20.660156 -2.894531 20.132812 -2.191406 19.46875 -1.640625 C 18.851562 -1.117188 18.101562 -0.679688 17.21875 -0.328125 C 16.34375 0.0234375 15.425781 0.269531 14.46875 0.40625 C 13.550781 0.539062 12.578125 0.609375 11.546875 0.609375 Z M 11.546875 0.609375 "/></g></g></g><g fill="#0330ab" fill-opacity="1"><g transform="translate(586.435112, 528.849957)"><g><path d="M 7.546875 -28.34375 C 6.953125 -28.34375 6.398438 -28.492188 5.890625 -28.796875 C 5.378906 -29.097656 4.972656 -29.5 4.671875 -30 C 4.367188 -30.507812 4.21875 -31.054688 4.21875 -31.640625 C 4.21875 -32.253906 4.367188 -32.820312 4.671875 -33.34375 C 4.972656 -33.863281 5.378906 -34.269531 5.890625 -34.5625 C 6.398438 -34.863281 6.953125 -35.015625 7.546875 -35.015625 C 8.128906 -35.015625 8.675781 -34.859375 9.1875 -34.546875 C 9.707031 -34.242188 10.117188 -33.832031 10.421875 -33.3125 C 10.734375 -32.800781 10.890625 -32.242188 10.890625 -31.640625 C 10.890625 -31.054688 10.734375 -30.507812 10.421875 -30 C 10.117188 -29.5 9.707031 -29.097656 9.1875 -28.796875 C 8.675781 -28.492188 8.128906 -28.34375 7.546875 -28.34375 Z M 1.234375 0 L 1.234375 -2.515625 L 5.578125 -2.515625 L 5.578125 -21.578125 L 1.1875 -21.578125 L 1.1875 -24.09375 L 10.40625 -24.09375 L 10.40625 -2.515625 L 14.796875 -2.515625 L 14.796875 0 Z M 1.234375 0 "/></g></g></g><g fill="#0330ab" fill-opacity="1"><g transform="translate(601.370383, 528.849957)"><g><path d="M 11.546875 0.609375 C 9.128906 0.609375 6.957031 0.148438 5.03125 -0.765625 C 4.03125 -1.222656 3.238281 -1.859375 2.65625 -2.671875 C 2.070312 -3.492188 1.78125 -4.421875 1.78125 -5.453125 C 1.78125 -6.085938 1.921875 -6.660156 2.203125 -7.171875 C 2.484375 -7.691406 2.859375 -8.09375 3.328125 -8.375 C 3.804688 -8.664062 4.316406 -8.8125 4.859375 -8.8125 C 5.734375 -8.8125 6.457031 -8.570312 7.03125 -8.09375 C 7.601562 -7.613281 7.890625 -6.945312 7.890625 -6.09375 C 7.890625 -5.59375 7.785156 -5.140625 7.578125 -4.734375 C 7.378906 -4.335938 7.109375 -4.019531 6.765625 -3.78125 C 6.421875 -3.550781 6.0625 -3.4375 5.6875 -3.4375 C 6.269531 -3.019531 7.050781 -2.671875 8.03125 -2.390625 C 9.007812 -2.117188 9.988281 -1.984375 10.96875 -1.984375 C 12.207031 -1.984375 13.265625 -2.101562 14.140625 -2.34375 C 15.015625 -2.582031 15.757812 -2.992188 16.375 -3.578125 C 17.019531 -4.171875 17.34375 -4.957031 17.34375 -5.9375 C 17.34375 -6.632812 17.125 -7.265625 16.6875 -7.828125 C 16.25 -8.398438 15.664062 -8.851562 14.9375 -9.1875 C 13.300781 -9.914062 11.539062 -10.53125 9.65625 -11.03125 C 8.6875 -11.28125 7.738281 -11.597656 6.8125 -11.984375 C 5.894531 -12.378906 5.082031 -12.816406 4.375 -13.296875 C 3.625 -13.785156 3.035156 -14.425781 2.609375 -15.21875 C 2.191406 -16.019531 1.984375 -16.914062 1.984375 -17.90625 C 1.984375 -18.894531 2.191406 -19.796875 2.609375 -20.609375 C 3.035156 -21.421875 3.601562 -22.09375 4.3125 -22.625 C 4.96875 -23.101562 5.726562 -23.515625 6.59375 -23.859375 C 7.457031 -24.203125 8.300781 -24.441406 9.125 -24.578125 C 9.957031 -24.691406 10.71875 -24.75 11.40625 -24.75 C 12.488281 -24.75 13.578125 -24.628906 14.671875 -24.390625 C 15.773438 -24.148438 16.804688 -23.8125 17.765625 -23.375 C 18.742188 -22.914062 19.523438 -22.320312 20.109375 -21.59375 C 20.691406 -20.863281 20.984375 -20.082031 20.984375 -19.25 C 20.984375 -18.601562 20.847656 -18.019531 20.578125 -17.5 C 20.316406 -16.988281 19.960938 -16.585938 19.515625 -16.296875 C 19.066406 -16.015625 18.585938 -15.875 18.078125 -15.875 C 17.191406 -15.875 16.457031 -16.132812 15.875 -16.65625 C 15.289062 -17.1875 15 -17.894531 15 -18.78125 C 15 -19.164062 15.097656 -19.539062 15.296875 -19.90625 C 15.492188 -20.28125 15.703125 -20.554688 15.921875 -20.734375 L 16.71875 -21.265625 C 15.226562 -21.984375 13.550781 -22.34375 11.6875 -22.34375 C 10.644531 -22.34375 9.703125 -22.1875 8.859375 -21.875 C 8.023438 -21.570312 7.367188 -21.128906 6.890625 -20.546875 C 6.410156 -19.960938 6.171875 -19.273438 6.171875 -18.484375 C 6.171875 -17.910156 6.390625 -17.390625 6.828125 -16.921875 C 7.265625 -16.460938 7.859375 -16.097656 8.609375 -15.828125 C 10.335938 -15.160156 12.101562 -14.585938 13.90625 -14.109375 C 14.863281 -13.835938 15.804688 -13.484375 16.734375 -13.046875 C 17.660156 -12.617188 18.492188 -12.132812 19.234375 -11.59375 C 19.972656 -11.050781 20.554688 -10.347656 20.984375 -9.484375 C 21.410156 -8.628906 21.625 -7.675781 21.625 -6.625 C 21.625 -5.5625 21.429688 -4.601562 21.046875 -3.75 C 20.660156 -2.894531 20.132812 -2.191406 19.46875 -1.640625 C 18.851562 -1.117188 18.101562 -0.679688 17.21875 -0.328125 C 16.34375 0.0234375 15.425781 0.269531 14.46875 0.40625 C 13.550781 0.539062 12.578125 0.609375 11.546875 0.609375 Z M 11.546875 0.609375 "/></g></g></g><g fill="#0330ab" fill-opacity="1"><g transform="translate(624.727773, 528.849957)"><g/></g></g><g fill="#0330ab" fill-opacity="1"><g transform="translate(635.508107, 528.849957)"><g><path d="M 17.703125 0.609375 C 15.679688 0.609375 13.789062 0.273438 12.03125 -0.390625 C 10.269531 -1.054688 8.769531 -1.984375 7.53125 -3.171875 C 6.3125 -4.316406 5.265625 -5.648438 4.390625 -7.171875 C 3.523438 -8.691406 2.894531 -10.289062 2.5 -11.96875 C 2.09375 -13.632812 1.890625 -15.335938 1.890625 -17.078125 C 1.890625 -19.335938 2.289062 -21.507812 3.09375 -23.59375 C 3.894531 -25.6875 5.019531 -27.546875 6.46875 -29.171875 C 7.9375 -30.816406 9.773438 -32.113281 11.984375 -33.0625 C 14.203125 -34.019531 16.609375 -34.5 19.203125 -34.5 C 21.660156 -34.5 23.890625 -34.039062 25.890625 -33.125 C 27.898438 -32.21875 29.457031 -30.992188 30.5625 -29.453125 C 31.65625 -27.910156 32.203125 -26.21875 32.203125 -24.375 C 32.203125 -23.738281 32.039062 -23.132812 31.71875 -22.5625 C 31.40625 -22 30.953125 -21.539062 30.359375 -21.1875 C 29.765625 -20.84375 29.09375 -20.671875 28.34375 -20.671875 C 27.644531 -20.671875 27.003906 -20.835938 26.421875 -21.171875 C 25.847656 -21.503906 25.394531 -21.941406 25.0625 -22.484375 C 24.738281 -23.023438 24.578125 -23.59375 24.578125 -24.1875 C 24.578125 -24.84375 24.722656 -25.441406 25.015625 -25.984375 C 25.316406 -26.535156 25.691406 -26.972656 26.140625 -27.296875 C 26.585938 -27.617188 27.015625 -27.78125 27.421875 -27.78125 L 27.515625 -27.78125 C 26.910156 -28.625 26.109375 -29.335938 25.109375 -29.921875 C 24.117188 -30.503906 23.160156 -30.894531 22.234375 -31.09375 C 21.367188 -31.269531 20.5 -31.359375 19.625 -31.359375 C 17.25 -31.359375 15.144531 -30.726562 13.3125 -29.46875 C 11.488281 -28.207031 10.109375 -26.492188 9.171875 -24.328125 C 8.234375 -22.171875 7.765625 -19.765625 7.765625 -17.109375 C 7.765625 -15.347656 8.046875 -13.632812 8.609375 -11.96875 C 9.171875 -10.3125 9.957031 -8.84375 10.96875 -7.5625 C 11.96875 -6.28125 13.179688 -5.269531 14.609375 -4.53125 C 16.035156 -3.789062 17.546875 -3.421875 19.140625 -3.421875 C 20.265625 -3.421875 21.363281 -3.628906 22.4375 -4.046875 C 23.519531 -4.472656 24.429688 -5.035156 25.171875 -5.734375 C 25.910156 -6.398438 26.492188 -7.113281 26.921875 -7.875 C 27.347656 -8.644531 27.5625 -9.359375 27.5625 -10.015625 L 27.5625 -13.15625 L 21.203125 -13.15625 L 21.203125 -16.546875 L 35.828125 -16.546875 L 35.828125 -13.15625 L 32.171875 -13.15625 L 32.171875 0 L 29.453125 0 L 28.34375 -4.734375 C 27.851562 -3.765625 27.191406 -2.910156 26.359375 -2.171875 C 25.523438 -1.441406 24.609375 -0.882812 23.609375 -0.5 C 21.703125 0.238281 19.734375 0.609375 17.703125 0.609375 Z M 17.703125 0.609375 "/></g></g></g><g fill="#0330ab" fill-opacity="1"><g transform="translate(671.420077, 528.849957)"><g><path d="M 13.390625 0.609375 C 11.585938 0.609375 9.929688 0.269531 8.421875 -0.40625 C 6.910156 -1.09375 5.660156 -2.035156 4.671875 -3.234375 C 3.703125 -4.398438 2.957031 -5.71875 2.4375 -7.1875 C 1.914062 -8.65625 1.65625 -10.175781 1.65625 -11.75 C 1.65625 -13.113281 1.816406 -14.429688 2.140625 -15.703125 C 2.460938 -16.972656 2.941406 -18.148438 3.578125 -19.234375 C 4.953125 -21.578125 6.789062 -23.1875 9.09375 -24.0625 C 10.3125 -24.519531 11.65625 -24.75 13.125 -24.75 C 14.644531 -24.75 16.0625 -24.476562 17.375 -23.9375 C 18.695312 -23.40625 19.851562 -22.628906 20.84375 -21.609375 C 21.84375 -20.554688 22.628906 -19.238281 23.203125 -17.65625 C 23.785156 -16.070312 24.09375 -14.3125 24.125 -12.375 L 6.8125 -12.375 L 6.8125 -12.203125 C 6.8125 -9.585938 7.363281 -7.390625 8.46875 -5.609375 C 9.019531 -4.710938 9.757812 -4.015625 10.6875 -3.515625 C 11.613281 -3.015625 12.671875 -2.765625 13.859375 -2.765625 C 14.910156 -2.765625 15.925781 -2.984375 16.90625 -3.421875 C 17.882812 -3.867188 18.734375 -4.515625 19.453125 -5.359375 C 20.179688 -6.203125 20.707031 -7.191406 21.03125 -8.328125 L 23.65625 -7.5 C 23.257812 -5.851562 22.585938 -4.421875 21.640625 -3.203125 C 20.703125 -1.984375 19.53125 -1.039062 18.125 -0.375 C 16.71875 0.28125 15.140625 0.609375 13.390625 0.609375 Z M 19.1875 -14.796875 C 19.15625 -16.222656 18.875 -17.484375 18.34375 -18.578125 C 17.8125 -19.679688 17.097656 -20.539062 16.203125 -21.15625 C 15.316406 -21.769531 14.332031 -22.078125 13.25 -22.078125 C 12.15625 -22.078125 11.148438 -21.769531 10.234375 -21.15625 C 9.328125 -20.539062 8.582031 -19.679688 8 -18.578125 C 7.425781 -17.484375 7.082031 -16.222656 6.96875 -14.796875 Z M 19.1875 -14.796875 "/></g></g></g><g fill="#0330ab" fill-opacity="1"><g transform="translate(697.247972, 528.849957)"><g><path d="M 1.09375 -2.515625 L 5.484375 -2.515625 L 5.484375 -21.578125 L 1.09375 -21.578125 L 1.09375 -24.09375 L 9.609375 -24.484375 L 10.171875 -19.59375 C 10.640625 -20.664062 11.300781 -21.59375 12.15625 -22.375 C 13.007812 -23.15625 13.957031 -23.742188 15 -24.140625 C 16.050781 -24.546875 17.109375 -24.75 18.171875 -24.75 C 18.679688 -24.75 19.132812 -24.726562 19.53125 -24.6875 C 19.925781 -24.644531 20.363281 -24.546875 20.84375 -24.390625 C 21.382812 -24.222656 21.859375 -24.007812 22.265625 -23.75 C 22.679688 -23.5 23.109375 -23.160156 23.546875 -22.734375 C 23.992188 -22.265625 24.359375 -21.734375 24.640625 -21.140625 C 24.921875 -20.554688 25.160156 -19.828125 25.359375 -18.953125 C 25.535156 -18.085938 25.625 -17.109375 25.625 -16.015625 L 25.625 -2.515625 L 30.234375 -2.515625 L 30.234375 0 L 16.6875 0 L 16.6875 -2.515625 L 20.796875 -2.515625 L 20.796875 -15.96875 C 20.796875 -17.875 20.421875 -19.300781 19.671875 -20.25 C 18.921875 -21.195312 17.867188 -21.671875 16.515625 -21.671875 C 15.671875 -21.671875 14.894531 -21.515625 14.1875 -21.203125 C 13.476562 -20.890625 12.882812 -20.457031 12.40625 -19.90625 C 11.9375 -19.363281 11.539062 -18.722656 11.21875 -17.984375 C 10.894531 -17.242188 10.664062 -16.46875 10.53125 -15.65625 C 10.382812 -14.90625 10.3125 -14.070312 10.3125 -13.15625 L 10.3125 -2.515625 L 14.390625 -2.515625 L 14.390625 0 L 1.09375 0 Z M 1.09375 -2.515625 "/></g></g></g><g fill="#0330ab" fill-opacity="1"><g transform="translate(727.769776, 528.849957)"><g><path d="M 13.390625 0.609375 C 11.585938 0.609375 9.929688 0.269531 8.421875 -0.40625 C 6.910156 -1.09375 5.660156 -2.035156 4.671875 -3.234375 C 3.703125 -4.398438 2.957031 -5.71875 2.4375 -7.1875 C 1.914062 -8.65625 1.65625 -10.175781 1.65625 -11.75 C 1.65625 -13.113281 1.816406 -14.429688 2.140625 -15.703125 C 2.460938 -16.972656 2.941406 -18.148438 3.578125 -19.234375 C 4.953125 -21.578125 6.789062 -23.1875 9.09375 -24.0625 C 10.3125 -24.519531 11.65625 -24.75 13.125 -24.75 C 14.644531 -24.75 16.0625 -24.476562 17.375 -23.9375 C 18.695312 -23.40625 19.851562 -22.628906 20.84375 -21.609375 C 21.84375 -20.554688 22.628906 -19.238281 23.203125 -17.65625 C 23.785156 -16.070312 24.09375 -14.3125 24.125 -12.375 L 6.8125 -12.375 L 6.8125 -12.203125 C 6.8125 -9.585938 7.363281 -7.390625 8.46875 -5.609375 C 9.019531 -4.710938 9.757812 -4.015625 10.6875 -3.515625 C 11.613281 -3.015625 12.671875 -2.765625 13.859375 -2.765625 C 14.910156 -2.765625 15.925781 -2.984375 16.90625 -3.421875 C 17.882812 -3.867188 18.734375 -4.515625 19.453125 -5.359375 C 20.179688 -6.203125 20.707031 -7.191406 21.03125 -8.328125 L 23.65625 -7.5 C 23.257812 -5.851562 22.585938 -4.421875 21.640625 -3.203125 C 20.703125 -1.984375 19.53125 -1.039062 18.125 -0.375 C 16.71875 0.28125 15.140625 0.609375 13.390625 0.609375 Z M 19.1875 -14.796875 C 19.15625 -16.222656 18.875 -17.484375 18.34375 -18.578125 C 17.8125 -19.679688 17.097656 -20.539062 16.203125 -21.15625 C 15.316406 -21.769531 14.332031 -22.078125 13.25 -22.078125 C 12.15625 -22.078125 11.148438 -21.769531 10.234375 -21.15625 C 9.328125 -20.539062 8.582031 -19.679688 8 -18.578125 C 7.425781 -17.484375 7.082031 -16.222656 6.96875 -14.796875 Z M 19.1875 -14.796875 "/></g></g></g><g fill="#0330ab" fill-opacity="1"><g transform="translate(753.597671, 528.849957)"><g><path d="M 1.09375 -2.515625 L 5.484375 -2.515625 L 5.484375 -21.578125 L 1.09375 -21.578125 L 1.09375 -24.09375 L 9.609375 -24.484375 L 10.21875 -19.234375 C 10.59375 -20.503906 11.273438 -21.703125 12.265625 -22.828125 C 12.785156 -23.421875 13.429688 -23.890625 14.203125 -24.234375 C 14.972656 -24.578125 15.800781 -24.75 16.6875 -24.75 C 17.507812 -24.75 18.257812 -24.59375 18.9375 -24.28125 C 19.613281 -23.976562 20.148438 -23.535156 20.546875 -22.953125 C 20.941406 -22.367188 21.140625 -21.679688 21.140625 -20.890625 C 21.140625 -20.140625 20.984375 -19.484375 20.671875 -18.921875 C 20.367188 -18.359375 19.953125 -17.929688 19.421875 -17.640625 C 18.898438 -17.347656 18.328125 -17.203125 17.703125 -17.203125 C 16.816406 -17.203125 16.0625 -17.476562 15.4375 -18.03125 C 14.820312 -18.59375 14.515625 -19.3125 14.515625 -20.1875 C 14.515625 -20.476562 14.582031 -20.785156 14.71875 -21.109375 C 14.863281 -21.441406 15.019531 -21.710938 15.1875 -21.921875 L 15.4375 -22.171875 C 14.550781 -22.171875 13.765625 -21.894531 13.078125 -21.34375 C 12.390625 -20.800781 11.847656 -20.050781 11.453125 -19.09375 C 10.691406 -17.238281 10.3125 -15.179688 10.3125 -12.921875 L 10.3125 -2.515625 L 15.359375 -2.515625 L 15.359375 0 L 1.09375 0 Z M 1.09375 -2.515625 "/></g></g></g><g fill="#0330ab" fill-opacity="1"><g transform="translate(775.023574, 528.849957)"><g><path d="M 8 0.609375 C 6.769531 0.609375 5.679688 0.390625 4.734375 -0.046875 C 3.796875 -0.492188 3.0625 -1.132812 2.53125 -1.96875 C 2.007812 -2.8125 1.75 -3.796875 1.75 -4.921875 C 1.75 -5.804688 1.945312 -6.617188 2.34375 -7.359375 C 2.738281 -8.097656 3.28125 -8.722656 3.96875 -9.234375 C 4.632812 -9.722656 5.390625 -10.191406 6.234375 -10.640625 C 7.078125 -11.097656 7.941406 -11.488281 8.828125 -11.8125 C 10.617188 -12.457031 12.234375 -13.195312 13.671875 -14.03125 C 14.367188 -14.4375 14.910156 -14.925781 15.296875 -15.5 C 15.679688 -16.070312 15.875 -16.6875 15.875 -17.34375 C 15.875 -19.019531 15.460938 -20.28125 14.640625 -21.125 C 13.816406 -21.96875 12.632812 -22.390625 11.09375 -22.390625 C 10.019531 -22.390625 9.003906 -22.222656 8.046875 -21.890625 C 7.097656 -21.554688 6.363281 -21.09375 5.84375 -20.5 C 6.769531 -20.5 7.519531 -20.25 8.09375 -19.75 C 8.675781 -19.25 8.96875 -18.632812 8.96875 -17.90625 C 8.96875 -17.289062 8.828125 -16.738281 8.546875 -16.25 C 8.265625 -15.757812 7.882812 -15.378906 7.40625 -15.109375 C 6.925781 -14.847656 6.40625 -14.71875 5.84375 -14.71875 C 4.914062 -14.71875 4.128906 -15.035156 3.484375 -15.671875 C 2.847656 -16.316406 2.53125 -17.207031 2.53125 -18.34375 C 2.53125 -18.957031 2.734375 -19.617188 3.140625 -20.328125 C 3.546875 -21.046875 4.117188 -21.742188 4.859375 -22.421875 C 5.617188 -23.117188 6.640625 -23.679688 7.921875 -24.109375 C 9.203125 -24.535156 10.582031 -24.75 12.0625 -24.75 C 13.300781 -24.75 14.421875 -24.609375 15.421875 -24.328125 C 16.429688 -24.054688 17.34375 -23.617188 18.15625 -23.015625 C 18.976562 -22.410156 19.609375 -21.566406 20.046875 -20.484375 C 20.484375 -19.410156 20.703125 -18.144531 20.703125 -16.6875 L 20.703125 -6.359375 C 20.703125 -5.710938 20.78125 -5.128906 20.9375 -4.609375 C 21.101562 -4.097656 21.378906 -3.640625 21.765625 -3.234375 C 22.203125 -2.796875 22.734375 -2.578125 23.359375 -2.578125 C 25.265625 -2.578125 26.21875 -3.910156 26.21875 -6.578125 L 26.21875 -9.921875 L 28.65625 -9.921875 L 28.65625 -7.03125 C 28.65625 -5.550781 28.5 -4.289062 28.1875 -3.25 C 27.875 -2.207031 27.414062 -1.414062 26.8125 -0.875 C 26.226562 -0.351562 25.582031 0.0195312 24.875 0.25 C 24.175781 0.488281 23.347656 0.609375 22.390625 0.609375 C 21.359375 0.609375 20.410156 0.40625 19.546875 0 C 18.691406 -0.40625 17.960938 -1.023438 17.359375 -1.859375 C 16.710938 -2.742188 16.335938 -3.796875 16.234375 -5.015625 C 15.816406 -3.929688 15.1875 -2.960938 14.34375 -2.109375 C 13.5 -1.253906 12.519531 -0.585938 11.40625 -0.109375 C 10.300781 0.367188 9.164062 0.609375 8 0.609375 Z M 9.171875 -2.625 C 10.140625 -2.625 11.15625 -2.914062 12.21875 -3.5 C 13.28125 -4.082031 14.15625 -4.832031 14.84375 -5.75 C 15.53125 -6.632812 15.875 -7.492188 15.875 -8.328125 L 15.875 -13.125 C 15.019531 -12.269531 13.988281 -11.46875 12.78125 -10.71875 C 11.582031 -9.96875 10.488281 -9.367188 9.5 -8.921875 C 8.613281 -8.523438 7.894531 -8.007812 7.34375 -7.375 C 6.800781 -6.738281 6.53125 -5.992188 6.53125 -5.140625 C 6.53125 -4.378906 6.757812 -3.769531 7.21875 -3.3125 C 7.675781 -2.851562 8.328125 -2.625 9.171875 -2.625 Z M 9.171875 -2.625 "/></g></g></g><g fill="#0330ab" fill-opacity="1"><g transform="translate(803.479215, 528.849957)"><g><path d="M 11.40625 0.609375 C 9.476562 0.609375 7.828125 0.0390625 6.453125 -1.09375 C 5.734375 -1.6875 5.164062 -2.460938 4.75 -3.421875 C 4.34375 -4.378906 4.140625 -5.445312 4.140625 -6.625 L 4.140625 -21.578125 L -0.453125 -21.578125 L -0.453125 -22.640625 C 0.660156 -22.972656 1.6875 -23.570312 2.625 -24.4375 C 3.570312 -25.300781 4.34375 -26.28125 4.9375 -27.375 C 5.488281 -28.363281 5.984375 -29.367188 6.421875 -30.390625 C 6.972656 -31.660156 7.347656 -32.476562 7.546875 -32.84375 C 7.859375 -33.476562 8.132812 -33.796875 8.375 -33.796875 C 8.550781 -33.796875 8.691406 -33.726562 8.796875 -33.59375 C 8.910156 -33.46875 8.96875 -33.273438 8.96875 -33.015625 L 8.96875 -24.09375 L 17.8125 -24.09375 L 17.8125 -21.546875 L 8.96875 -21.546875 L 8.96875 -6.484375 C 8.96875 -5.203125 9.257812 -4.222656 9.84375 -3.546875 C 10.425781 -2.867188 11.222656 -2.53125 12.234375 -2.53125 C 13.484375 -2.53125 14.398438 -2.9375 14.984375 -3.75 C 15.578125 -4.570312 15.875 -5.941406 15.875 -7.859375 L 15.875 -11.09375 L 18.578125 -11.09375 L 18.578125 -8.328125 C 18.578125 -6.296875 18.34375 -4.628906 17.875 -3.328125 C 17.414062 -2.023438 16.660156 -1.039062 15.609375 -0.375 C 14.554688 0.28125 13.15625 0.609375 11.40625 0.609375 Z M 11.40625 0.609375 "/></g></g></g><g fill="#0330ab" fill-opacity="1"><g transform="translate(823.512692, 528.849957)"><g><path d="M 13.4375 0.609375 C 11.082031 0.609375 9.015625 0.0664062 7.234375 -1.015625 C 5.453125 -2.109375 4.078125 -3.613281 3.109375 -5.53125 C 2.140625 -7.445312 1.65625 -9.625 1.65625 -12.0625 C 1.65625 -14.488281 2.113281 -16.648438 3.03125 -18.546875 C 3.957031 -20.453125 5.3125 -21.957031 7.09375 -23.0625 C 8.894531 -24.1875 10.992188 -24.75 13.390625 -24.75 C 15.148438 -24.75 16.773438 -24.425781 18.265625 -23.78125 C 19.753906 -23.144531 21.003906 -22.25 22.015625 -21.09375 C 23.003906 -19.957031 23.757812 -18.613281 24.28125 -17.0625 C 24.800781 -15.507812 25.0625 -13.84375 25.0625 -12.0625 C 25.0625 -9.65625 24.601562 -7.503906 23.6875 -5.609375 C 22.78125 -3.710938 21.441406 -2.207031 19.671875 -1.09375 C 17.910156 0.0390625 15.832031 0.609375 13.4375 0.609375 Z M 13.4375 -2.25 C 14.75 -2.25 15.894531 -2.640625 16.875 -3.421875 C 17.851562 -4.210938 18.601562 -5.328125 19.125 -6.765625 C 19.65625 -8.203125 19.921875 -9.867188 19.921875 -11.765625 C 19.921875 -13.847656 19.695312 -15.632812 19.25 -17.125 C 18.800781 -18.613281 18.085938 -19.804688 17.109375 -20.703125 C 16.109375 -21.617188 14.867188 -22.078125 13.390625 -22.078125 C 11.929688 -22.078125 10.691406 -21.628906 9.671875 -20.734375 C 8.660156 -19.835938 7.929688 -18.609375 7.484375 -17.046875 C 7.035156 -15.546875 6.8125 -13.785156 6.8125 -11.765625 C 6.8125 -9.867188 7.078125 -8.203125 7.609375 -6.765625 C 8.140625 -5.328125 8.90625 -4.210938 9.90625 -3.421875 C 10.90625 -2.640625 12.082031 -2.25 13.4375 -2.25 Z M 13.4375 -2.25 "/></g></g></g><g fill="#0330ab" fill-opacity="1"><g transform="translate(850.216518, 528.849957)"><g><path d="M 1.09375 -2.515625 L 5.484375 -2.515625 L 5.484375 -21.578125 L 1.09375 -21.578125 L 1.09375 -24.09375 L 9.609375 -24.484375 L 10.21875 -19.234375 C 10.59375 -20.503906 11.273438 -21.703125 12.265625 -22.828125 C 12.785156 -23.421875 13.429688 -23.890625 14.203125 -24.234375 C 14.972656 -24.578125 15.800781 -24.75 16.6875 -24.75 C 17.507812 -24.75 18.257812 -24.59375 18.9375 -24.28125 C 19.613281 -23.976562 20.148438 -23.535156 20.546875 -22.953125 C 20.941406 -22.367188 21.140625 -21.679688 21.140625 -20.890625 C 21.140625 -20.140625 20.984375 -19.484375 20.671875 -18.921875 C 20.367188 -18.359375 19.953125 -17.929688 19.421875 -17.640625 C 18.898438 -17.347656 18.328125 -17.203125 17.703125 -17.203125 C 16.816406 -17.203125 16.0625 -17.476562 15.4375 -18.03125 C 14.820312 -18.59375 14.515625 -19.3125 14.515625 -20.1875 C 14.515625 -20.476562 14.582031 -20.785156 14.71875 -21.109375 C 14.863281 -21.441406 15.019531 -21.710938 15.1875 -21.921875 L 15.4375 -22.171875 C 14.550781 -22.171875 13.765625 -21.894531 13.078125 -21.34375 C 12.390625 -20.800781 11.847656 -20.050781 11.453125 -19.09375 C 10.691406 -17.238281 10.3125 -15.179688 10.3125 -12.921875 L 10.3125 -2.515625 L 15.359375 -2.515625 L 15.359375 0 L 1.09375 0 Z M 1.09375 -2.515625 "/></g></g></g></svg>