<svg xmlns="http://www.w3.org/2000/svg" xmlns:xlink="http://www.w3.org/1999/xlink" width="1200" zoomAndPan="magnify" viewBox="0 0 900 599.999999" height="800" preserveAspectRatio="xMidYMid meet" version="1.0"><defs><g/><clipPath id="4419e4b0a6"><path d="M 327.578125 119 L 347 119 L 347 139 L 327.578125 139 Z M 327.578125 119 " clip-rule="nonzero"/></clipPath><clipPath id="546accd34c"><path d="M 553 149 L 572.078125 149 L 572.078125 169 L 553 169 Z M 553 149 " clip-rule="nonzero"/></clipPath><clipPath id="a1ced1e285"><path d="M 467 220 L 486 220 L 486 238.605469 L 467 238.605469 Z M 467 220 " clip-rule="nonzero"/></clipPath><clipPath id="81f3b423d5"><path d="M 441 12.855469 L 460 12.855469 L 460 32 L 441 32 Z M 441 12.855469 " clip-rule="nonzero"/></clipPath></defs><path fill="#00ccff" d="M 450.628906 79.5 C 474.675781 79.5 494.117188 98.957031 494.117188 123.027344 C 494.117188 147.09375 474.675781 166.550781 450.628906 166.550781 C 426.585938 166.550781 407.140625 147.09375 407.140625 123.027344 C 407.140625 98.957031 426.585938 79.5 450.628906 79.5 Z M 450.628906 79.5 " fill-opacity="1" fill-rule="evenodd"/><path fill="#0330ab" d="M 450.628906 63.332031 C 483.519531 63.332031 510.199219 90.035156 510.199219 122.953125 C 510.199219 155.871094 483.519531 182.570312 450.628906 182.570312 C 417.742188 182.570312 391.0625 155.871094 391.0625 122.953125 C 391.0625 90.035156 417.742188 63.332031 450.628906 63.332031 Z M 450.628906 71.597656 C 478.988281 71.597656 502.011719 94.640625 502.011719 123.027344 C 502.011719 151.410156 478.988281 174.453125 450.628906 174.453125 C 422.273438 174.453125 399.25 151.410156 399.25 123.027344 C 399.25 94.640625 422.273438 71.597656 450.628906 71.597656 Z M 450.628906 71.597656 " fill-opacity="1" fill-rule="evenodd"/><path fill="#0330ab" d="M 406.410156 92.886719 L 370.816406 92.886719 L 370.816406 62.675781 L 378.417969 62.675781 L 378.417969 85.277344 L 406.410156 85.277344 Z M 406.410156 92.886719 " fill-opacity="1" fill-rule="nonzero"/><path fill="#0330ab" d="M 336.902344 125.074219 L 393.328125 125.074219 L 393.328125 132.683594 L 336.902344 132.683594 Z M 336.902344 125.074219 " fill-opacity="1" fill-rule="nonzero"/><path fill="#0330ab" d="M 492.804688 82.425781 L 531.832031 82.425781 L 531.832031 63.84375 L 539.433594 63.84375 L 539.433594 90.035156 L 492.804688 90.035156 Z M 492.804688 82.425781 " fill-opacity="1" fill-rule="nonzero"/><path fill="#0330ab" d="M 491.851562 155.285156 L 562.75 155.285156 L 562.75 162.96875 L 491.851562 162.96875 Z M 491.851562 155.285156 " fill-opacity="1" fill-rule="nonzero"/><path fill="#0330ab" d="M 505.59375 113.660156 L 533.734375 113.660156 L 533.734375 121.269531 L 505.59375 121.269531 Z M 505.59375 113.660156 " fill-opacity="1" fill-rule="nonzero"/><path fill="#0330ab" d="M 383.316406 150.09375 L 406.265625 150.09375 L 406.265625 157.699219 L 383.316406 157.699219 Z M 383.316406 150.09375 " fill-opacity="1" fill-rule="nonzero"/><path fill="#0330ab" d="M 374.617188 53.382812 C 379.734375 53.382812 383.898438 57.554688 383.898438 62.675781 C 383.898438 67.796875 379.734375 71.964844 374.617188 71.964844 C 369.5 71.964844 365.335938 67.796875 365.335938 62.675781 C 365.335938 57.554688 369.5 53.382812 374.617188 53.382812 Z M 374.617188 53.382812 " fill-opacity="1" fill-rule="evenodd"/><g clip-path="url(#4419e4b0a6)"><path fill="#0330ab" d="M 336.902344 119.585938 C 342.019531 119.585938 346.1875 123.757812 346.1875 128.878906 C 346.1875 134 342.019531 138.167969 336.902344 138.167969 C 331.789062 138.167969 327.621094 134 327.621094 128.878906 C 327.621094 123.757812 331.789062 119.585938 336.902344 119.585938 Z M 336.902344 119.585938 " fill-opacity="1" fill-rule="evenodd"/></g><path fill="#0330ab" d="M 376.371094 144.605469 C 381.488281 144.605469 385.652344 148.773438 385.652344 153.894531 C 385.652344 159.015625 381.488281 163.1875 376.371094 163.1875 C 371.253906 163.1875 367.089844 159.015625 367.089844 153.894531 C 367.089844 148.773438 371.253906 144.605469 376.371094 144.605469 Z M 376.371094 144.605469 " fill-opacity="1" fill-rule="evenodd"/><path fill="#0330ab" d="M 535.632812 54.554688 C 540.75 54.554688 544.914062 58.722656 544.914062 63.84375 C 544.914062 68.964844 540.75 73.136719 535.632812 73.136719 C 530.515625 73.136719 526.351562 68.964844 526.351562 63.84375 C 526.351562 58.722656 530.515625 54.554688 535.632812 54.554688 Z M 535.632812 54.554688 " fill-opacity="1" fill-rule="evenodd"/><path fill="#0330ab" d="M 532.125 108.175781 C 537.242188 108.175781 541.40625 112.34375 541.40625 117.464844 C 541.40625 122.585938 537.242188 126.757812 532.125 126.757812 C 527.007812 126.757812 522.84375 122.585938 522.84375 117.464844 C 522.84375 112.34375 527.007812 108.175781 532.125 108.175781 Z M 532.125 108.175781 " fill-opacity="1" fill-rule="evenodd"/><g clip-path="url(#546accd34c)"><path fill="#0330ab" d="M 562.75 149.871094 C 567.867188 149.871094 572.03125 154.042969 572.03125 159.164062 C 572.03125 164.285156 567.867188 168.453125 562.75 168.453125 C 557.632812 168.453125 553.46875 164.285156 553.46875 159.164062 C 553.46875 154.042969 557.632812 149.871094 562.75 149.871094 Z M 562.75 149.871094 " fill-opacity="1" fill-rule="evenodd"/></g><path fill="#0330ab" d="M 430.605469 171.746094 L 430.605469 207.371094 L 400.34375 207.371094 L 400.34375 199.761719 L 422.929688 199.761719 L 422.929688 171.746094 Z M 430.605469 171.746094 " fill-opacity="1" fill-rule="nonzero"/><path fill="#0330ab" d="M 391.0625 203.566406 C 391.0625 198.445312 395.230469 194.277344 400.34375 194.277344 C 405.460938 194.277344 409.628906 198.445312 409.628906 203.566406 C 409.628906 208.6875 405.460938 212.855469 400.34375 212.855469 C 395.230469 212.855469 391.0625 208.6875 391.0625 203.566406 Z M 391.0625 203.566406 " fill-opacity="1" fill-rule="evenodd"/><path fill="#0330ab" d="M 472.777344 170.792969 L 480.378906 170.792969 L 480.378906 229.316406 L 472.777344 229.316406 Z M 472.777344 170.792969 " fill-opacity="1" fill-rule="nonzero"/><g clip-path="url(#a1ced1e285)"><path fill="#0330ab" d="M 485.859375 229.316406 C 485.859375 234.4375 481.695312 238.605469 476.578125 238.605469 C 471.460938 238.605469 467.296875 234.4375 467.296875 229.316406 C 467.296875 224.195312 471.460938 220.027344 476.578125 220.027344 C 481.695312 220.027344 485.859375 224.195312 485.859375 229.316406 Z M 485.859375 229.316406 " fill-opacity="1" fill-rule="evenodd"/></g><path fill="#0330ab" d="M 446.828125 20.613281 L 454.429688 20.613281 L 454.429688 69.039062 L 446.828125 69.039062 Z M 446.828125 20.613281 " fill-opacity="1" fill-rule="nonzero"/><g clip-path="url(#81f3b423d5)"><path fill="#0330ab" d="M 441.347656 22.148438 C 441.347656 17.027344 445.515625 12.855469 450.628906 12.855469 C 455.746094 12.855469 459.914062 17.027344 459.914062 22.148438 C 459.914062 27.269531 455.746094 31.4375 450.628906 31.4375 C 445.515625 31.4375 441.347656 27.269531 441.347656 22.148438 Z M 441.347656 22.148438 " fill-opacity="1" fill-rule="evenodd"/></g><path fill="#ffffff" d="M 441.714844 97.128906 L 459.621094 97.128906 L 459.621094 148.773438 L 441.714844 148.773438 Z M 441.714844 97.128906 " fill-opacity="1" fill-rule="evenodd"/><path fill="#ffffff" d="M 476.457031 114.03125 L 476.457031 131.976562 L 424.839844 131.976562 L 424.839844 114.03125 Z M 476.457031 114.03125 " fill-opacity="1" fill-rule="evenodd"/><g fill="#0330ab" fill-opacity="1"><g transform="translate(40.312499, 392.267641)"><g><path d="M 56.15625 -2.46875 L 46.671875 -30.546875 L 20.9375 -30.546875 L 10.921875 -2.46875 L 20.671875 -2.46875 L 20.671875 0 L 0.78125 0 L 0.78125 -2.46875 L 6.890625 -2.46875 L 40.046875 -91.78125 L 50.703125 -91.78125 L 83.453125 -2.46875 L 89.4375 -2.46875 L 89.4375 0 L 46.9375 0 L 46.9375 -2.46875 Z M 34.3125 -67.46875 L 22.09375 -33.40625 L 45.625 -33.40625 Z M 34.3125 -67.46875 "/></g></g></g><g fill="#0330ab" fill-opacity="1"><g transform="translate(130.529807, 392.267641)"><g><path d="M 1.5625 -61.875 L 32.890625 -61.875 L 32.890625 -49.921875 C 34.273438 -53.910156 36.394531 -57.117188 39.25 -59.546875 C 42.113281 -61.972656 46.453125 -63.1875 52.265625 -63.1875 C 65.691406 -63.1875 72.40625 -55.945312 72.40625 -41.46875 L 72.40625 -2.34375 L 79.6875 -2.34375 L 79.6875 0 L 42.90625 0 L 42.90625 -2.34375 L 48.234375 -2.34375 L 48.234375 -44.59375 C 48.234375 -49.789062 47.882812 -53.144531 47.1875 -54.65625 C 46.5 -56.175781 45.242188 -56.9375 43.421875 -56.9375 C 40.648438 -56.9375 38.203125 -55.113281 36.078125 -51.46875 C 33.953125 -47.832031 32.890625 -43.414062 32.890625 -38.21875 L 32.890625 -2.34375 L 38.484375 -2.34375 L 38.484375 0 L 1.5625 0 L 1.5625 -2.34375 L 8.703125 -2.34375 L 8.703125 -59.546875 L 1.5625 -59.546875 Z M 1.5625 -61.875 "/></g></g></g><g fill="#0330ab" fill-opacity="1"><g transform="translate(210.60741, 392.267641)"><g><path d="M 32.5 -30.546875 L 36.265625 -30.546875 L 36.265625 -40.5625 C 36.265625 -48.789062 35.8125 -54.3125 34.90625 -57.125 C 34 -59.945312 32.242188 -61.359375 29.640625 -61.359375 C 28.078125 -61.359375 26.664062 -60.945312 25.40625 -60.125 C 24.15625 -59.300781 23.53125 -58.171875 23.53125 -56.734375 C 23.53125 -55.304688 23.789062 -53.859375 24.3125 -52.390625 L 27.5625 -52.390625 C 28.25 -50.566406 28.59375 -48.375 28.59375 -45.8125 C 28.59375 -43.257812 27.507812 -41.050781 25.34375 -39.1875 C 23.175781 -37.332031 20.445312 -36.40625 17.15625 -36.40625 C 9.707031 -36.40625 5.984375 -40 5.984375 -47.1875 C 5.984375 -57.851562 15.039062 -63.1875 33.15625 -63.1875 C 43.46875 -63.1875 50.59375 -61.429688 54.53125 -57.921875 C 58.476562 -54.410156 60.453125 -47.972656 60.453125 -38.609375 L 60.453125 -12.21875 C 60.453125 -7.707031 61.707031 -5.453125 64.21875 -5.453125 C 67.164062 -5.453125 68.898438 -9.914062 69.421875 -18.84375 L 71.375 -18.71875 C 71.019531 -11.09375 69.585938 -5.847656 67.078125 -2.984375 C 64.566406 -0.128906 60.453125 1.296875 54.734375 1.296875 C 44.328125 1.296875 38.347656 -1.90625 36.796875 -8.3125 C 35.660156 -5.019531 33.96875 -2.59375 31.71875 -1.03125 C 29.46875 0.519531 26.175781 1.296875 21.84375 1.296875 C 9.007812 1.296875 2.59375 -3.945312 2.59375 -14.4375 C 2.59375 -20.582031 5.039062 -24.800781 9.9375 -27.09375 C 14.84375 -29.394531 22.363281 -30.546875 32.5 -30.546875 Z M 27.296875 -14.5625 C 27.296875 -10.050781 27.535156 -7.144531 28.015625 -5.84375 C 28.492188 -4.550781 29.40625 -3.90625 30.75 -3.90625 C 32.09375 -3.90625 33.347656 -5.007812 34.515625 -7.21875 C 35.679688 -9.425781 36.265625 -12.476562 36.265625 -16.375 L 36.265625 -28.46875 L 35.359375 -28.46875 C 29.984375 -28.46875 27.296875 -24.523438 27.296875 -16.640625 Z M 27.296875 -14.5625 "/></g></g></g><g fill="#0330ab" fill-opacity="1"><g transform="translate(281.975269, 392.267641)"><g><path d="M 1.296875 -61.875 L 32.625 -61.875 L 32.625 -49.921875 C 35.488281 -58.765625 41.796875 -63.1875 51.546875 -63.1875 C 61.296875 -63.1875 67.210938 -58.503906 69.296875 -49.140625 C 72.328125 -58.503906 78.695312 -63.1875 88.40625 -63.1875 C 101.144531 -63.1875 107.515625 -55.945312 107.515625 -41.46875 L 107.515625 -2.34375 L 114.796875 -2.34375 L 114.796875 0 L 78.78125 0 L 78.78125 -2.34375 L 83.328125 -2.34375 L 83.328125 -44.59375 C 83.328125 -51.175781 82.765625 -55.03125 81.640625 -56.15625 C 81.117188 -56.675781 80.425781 -56.9375 79.5625 -56.9375 C 77.050781 -56.9375 74.835938 -55.242188 72.921875 -51.859375 C 71.015625 -48.484375 70.0625 -44.195312 70.0625 -39 L 70.0625 -2.34375 L 74.75 -2.34375 L 74.75 0 L 41.34375 0 L 41.34375 -2.34375 L 45.890625 -2.34375 L 45.890625 -44.59375 C 45.890625 -51.175781 45.328125 -55.03125 44.203125 -56.15625 C 43.679688 -56.675781 42.988281 -56.9375 42.125 -56.9375 C 39.695312 -56.9375 37.503906 -55.09375 35.546875 -51.40625 C 33.597656 -47.726562 32.625 -43.332031 32.625 -38.21875 L 32.625 -2.34375 L 37.3125 -2.34375 L 37.3125 0 L 1.296875 0 L 1.296875 -2.34375 L 8.453125 -2.34375 L 8.453125 -59.546875 L 1.296875 -59.546875 Z M 1.296875 -61.875 "/></g></g></g><g fill="#0330ab" fill-opacity="1"><g transform="translate(397.411818, 392.267641)"><g><path d="M 50.703125 -1.296875 C 54.941406 -1.296875 57.644531 -2.078125 58.8125 -3.640625 C 59.988281 -5.203125 60.578125 -7.84375 60.578125 -11.5625 L 60.578125 -36.796875 L 52.265625 -36.796875 L 52.265625 -39.65625 L 89.703125 -39.65625 L 89.703125 -36.796875 L 84.625 -36.796875 L 84.625 -0.125 L 82.6875 -0.125 C 81.125 -2.289062 78.910156 -3.375 76.046875 -3.375 C 74.835938 -3.375 71.21875 -2.59375 65.1875 -1.03125 C 59.164062 0.519531 54.035156 1.296875 49.796875 1.296875 C 35.660156 1.296875 24.710938 -2.515625 16.953125 -10.140625 C 9.203125 -17.765625 5.328125 -29.222656 5.328125 -44.515625 C 5.328125 -59.816406 9.378906 -71.628906 17.484375 -79.953125 C 25.585938 -88.273438 36.488281 -92.4375 50.1875 -92.4375 C 55.46875 -92.4375 60.769531 -91.765625 66.09375 -90.421875 C 71.425781 -89.078125 74.523438 -88.40625 75.390625 -88.40625 C 76.265625 -88.40625 76.914062 -88.597656 77.34375 -88.984375 C 77.78125 -89.367188 78.257812 -90.039062 78.78125 -91 L 80.203125 -91 L 81.25 -62.796875 L 78.90625 -62.796875 C 74.664062 -71.203125 70.398438 -77.804688 66.109375 -82.609375 C 61.816406 -87.421875 57.023438 -89.828125 51.734375 -89.828125 C 38.472656 -89.828125 31.84375 -76.867188 31.84375 -50.953125 L 31.84375 -40.6875 C 31.84375 -27.6875 33.46875 -17.867188 36.71875 -11.234375 C 39.96875 -4.609375 44.628906 -1.296875 50.703125 -1.296875 Z M 50.703125 -1.296875 "/></g></g></g><g fill="#0330ab" fill-opacity="1"><g transform="translate(491.399027, 392.267641)"><g><path d="M 35.484375 1.296875 C 24.304688 1.296875 15.921875 -1.582031 10.328125 -7.34375 C 4.742188 -13.101562 1.953125 -21.117188 1.953125 -31.390625 C 1.953125 -41.660156 5.09375 -49.523438 11.375 -54.984375 C 17.65625 -60.453125 25.648438 -63.1875 35.359375 -63.1875 C 55.035156 -63.1875 64.484375 -53.304688 63.703125 -33.546875 L 27.046875 -33.546875 L 27.046875 -28.46875 C 27.046875 -19.976562 28.128906 -13.566406 30.296875 -9.234375 C 32.460938 -4.898438 36.226562 -2.734375 41.59375 -2.734375 C 51.65625 -2.734375 58.242188 -8.101562 61.359375 -18.84375 L 63.703125 -18.453125 C 62.054688 -12.210938 59.085938 -7.359375 54.796875 -3.890625 C 50.503906 -0.429688 44.066406 1.296875 35.484375 1.296875 Z M 27.171875 -36.140625 L 40.5625 -36.140625 L 40.5625 -42.515625 C 40.5625 -49.535156 40.148438 -54.320312 39.328125 -56.875 C 38.503906 -59.425781 36.859375 -60.703125 34.390625 -60.703125 C 31.921875 -60.703125 30.097656 -59.335938 28.921875 -56.609375 C 27.753906 -53.878906 27.171875 -49.179688 27.171875 -42.515625 Z M 27.171875 -36.140625 "/></g></g></g><g fill="#0330ab" fill-opacity="1"><g transform="translate(558.477012, 392.267641)"><g><path d="M 1.5625 -61.875 L 32.890625 -61.875 L 32.890625 -49.921875 C 34.273438 -53.910156 36.394531 -57.117188 39.25 -59.546875 C 42.113281 -61.972656 46.453125 -63.1875 52.265625 -63.1875 C 65.691406 -63.1875 72.40625 -55.945312 72.40625 -41.46875 L 72.40625 -2.34375 L 79.6875 -2.34375 L 79.6875 0 L 42.90625 0 L 42.90625 -2.34375 L 48.234375 -2.34375 L 48.234375 -44.59375 C 48.234375 -49.789062 47.882812 -53.144531 47.1875 -54.65625 C 46.5 -56.175781 45.242188 -56.9375 43.421875 -56.9375 C 40.648438 -56.9375 38.203125 -55.113281 36.078125 -51.46875 C 33.953125 -47.832031 32.890625 -43.414062 32.890625 -38.21875 L 32.890625 -2.34375 L 38.484375 -2.34375 L 38.484375 0 L 1.5625 0 L 1.5625 -2.34375 L 8.703125 -2.34375 L 8.703125 -59.546875 L 1.5625 -59.546875 Z M 1.5625 -61.875 "/></g></g></g><g fill="#0330ab" fill-opacity="1"><g transform="translate(638.554615, 392.267641)"><g><path d="M 35.484375 1.296875 C 24.304688 1.296875 15.921875 -1.582031 10.328125 -7.34375 C 4.742188 -13.101562 1.953125 -21.117188 1.953125 -31.390625 C 1.953125 -41.660156 5.09375 -49.523438 11.375 -54.984375 C 17.65625 -60.453125 25.648438 -63.1875 35.359375 -63.1875 C 55.035156 -63.1875 64.484375 -53.304688 63.703125 -33.546875 L 27.046875 -33.546875 L 27.046875 -28.46875 C 27.046875 -19.976562 28.128906 -13.566406 30.296875 -9.234375 C 32.460938 -4.898438 36.226562 -2.734375 41.59375 -2.734375 C 51.65625 -2.734375 58.242188 -8.101562 61.359375 -18.84375 L 63.703125 -18.453125 C 62.054688 -12.210938 59.085938 -7.359375 54.796875 -3.890625 C 50.503906 -0.429688 44.066406 1.296875 35.484375 1.296875 Z M 27.171875 -36.140625 L 40.5625 -36.140625 L 40.5625 -42.515625 C 40.5625 -49.535156 40.148438 -54.320312 39.328125 -56.875 C 38.503906 -59.425781 36.859375 -60.703125 34.390625 -60.703125 C 31.921875 -60.703125 30.097656 -59.335938 28.921875 -56.609375 C 27.753906 -53.878906 27.171875 -49.179688 27.171875 -42.515625 Z M 27.171875 -36.140625 "/></g></g></g><g fill="#0330ab" fill-opacity="1"><g transform="translate(705.6326, 392.267641)"><g><path d="M 4.296875 1.296875 L 4.296875 -21.96875 L 5.84375 -21.96875 C 8.101562 -14.425781 11.140625 -9.140625 14.953125 -6.109375 C 18.765625 -3.078125 23.53125 -1.5625 29.25 -1.5625 C 38.09375 -1.5625 42.515625 -4.378906 42.515625 -10.015625 C 42.515625 -12.441406 41.429688 -14.257812 39.265625 -15.46875 C 35.878906 -17.375 31.546875 -18.847656 26.265625 -19.890625 C 20.367188 -21.453125 15.425781 -23.53125 11.4375 -26.125 C 6.675781 -29.25 4.296875 -34.191406 4.296875 -40.953125 C 4.296875 -47.710938 6.375 -53.109375 10.53125 -57.140625 C 14.6875 -61.171875 20.234375 -63.1875 27.171875 -63.1875 C 31.421875 -63.1875 35.796875 -62.1875 40.296875 -60.1875 C 41.941406 -59.5 43.195312 -59.15625 44.0625 -59.15625 C 44.9375 -59.15625 45.675781 -59.457031 46.28125 -60.0625 C 46.882812 -60.664062 47.617188 -61.789062 48.484375 -63.4375 L 49.921875 -63.4375 L 49.921875 -43.546875 L 48.359375 -43.546875 C 43.941406 -54.816406 37.09375 -60.453125 27.8125 -60.453125 C 23.738281 -60.453125 20.707031 -59.734375 18.71875 -58.296875 C 16.726562 -56.867188 15.734375 -55.070312 15.734375 -52.90625 C 15.734375 -51.601562 16.035156 -50.582031 16.640625 -49.84375 C 17.242188 -49.113281 17.71875 -48.570312 18.0625 -48.21875 C 18.414062 -47.875 18.984375 -47.507812 19.765625 -47.125 C 20.546875 -46.738281 21.191406 -46.4375 21.703125 -46.21875 C 22.222656 -46 23.023438 -45.710938 24.109375 -45.359375 C 25.191406 -45.015625 25.992188 -44.800781 26.515625 -44.71875 C 32.410156 -43.25 36.65625 -41.972656 39.25 -40.890625 C 41.851562 -39.804688 44.328125 -38.484375 46.671875 -36.921875 C 51.429688 -33.628906 53.8125 -28.320312 53.8125 -21 C 53.8125 -13.675781 51.644531 -8.128906 47.3125 -4.359375 C 42.976562 -0.585938 37.046875 1.296875 29.515625 1.296875 C 24.140625 1.296875 18.9375 0.0390625 13.90625 -2.46875 C 12.863281 -3.164062 12.039062 -3.515625 11.4375 -3.515625 C 9.53125 -3.515625 7.664062 -1.910156 5.84375 1.296875 Z M 4.296875 1.296875 "/></g></g></g><g fill="#0330ab" fill-opacity="1"><g transform="translate(762.050917, 392.267641)"><g><path d="M 20.40625 -70.84375 C 15.8125 -70.84375 12.539062 -72.015625 10.59375 -74.359375 C 8.644531 -76.703125 7.671875 -79.601562 7.671875 -83.0625 C 7.671875 -86.53125 8.734375 -89.390625 10.859375 -91.640625 C 12.984375 -93.898438 16.210938 -95.03125 20.546875 -95.03125 C 24.878906 -95.03125 28.171875 -94.007812 30.421875 -91.96875 C 32.671875 -89.9375 33.796875 -87.035156 33.796875 -83.265625 C 33.796875 -79.492188 32.710938 -76.476562 30.546875 -74.21875 C 28.378906 -71.96875 25 -70.84375 20.40625 -70.84375 Z M 0.78125 -61.875 L 32.625 -61.875 L 32.625 -2.34375 L 39.90625 -2.34375 L 39.90625 0 L 1.296875 0 L 1.296875 -2.34375 L 8.453125 -2.34375 L 8.453125 -59.546875 L 0.78125 -59.546875 Z M 0.78125 -61.875 "/></g></g></g><g fill="#0330ab" fill-opacity="1"><g transform="translate(803.25967, 392.267641)"><g><path d="M 4.296875 1.296875 L 4.296875 -21.96875 L 5.84375 -21.96875 C 8.101562 -14.425781 11.140625 -9.140625 14.953125 -6.109375 C 18.765625 -3.078125 23.53125 -1.5625 29.25 -1.5625 C 38.09375 -1.5625 42.515625 -4.378906 42.515625 -10.015625 C 42.515625 -12.441406 41.429688 -14.257812 39.265625 -15.46875 C 35.878906 -17.375 31.546875 -18.847656 26.265625 -19.890625 C 20.367188 -21.453125 15.425781 -23.53125 11.4375 -26.125 C 6.675781 -29.25 4.296875 -34.191406 4.296875 -40.953125 C 4.296875 -47.710938 6.375 -53.109375 10.53125 -57.140625 C 14.6875 -61.171875 20.234375 -63.1875 27.171875 -63.1875 C 31.421875 -63.1875 35.796875 -62.1875 40.296875 -60.1875 C 41.941406 -59.5 43.195312 -59.15625 44.0625 -59.15625 C 44.9375 -59.15625 45.675781 -59.457031 46.28125 -60.0625 C 46.882812 -60.664062 47.617188 -61.789062 48.484375 -63.4375 L 49.921875 -63.4375 L 49.921875 -43.546875 L 48.359375 -43.546875 C 43.941406 -54.816406 37.09375 -60.453125 27.8125 -60.453125 C 23.738281 -60.453125 20.707031 -59.734375 18.71875 -58.296875 C 16.726562 -56.867188 15.734375 -55.070312 15.734375 -52.90625 C 15.734375 -51.601562 16.035156 -50.582031 16.640625 -49.84375 C 17.242188 -49.113281 17.71875 -48.570312 18.0625 -48.21875 C 18.414062 -47.875 18.984375 -47.507812 19.765625 -47.125 C 20.546875 -46.738281 21.191406 -46.4375 21.703125 -46.21875 C 22.222656 -46 23.023438 -45.710938 24.109375 -45.359375 C 25.191406 -45.015625 25.992188 -44.800781 26.515625 -44.71875 C 32.410156 -43.25 36.65625 -41.972656 39.25 -40.890625 C 41.851562 -39.804688 44.328125 -38.484375 46.671875 -36.921875 C 51.429688 -33.628906 53.8125 -28.320312 53.8125 -21 C 53.8125 -13.675781 51.644531 -8.128906 47.3125 -4.359375 C 42.976562 -0.585938 37.046875 1.296875 29.515625 1.296875 C 24.140625 1.296875 18.9375 0.0390625 13.90625 -2.46875 C 12.863281 -3.164062 12.039062 -3.515625 11.4375 -3.515625 C 9.53125 -3.515625 7.664062 -1.910156 5.84375 1.296875 Z M 4.296875 1.296875 "/></g></g></g><g fill="#0330ab" fill-opacity="1"><g transform="translate(10.086914, 494.467679)"><g><path d="M 8.34375 0.640625 C 7.0625 0.640625 5.925781 0.410156 4.9375 -0.046875 C 3.957031 -0.515625 3.191406 -1.1875 2.640625 -2.0625 C 2.097656 -2.9375 1.828125 -3.960938 1.828125 -5.140625 C 1.828125 -6.054688 2.035156 -6.898438 2.453125 -7.671875 C 2.867188 -8.453125 3.4375 -9.109375 4.15625 -9.640625 C 4.84375 -10.148438 5.625 -10.640625 6.5 -11.109375 C 7.382812 -11.578125 8.289062 -11.984375 9.21875 -12.328125 C 11.09375 -13.003906 12.78125 -13.78125 14.28125 -14.65625 C 15 -15.070312 15.5625 -15.578125 15.96875 -16.171875 C 16.375 -16.765625 16.578125 -17.40625 16.578125 -18.09375 C 16.578125 -19.84375 16.144531 -21.160156 15.28125 -22.046875 C 14.425781 -22.929688 13.191406 -23.375 11.578125 -23.375 C 10.453125 -23.375 9.394531 -23.195312 8.40625 -22.84375 C 7.414062 -22.488281 6.644531 -22.007812 6.09375 -21.40625 C 7.0625 -21.40625 7.847656 -21.140625 8.453125 -20.609375 C 9.054688 -20.085938 9.359375 -19.445312 9.359375 -18.6875 C 9.359375 -18.039062 9.210938 -17.460938 8.921875 -16.953125 C 8.628906 -16.453125 8.234375 -16.0625 7.734375 -15.78125 C 7.234375 -15.5 6.6875 -15.359375 6.09375 -15.359375 C 5.125 -15.359375 4.304688 -15.691406 3.640625 -16.359375 C 2.984375 -17.035156 2.65625 -17.96875 2.65625 -19.15625 C 2.65625 -19.789062 2.863281 -20.476562 3.28125 -21.21875 C 3.707031 -21.96875 4.300781 -22.691406 5.0625 -23.390625 C 5.863281 -24.128906 6.929688 -24.71875 8.265625 -25.15625 C 9.597656 -25.601562 11.039062 -25.828125 12.59375 -25.828125 C 13.882812 -25.828125 15.050781 -25.679688 16.09375 -25.390625 C 17.144531 -25.109375 18.09375 -24.65625 18.9375 -24.03125 C 19.800781 -23.382812 20.460938 -22.5 20.921875 -21.375 C 21.378906 -20.25 21.609375 -18.929688 21.609375 -17.421875 L 21.609375 -6.640625 C 21.609375 -5.960938 21.691406 -5.351562 21.859375 -4.8125 C 22.023438 -4.28125 22.3125 -3.800781 22.71875 -3.375 C 23.164062 -2.925781 23.71875 -2.703125 24.375 -2.703125 C 26.363281 -2.703125 27.359375 -4.09375 27.359375 -6.875 L 27.359375 -10.359375 L 29.90625 -10.359375 L 29.90625 -7.34375 C 29.90625 -5.789062 29.738281 -4.472656 29.40625 -3.390625 C 29.082031 -2.304688 28.609375 -1.484375 27.984375 -0.921875 C 27.378906 -0.367188 26.707031 0.0234375 25.96875 0.265625 C 25.238281 0.515625 24.375 0.640625 23.375 0.640625 C 22.289062 0.640625 21.300781 0.425781 20.40625 0 C 19.507812 -0.425781 18.75 -1.078125 18.125 -1.953125 C 17.445312 -2.867188 17.054688 -3.960938 16.953125 -5.234375 C 16.515625 -4.109375 15.851562 -3.097656 14.96875 -2.203125 C 14.082031 -1.316406 13.0625 -0.617188 11.90625 -0.109375 C 10.75 0.390625 9.5625 0.640625 8.34375 0.640625 Z M 9.5625 -2.75 C 10.582031 -2.75 11.644531 -3.050781 12.75 -3.65625 C 13.863281 -4.269531 14.78125 -5.050781 15.5 -6 C 16.21875 -6.925781 16.578125 -7.828125 16.578125 -8.703125 L 16.578125 -13.6875 C 15.679688 -12.800781 14.601562 -11.96875 13.34375 -11.1875 C 12.09375 -10.40625 10.953125 -9.78125 9.921875 -9.3125 C 8.992188 -8.90625 8.242188 -8.367188 7.671875 -7.703125 C 7.109375 -7.035156 6.828125 -6.257812 6.828125 -5.375 C 6.828125 -4.570312 7.0625 -3.929688 7.53125 -3.453125 C 8.007812 -2.984375 8.6875 -2.75 9.5625 -2.75 Z M 9.5625 -2.75 "/></g></g></g><g fill="#0330ab" fill-opacity="1"><g transform="translate(39.774981, 494.467679)"><g><path d="M 1.15625 -2.625 L 5.71875 -2.625 L 5.71875 -22.53125 L 1.15625 -22.53125 L 1.15625 -25.15625 L 10.03125 -25.546875 L 10.625 -20.4375 C 11.101562 -21.5625 11.785156 -22.53125 12.671875 -23.34375 C 13.566406 -24.15625 14.5625 -24.769531 15.65625 -25.1875 C 16.75 -25.613281 17.851562 -25.828125 18.96875 -25.828125 C 19.5 -25.828125 19.96875 -25.800781 20.375 -25.75 C 20.789062 -25.707031 21.25 -25.609375 21.75 -25.453125 C 22.3125 -25.285156 22.804688 -25.066406 23.234375 -24.796875 C 23.671875 -24.535156 24.113281 -24.175781 24.5625 -23.71875 C 25.03125 -23.238281 25.410156 -22.6875 25.703125 -22.0625 C 26.003906 -21.445312 26.257812 -20.6875 26.46875 -19.78125 C 26.65625 -18.875 26.75 -17.851562 26.75 -16.71875 L 26.75 -2.625 L 31.546875 -2.625 L 31.546875 0 L 17.421875 0 L 17.421875 -2.625 L 21.703125 -2.625 L 21.703125 -16.671875 C 21.703125 -18.648438 21.3125 -20.132812 20.53125 -21.125 C 19.75 -22.125 18.648438 -22.625 17.234375 -22.625 C 16.359375 -22.625 15.546875 -22.457031 14.796875 -22.125 C 14.054688 -21.800781 13.4375 -21.347656 12.9375 -20.765625 C 12.457031 -20.203125 12.046875 -19.535156 11.703125 -18.765625 C 11.367188 -17.992188 11.132812 -17.1875 11 -16.34375 C 10.84375 -15.5625 10.765625 -14.691406 10.765625 -13.734375 L 10.765625 -2.625 L 15.03125 -2.625 L 15.03125 0 L 1.15625 0 Z M 1.15625 -2.625 "/></g></g></g><g fill="#0330ab" fill-opacity="1"><g transform="translate(71.618771, 494.467679)"><g/></g></g><g fill="#0330ab" fill-opacity="1"><g transform="translate(82.866024, 494.467679)"><g><path d="M 0.1875 0 L 0.1875 -3.359375 L 4.40625 -3.359375 L 16.765625 -35.28125 L 22.3125 -35.28125 L 34.859375 -3.359375 L 38.796875 -3.359375 L 38.796875 0 L 23.625 0 L 23.625 -3.359375 L 28.859375 -3.359375 L 25.59375 -11.8125 L 12.046875 -11.8125 L 8.984375 -3.359375 L 14.890625 -3.359375 L 14.890625 0 Z M 13.15625 -14.796875 L 24.421875 -14.796875 L 18.640625 -30.6875 Z M 13.15625 -14.796875 "/></g></g></g><g fill="#0330ab" fill-opacity="1"><g transform="translate(121.809638, 494.467679)"><g><path d="M 0.703125 0 L 0.703125 -3.359375 L 6.421875 -3.359375 L 6.421875 -31.921875 L 0.703125 -31.921875 L 0.703125 -35.28125 L 17.328125 -35.28125 L 17.328125 -31.921875 L 11.9375 -31.921875 L 11.9375 -3.359375 L 17.328125 -3.359375 L 17.328125 0 Z M 0.703125 0 "/></g></g></g><g fill="#0330ab" fill-opacity="1"><g transform="translate(139.82868, 494.467679)"><g/></g></g><g fill="#0330ab" fill-opacity="1"><g transform="translate(151.075933, 494.467679)"><g><path d="M -1.25 6.59375 L 4.265625 6.59375 L 4.265625 -22.53125 L -0.28125 -22.53125 L -0.28125 -25.15625 L 9.171875 -25.828125 L 9.171875 -21.125 C 10.015625 -22.65625 11.085938 -23.820312 12.390625 -24.625 C 13.691406 -25.425781 15.164062 -25.828125 16.8125 -25.828125 C 18.75 -25.828125 20.488281 -25.242188 22.03125 -24.078125 C 23.582031 -22.921875 24.785156 -21.328125 25.640625 -19.296875 C 26.472656 -17.273438 26.890625 -15.054688 26.890625 -12.640625 C 26.890625 -10.046875 26.453125 -7.742188 25.578125 -5.734375 C 24.703125 -3.722656 23.457031 -2.15625 21.84375 -1.03125 C 20.238281 0.0820312 18.363281 0.640625 16.21875 0.640625 C 14.832031 0.640625 13.53125 0.304688 12.3125 -0.359375 C 11.101562 -1.023438 10.101562 -1.945312 9.3125 -3.125 L 9.3125 6.546875 L 14.484375 6.546875 L 14.484375 9.40625 L -1.25 9.40625 Z M 15.3125 -2.015625 C 16.375 -2.015625 17.316406 -2.332031 18.140625 -2.96875 C 18.972656 -3.601562 19.628906 -4.46875 20.109375 -5.5625 C 21.046875 -7.71875 21.515625 -10.171875 21.515625 -12.921875 C 21.515625 -14.703125 21.28125 -16.320312 20.8125 -17.78125 C 20.34375 -19.238281 19.632812 -20.445312 18.6875 -21.40625 C 17.71875 -22.375 16.59375 -22.859375 15.3125 -22.859375 C 14.070312 -22.859375 12.972656 -22.414062 12.015625 -21.53125 C 11.054688 -20.644531 10.3125 -19.410156 9.78125 -17.828125 C 9.25 -16.253906 8.984375 -14.46875 8.984375 -12.46875 C 8.984375 -9.875 9.46875 -7.539062 10.4375 -5.46875 C 10.914062 -4.40625 11.582031 -3.5625 12.4375 -2.9375 C 13.289062 -2.320312 14.25 -2.015625 15.3125 -2.015625 Z M 15.3125 -2.015625 "/></g></g></g><g fill="#0330ab" fill-opacity="1"><g transform="translate(179.662701, 494.467679)"><g><path d="M 14.015625 0.640625 C 11.566406 0.640625 9.410156 0.0703125 7.546875 -1.0625 C 5.691406 -2.195312 4.257812 -3.765625 3.25 -5.765625 C 2.238281 -7.765625 1.734375 -10.039062 1.734375 -12.59375 C 1.734375 -15.125 2.210938 -17.378906 3.171875 -19.359375 C 4.140625 -21.347656 5.550781 -22.921875 7.40625 -24.078125 C 9.28125 -25.242188 11.46875 -25.828125 13.96875 -25.828125 C 15.8125 -25.828125 17.507812 -25.488281 19.0625 -24.8125 C 20.625 -24.144531 21.925781 -23.210938 22.96875 -22.015625 C 24 -20.828125 24.785156 -19.421875 25.328125 -17.796875 C 25.878906 -16.179688 26.15625 -14.445312 26.15625 -12.59375 C 26.15625 -10.070312 25.675781 -7.820312 24.71875 -5.84375 C 23.769531 -3.875 22.375 -2.3125 20.53125 -1.15625 C 18.6875 0.0390625 16.515625 0.640625 14.015625 0.640625 Z M 14.015625 -2.34375 C 15.390625 -2.34375 16.585938 -2.753906 17.609375 -3.578125 C 18.640625 -4.398438 19.425781 -5.5625 19.96875 -7.0625 C 20.519531 -8.5625 20.796875 -10.300781 20.796875 -12.28125 C 20.796875 -14.457031 20.5625 -16.320312 20.09375 -17.875 C 19.625 -19.425781 18.878906 -20.671875 17.859375 -21.609375 C 16.816406 -22.566406 15.519531 -23.046875 13.96875 -23.046875 C 12.457031 -23.046875 11.171875 -22.578125 10.109375 -21.640625 C 9.046875 -20.703125 8.28125 -19.421875 7.8125 -17.796875 C 7.34375 -16.234375 7.109375 -14.394531 7.109375 -12.28125 C 7.109375 -10.300781 7.382812 -8.5625 7.9375 -7.0625 C 8.488281 -5.5625 9.285156 -4.398438 10.328125 -3.578125 C 11.378906 -2.753906 12.609375 -2.34375 14.015625 -2.34375 Z M 14.015625 -2.34375 "/></g></g></g><g fill="#0330ab" fill-opacity="1"><g transform="translate(207.523078, 494.467679)"><g><path d="M 12.421875 0.921875 C 11.671875 0.921875 11.066406 0.664062 10.609375 0.15625 C 10.160156 -0.351562 9.773438 -1.21875 9.453125 -2.4375 L 4.125 -22.53125 L 0.1875 -22.53125 L 0.1875 -25.15625 L 13.34375 -25.15625 L 13.34375 -22.53125 L 9.5625 -22.53125 L 13.484375 -5.140625 L 18.96875 -22.453125 L 23.234375 -22.453125 L 28.3125 -5 L 32.703125 -22.53125 L 28.765625 -22.53125 L 28.765625 -25.15625 L 39.5625 -25.15625 L 39.5625 -22.53125 L 36.234375 -22.53125 L 30.921875 -2.5625 C 30.679688 -1.632812 30.4375 -0.921875 30.1875 -0.421875 C 29.9375 0.0664062 29.628906 0.410156 29.265625 0.609375 C 28.898438 0.816406 28.425781 0.921875 27.84375 0.921875 C 27.050781 0.921875 26.421875 0.664062 25.953125 0.15625 C 25.492188 -0.34375 25.101562 -1.191406 24.78125 -2.390625 L 20.65625 -17.53125 L 15.796875 -2.609375 C 15.503906 -1.703125 15.210938 -0.992188 14.921875 -0.484375 C 14.628906 0.015625 14.285156 0.375 13.890625 0.59375 C 13.503906 0.8125 13.015625 0.921875 12.421875 0.921875 Z M 12.421875 0.921875 "/></g></g></g><g fill="#0330ab" fill-opacity="1"><g transform="translate(247.05248, 494.467679)"><g><path d="M 13.96875 0.640625 C 12.09375 0.640625 10.363281 0.285156 8.78125 -0.421875 C 7.207031 -1.140625 5.90625 -2.125 4.875 -3.375 C 3.863281 -4.59375 3.085938 -5.96875 2.546875 -7.5 C 2.003906 -9.03125 1.734375 -10.617188 1.734375 -12.265625 C 1.734375 -13.679688 1.898438 -15.050781 2.234375 -16.375 C 2.578125 -17.707031 3.078125 -18.9375 3.734375 -20.0625 C 5.171875 -22.519531 7.09375 -24.203125 9.5 -25.109375 C 10.757812 -25.585938 12.15625 -25.828125 13.6875 -25.828125 C 15.28125 -25.828125 16.765625 -25.546875 18.140625 -24.984375 C 19.515625 -24.421875 20.71875 -23.609375 21.75 -22.546875 C 22.800781 -21.453125 23.625 -20.078125 24.21875 -18.421875 C 24.820312 -16.765625 25.140625 -14.929688 25.171875 -12.921875 L 7.109375 -12.921875 L 7.109375 -12.734375 C 7.109375 -10.015625 7.6875 -7.722656 8.84375 -5.859375 C 9.414062 -4.921875 10.1875 -4.191406 11.15625 -3.671875 C 12.125 -3.148438 13.226562 -2.890625 14.46875 -2.890625 C 15.5625 -2.890625 16.617188 -3.117188 17.640625 -3.578125 C 18.660156 -4.035156 19.550781 -4.707031 20.3125 -5.59375 C 21.070312 -6.476562 21.613281 -7.515625 21.9375 -8.703125 L 24.6875 -7.828125 C 24.28125 -6.109375 23.582031 -4.613281 22.59375 -3.34375 C 21.613281 -2.070312 20.390625 -1.085938 18.921875 -0.390625 C 17.453125 0.296875 15.800781 0.640625 13.96875 0.640625 Z M 20.015625 -15.453125 C 19.984375 -16.929688 19.691406 -18.242188 19.140625 -19.390625 C 18.585938 -20.546875 17.84375 -21.441406 16.90625 -22.078125 C 15.976562 -22.722656 14.953125 -23.046875 13.828125 -23.046875 C 12.691406 -23.046875 11.644531 -22.722656 10.6875 -22.078125 C 9.738281 -21.441406 8.960938 -20.546875 8.359375 -19.390625 C 7.753906 -18.242188 7.390625 -16.929688 7.265625 -15.453125 Z M 20.015625 -15.453125 "/></g></g></g><g fill="#0330ab" fill-opacity="1"><g transform="translate(273.999012, 494.467679)"><g><path d="M 1.15625 -2.625 L 5.71875 -2.625 L 5.71875 -22.53125 L 1.15625 -22.53125 L 1.15625 -25.15625 L 10.03125 -25.546875 L 10.671875 -20.0625 C 11.054688 -21.394531 11.765625 -22.644531 12.796875 -23.8125 C 13.347656 -24.4375 14.023438 -24.925781 14.828125 -25.28125 C 15.628906 -25.644531 16.492188 -25.828125 17.421875 -25.828125 C 18.273438 -25.828125 19.050781 -25.664062 19.75 -25.34375 C 20.457031 -25.03125 21.019531 -24.566406 21.4375 -23.953125 C 21.851562 -23.347656 22.0625 -22.628906 22.0625 -21.796875 C 22.0625 -21.015625 21.898438 -20.332031 21.578125 -19.75 C 21.253906 -19.164062 20.816406 -18.71875 20.265625 -18.40625 C 19.722656 -18.101562 19.125 -17.953125 18.46875 -17.953125 C 17.550781 -17.953125 16.765625 -18.238281 16.109375 -18.8125 C 15.460938 -19.394531 15.140625 -20.148438 15.140625 -21.078125 C 15.140625 -21.367188 15.210938 -21.6875 15.359375 -22.03125 C 15.515625 -22.375 15.675781 -22.65625 15.84375 -22.875 L 16.109375 -23.140625 C 15.179688 -23.140625 14.359375 -22.851562 13.640625 -22.28125 C 12.921875 -21.707031 12.359375 -20.921875 11.953125 -19.921875 C 11.160156 -17.984375 10.765625 -15.835938 10.765625 -13.484375 L 10.765625 -2.625 L 16.03125 -2.625 L 16.03125 0 L 1.15625 0 Z M 1.15625 -2.625 "/></g></g></g><g fill="#0330ab" fill-opacity="1"><g transform="translate(296.352939, 494.467679)"><g><path d="M 13.96875 0.640625 C 12.09375 0.640625 10.363281 0.285156 8.78125 -0.421875 C 7.207031 -1.140625 5.90625 -2.125 4.875 -3.375 C 3.863281 -4.59375 3.085938 -5.96875 2.546875 -7.5 C 2.003906 -9.03125 1.734375 -10.617188 1.734375 -12.265625 C 1.734375 -13.679688 1.898438 -15.050781 2.234375 -16.375 C 2.578125 -17.707031 3.078125 -18.9375 3.734375 -20.0625 C 5.171875 -22.519531 7.09375 -24.203125 9.5 -25.109375 C 10.757812 -25.585938 12.15625 -25.828125 13.6875 -25.828125 C 15.28125 -25.828125 16.765625 -25.546875 18.140625 -24.984375 C 19.515625 -24.421875 20.71875 -23.609375 21.75 -22.546875 C 22.800781 -21.453125 23.625 -20.078125 24.21875 -18.421875 C 24.820312 -16.765625 25.140625 -14.929688 25.171875 -12.921875 L 7.109375 -12.921875 L 7.109375 -12.734375 C 7.109375 -10.015625 7.6875 -7.722656 8.84375 -5.859375 C 9.414062 -4.921875 10.1875 -4.191406 11.15625 -3.671875 C 12.125 -3.148438 13.226562 -2.890625 14.46875 -2.890625 C 15.5625 -2.890625 16.617188 -3.117188 17.640625 -3.578125 C 18.660156 -4.035156 19.550781 -4.707031 20.3125 -5.59375 C 21.070312 -6.476562 21.613281 -7.515625 21.9375 -8.703125 L 24.6875 -7.828125 C 24.28125 -6.109375 23.582031 -4.613281 22.59375 -3.34375 C 21.613281 -2.070312 20.390625 -1.085938 18.921875 -0.390625 C 17.453125 0.296875 15.800781 0.640625 13.96875 0.640625 Z M 20.015625 -15.453125 C 19.984375 -16.929688 19.691406 -18.242188 19.140625 -19.390625 C 18.585938 -20.546875 17.84375 -21.441406 16.90625 -22.078125 C 15.976562 -22.722656 14.953125 -23.046875 13.828125 -23.046875 C 12.691406 -23.046875 11.644531 -22.722656 10.6875 -22.078125 C 9.738281 -21.441406 8.960938 -20.546875 8.359375 -19.390625 C 7.753906 -18.242188 7.390625 -16.929688 7.265625 -15.453125 Z M 20.015625 -15.453125 "/></g></g></g><g fill="#0330ab" fill-opacity="1"><g transform="translate(323.299471, 494.467679)"><g><path d="M 12.1875 0.640625 C 10.144531 0.640625 8.34375 0.09375 6.78125 -1 C 5.21875 -2.101562 4.007812 -3.65625 3.15625 -5.65625 C 2.300781 -7.65625 1.875 -9.96875 1.875 -12.59375 C 1.875 -15.226562 2.304688 -17.546875 3.171875 -19.546875 C 4.046875 -21.546875 5.285156 -23.09375 6.890625 -24.1875 C 8.503906 -25.28125 10.390625 -25.828125 12.546875 -25.828125 C 13.859375 -25.828125 15.140625 -25.488281 16.390625 -24.8125 C 17.640625 -24.144531 18.65625 -23.234375 19.4375 -22.078125 L 19.4375 -32.390625 L 13.921875 -32.390625 L 13.921875 -35.28125 L 24.46875 -35.28125 L 24.46875 -2.625 L 28.71875 -2.625 L 28.71875 0 L 20.390625 0 L 19.484375 -3.984375 C 18.703125 -2.546875 17.640625 -1.414062 16.296875 -0.59375 C 14.960938 0.226562 13.59375 0.640625 12.1875 0.640625 Z M 13.203125 -2.34375 C 14.453125 -2.34375 15.578125 -2.796875 16.578125 -3.703125 C 17.585938 -4.609375 18.375 -5.863281 18.9375 -7.46875 C 19.5 -9.070312 19.78125 -10.875 19.78125 -12.875 C 19.78125 -15.476562 19.28125 -17.789062 18.28125 -19.8125 C 17.769531 -20.851562 17.085938 -21.675781 16.234375 -22.28125 C 15.378906 -22.882812 14.429688 -23.1875 13.390625 -23.1875 C 12.335938 -23.1875 11.398438 -22.878906 10.578125 -22.265625 C 9.765625 -21.660156 9.113281 -20.816406 8.625 -19.734375 C 7.707031 -17.660156 7.25 -15.238281 7.25 -12.46875 C 7.25 -8.613281 8.125 -5.75 9.875 -3.875 C 10.789062 -2.851562 11.898438 -2.34375 13.203125 -2.34375 Z M 13.203125 -2.34375 "/></g></g></g><g fill="#0330ab" fill-opacity="1"><g transform="translate(352.261148, 494.467679)"><g/></g></g><g fill="#0330ab" fill-opacity="1"><g transform="translate(363.508401, 494.467679)"><g><path d="M 0.1875 0 L 0.1875 -3.359375 L 4.40625 -3.359375 L 16.765625 -35.28125 L 22.3125 -35.28125 L 34.859375 -3.359375 L 38.796875 -3.359375 L 38.796875 0 L 23.625 0 L 23.625 -3.359375 L 28.859375 -3.359375 L 25.59375 -11.8125 L 12.046875 -11.8125 L 8.984375 -3.359375 L 14.890625 -3.359375 L 14.890625 0 Z M 13.15625 -14.796875 L 24.421875 -14.796875 L 18.640625 -30.6875 Z M 13.15625 -14.796875 "/></g></g></g><g fill="#0330ab" fill-opacity="1"><g transform="translate(402.452025, 494.467679)"><g><path d="M 1.15625 -2.625 L 5.71875 -2.625 L 5.71875 -22.53125 L 1.15625 -22.53125 L 1.15625 -25.15625 L 10.03125 -25.546875 L 10.625 -20.4375 C 11.101562 -21.5625 11.785156 -22.53125 12.671875 -23.34375 C 13.566406 -24.15625 14.5625 -24.769531 15.65625 -25.1875 C 16.75 -25.613281 17.851562 -25.828125 18.96875 -25.828125 C 19.5 -25.828125 19.96875 -25.800781 20.375 -25.75 C 20.789062 -25.707031 21.25 -25.609375 21.75 -25.453125 C 22.3125 -25.285156 22.804688 -25.066406 23.234375 -24.796875 C 23.671875 -24.535156 24.113281 -24.175781 24.5625 -23.71875 C 25.03125 -23.238281 25.410156 -22.6875 25.703125 -22.0625 C 26.003906 -21.445312 26.257812 -20.6875 26.46875 -19.78125 C 26.65625 -18.875 26.75 -17.851562 26.75 -16.71875 L 26.75 -2.625 L 31.546875 -2.625 L 31.546875 0 L 17.421875 0 L 17.421875 -2.625 L 21.703125 -2.625 L 21.703125 -16.671875 C 21.703125 -18.648438 21.3125 -20.132812 20.53125 -21.125 C 19.75 -22.125 18.648438 -22.625 17.234375 -22.625 C 16.359375 -22.625 15.546875 -22.457031 14.796875 -22.125 C 14.054688 -21.800781 13.4375 -21.347656 12.9375 -20.765625 C 12.457031 -20.203125 12.046875 -19.535156 11.703125 -18.765625 C 11.367188 -17.992188 11.132812 -17.1875 11 -16.34375 C 10.84375 -15.5625 10.765625 -14.691406 10.765625 -13.734375 L 10.765625 -2.625 L 15.03125 -2.625 L 15.03125 0 L 1.15625 0 Z M 1.15625 -2.625 "/></g></g></g><g fill="#0330ab" fill-opacity="1"><g transform="translate(434.295804, 494.467679)"><g><path d="M 8.34375 0.640625 C 7.0625 0.640625 5.925781 0.410156 4.9375 -0.046875 C 3.957031 -0.515625 3.191406 -1.1875 2.640625 -2.0625 C 2.097656 -2.9375 1.828125 -3.960938 1.828125 -5.140625 C 1.828125 -6.054688 2.035156 -6.898438 2.453125 -7.671875 C 2.867188 -8.453125 3.4375 -9.109375 4.15625 -9.640625 C 4.84375 -10.148438 5.625 -10.640625 6.5 -11.109375 C 7.382812 -11.578125 8.289062 -11.984375 9.21875 -12.328125 C 11.09375 -13.003906 12.78125 -13.78125 14.28125 -14.65625 C 15 -15.070312 15.5625 -15.578125 15.96875 -16.171875 C 16.375 -16.765625 16.578125 -17.40625 16.578125 -18.09375 C 16.578125 -19.84375 16.144531 -21.160156 15.28125 -22.046875 C 14.425781 -22.929688 13.191406 -23.375 11.578125 -23.375 C 10.453125 -23.375 9.394531 -23.195312 8.40625 -22.84375 C 7.414062 -22.488281 6.644531 -22.007812 6.09375 -21.40625 C 7.0625 -21.40625 7.847656 -21.140625 8.453125 -20.609375 C 9.054688 -20.085938 9.359375 -19.445312 9.359375 -18.6875 C 9.359375 -18.039062 9.210938 -17.460938 8.921875 -16.953125 C 8.628906 -16.453125 8.234375 -16.0625 7.734375 -15.78125 C 7.234375 -15.5 6.6875 -15.359375 6.09375 -15.359375 C 5.125 -15.359375 4.304688 -15.691406 3.640625 -16.359375 C 2.984375 -17.035156 2.65625 -17.96875 2.65625 -19.15625 C 2.65625 -19.789062 2.863281 -20.476562 3.28125 -21.21875 C 3.707031 -21.96875 4.300781 -22.691406 5.0625 -23.390625 C 5.863281 -24.128906 6.929688 -24.71875 8.265625 -25.15625 C 9.597656 -25.601562 11.039062 -25.828125 12.59375 -25.828125 C 13.882812 -25.828125 15.050781 -25.679688 16.09375 -25.390625 C 17.144531 -25.109375 18.09375 -24.65625 18.9375 -24.03125 C 19.800781 -23.382812 20.460938 -22.5 20.921875 -21.375 C 21.378906 -20.25 21.609375 -18.929688 21.609375 -17.421875 L 21.609375 -6.640625 C 21.609375 -5.960938 21.691406 -5.351562 21.859375 -4.8125 C 22.023438 -4.28125 22.3125 -3.800781 22.71875 -3.375 C 23.164062 -2.925781 23.71875 -2.703125 24.375 -2.703125 C 26.363281 -2.703125 27.359375 -4.09375 27.359375 -6.875 L 27.359375 -10.359375 L 29.90625 -10.359375 L 29.90625 -7.34375 C 29.90625 -5.789062 29.738281 -4.472656 29.40625 -3.390625 C 29.082031 -2.304688 28.609375 -1.484375 27.984375 -0.921875 C 27.378906 -0.367188 26.707031 0.0234375 25.96875 0.265625 C 25.238281 0.515625 24.375 0.640625 23.375 0.640625 C 22.289062 0.640625 21.300781 0.425781 20.40625 0 C 19.507812 -0.425781 18.75 -1.078125 18.125 -1.953125 C 17.445312 -2.867188 17.054688 -3.960938 16.953125 -5.234375 C 16.515625 -4.109375 15.851562 -3.097656 14.96875 -2.203125 C 14.082031 -1.316406 13.0625 -0.617188 11.90625 -0.109375 C 10.75 0.390625 9.5625 0.640625 8.34375 0.640625 Z M 9.5625 -2.75 C 10.582031 -2.75 11.644531 -3.050781 12.75 -3.65625 C 13.863281 -4.269531 14.78125 -5.050781 15.5 -6 C 16.21875 -6.925781 16.578125 -7.828125 16.578125 -8.703125 L 16.578125 -13.6875 C 15.679688 -12.800781 14.601562 -11.96875 13.34375 -11.1875 C 12.09375 -10.40625 10.953125 -9.78125 9.921875 -9.3125 C 8.992188 -8.90625 8.242188 -8.367188 7.671875 -7.703125 C 7.109375 -7.035156 6.828125 -6.257812 6.828125 -5.375 C 6.828125 -4.570312 7.0625 -3.929688 7.53125 -3.453125 C 8.007812 -2.984375 8.6875 -2.75 9.5625 -2.75 Z M 9.5625 -2.75 "/></g></g></g><g fill="#0330ab" fill-opacity="1"><g transform="translate(463.983883, 494.467679)"><g><path d="M 1.15625 -2.625 L 5.71875 -2.625 L 5.71875 -22.53125 L 1.15625 -22.53125 L 1.15625 -25.15625 L 10.03125 -25.546875 L 10.625 -20.4375 C 10.9375 -21.363281 11.390625 -22.1875 11.984375 -22.90625 C 12.578125 -23.632812 13.25 -24.210938 14 -24.640625 C 15.4375 -25.429688 16.953125 -25.828125 18.546875 -25.828125 C 19.148438 -25.828125 19.660156 -25.800781 20.078125 -25.75 C 20.503906 -25.695312 20.984375 -25.582031 21.515625 -25.40625 C 22.109375 -25.207031 22.617188 -24.9375 23.046875 -24.59375 C 23.484375 -24.25 23.90625 -23.765625 24.3125 -23.140625 C 24.695312 -22.515625 25.023438 -21.75 25.296875 -20.84375 C 26.023438 -22.507812 27.039062 -23.753906 28.34375 -24.578125 C 29.65625 -25.410156 31.140625 -25.828125 32.796875 -25.828125 C 33.328125 -25.828125 33.796875 -25.800781 34.203125 -25.75 C 34.617188 -25.707031 35.078125 -25.609375 35.578125 -25.453125 C 36.140625 -25.285156 36.632812 -25.066406 37.0625 -24.796875 C 37.5 -24.535156 37.941406 -24.175781 38.390625 -23.71875 C 38.859375 -23.238281 39.238281 -22.6875 39.53125 -22.0625 C 39.832031 -21.445312 40.085938 -20.6875 40.296875 -19.78125 C 40.484375 -18.875 40.578125 -17.851562 40.578125 -16.71875 L 40.578125 -2.625 L 44.890625 -2.625 L 44.890625 0 L 31.734375 0 L 31.734375 -2.625 L 35.53125 -2.625 L 35.53125 -16.671875 C 35.53125 -18.648438 35.140625 -20.132812 34.359375 -21.125 C 33.578125 -22.125 32.476562 -22.625 31.0625 -22.625 C 29.976562 -22.625 29.035156 -22.390625 28.234375 -21.921875 C 27.441406 -21.453125 26.832031 -20.800781 26.40625 -19.96875 C 25.988281 -19.144531 25.78125 -18.203125 25.78125 -17.140625 L 25.78125 -2.625 L 29.8125 -2.625 L 29.8125 0 L 16.71875 0 L 16.71875 -2.625 L 20.75 -2.625 L 20.75 -16.671875 C 20.75 -18.648438 20.359375 -20.132812 19.578125 -21.125 C 18.796875 -22.125 17.691406 -22.625 16.265625 -22.625 C 15.390625 -22.625 14.613281 -22.453125 13.9375 -22.109375 C 13.257812 -21.773438 12.71875 -21.328125 12.3125 -20.765625 C 11.9375 -20.234375 11.625 -19.570312 11.375 -18.78125 C 11.132812 -18 10.96875 -17.191406 10.875 -16.359375 C 10.800781 -15.472656 10.765625 -14.597656 10.765625 -13.734375 L 10.765625 -2.625 L 14.796875 -2.625 L 14.796875 0 L 1.15625 0 Z M 1.15625 -2.625 "/></g></g></g><g fill="#0330ab" fill-opacity="1"><g transform="translate(509.183786, 494.467679)"><g><path d="M 1.15625 -2.625 L 5.71875 -2.625 L 5.71875 -22.53125 L 1.15625 -22.53125 L 1.15625 -25.15625 L 10.03125 -25.546875 L 10.625 -20.4375 C 11.101562 -21.5625 11.785156 -22.53125 12.671875 -23.34375 C 13.566406 -24.15625 14.5625 -24.769531 15.65625 -25.1875 C 16.75 -25.613281 17.851562 -25.828125 18.96875 -25.828125 C 19.5 -25.828125 19.96875 -25.800781 20.375 -25.75 C 20.789062 -25.707031 21.25 -25.609375 21.75 -25.453125 C 22.3125 -25.285156 22.804688 -25.066406 23.234375 -24.796875 C 23.671875 -24.535156 24.113281 -24.175781 24.5625 -23.71875 C 25.03125 -23.238281 25.410156 -22.6875 25.703125 -22.0625 C 26.003906 -21.445312 26.257812 -20.6875 26.46875 -19.78125 C 26.65625 -18.875 26.75 -17.851562 26.75 -16.71875 L 26.75 -2.625 L 31.546875 -2.625 L 31.546875 0 L 17.421875 0 L 17.421875 -2.625 L 21.703125 -2.625 L 21.703125 -16.671875 C 21.703125 -18.648438 21.3125 -20.132812 20.53125 -21.125 C 19.75 -22.125 18.648438 -22.625 17.234375 -22.625 C 16.359375 -22.625 15.546875 -22.457031 14.796875 -22.125 C 14.054688 -21.800781 13.4375 -21.347656 12.9375 -20.765625 C 12.457031 -20.203125 12.046875 -19.535156 11.703125 -18.765625 C 11.367188 -17.992188 11.132812 -17.1875 11 -16.34375 C 10.84375 -15.5625 10.765625 -14.691406 10.765625 -13.734375 L 10.765625 -2.625 L 15.03125 -2.625 L 15.03125 0 L 1.15625 0 Z M 1.15625 -2.625 "/></g></g></g><g fill="#0330ab" fill-opacity="1"><g transform="translate(541.027565, 494.467679)"><g><path d="M 13.96875 0.640625 C 12.09375 0.640625 10.363281 0.285156 8.78125 -0.421875 C 7.207031 -1.140625 5.90625 -2.125 4.875 -3.375 C 3.863281 -4.59375 3.085938 -5.96875 2.546875 -7.5 C 2.003906 -9.03125 1.734375 -10.617188 1.734375 -12.265625 C 1.734375 -13.679688 1.898438 -15.050781 2.234375 -16.375 C 2.578125 -17.707031 3.078125 -18.9375 3.734375 -20.0625 C 5.171875 -22.519531 7.09375 -24.203125 9.5 -25.109375 C 10.757812 -25.585938 12.15625 -25.828125 13.6875 -25.828125 C 15.28125 -25.828125 16.765625 -25.546875 18.140625 -24.984375 C 19.515625 -24.421875 20.71875 -23.609375 21.75 -22.546875 C 22.800781 -21.453125 23.625 -20.078125 24.21875 -18.421875 C 24.820312 -16.765625 25.140625 -14.929688 25.171875 -12.921875 L 7.109375 -12.921875 L 7.109375 -12.734375 C 7.109375 -10.015625 7.6875 -7.722656 8.84375 -5.859375 C 9.414062 -4.921875 10.1875 -4.191406 11.15625 -3.671875 C 12.125 -3.148438 13.226562 -2.890625 14.46875 -2.890625 C 15.5625 -2.890625 16.617188 -3.117188 17.640625 -3.578125 C 18.660156 -4.035156 19.550781 -4.707031 20.3125 -5.59375 C 21.070312 -6.476562 21.613281 -7.515625 21.9375 -8.703125 L 24.6875 -7.828125 C 24.28125 -6.109375 23.582031 -4.613281 22.59375 -3.34375 C 21.613281 -2.070312 20.390625 -1.085938 18.921875 -0.390625 C 17.453125 0.296875 15.800781 0.640625 13.96875 0.640625 Z M 20.015625 -15.453125 C 19.984375 -16.929688 19.691406 -18.242188 19.140625 -19.390625 C 18.585938 -20.546875 17.84375 -21.441406 16.90625 -22.078125 C 15.976562 -22.722656 14.953125 -23.046875 13.828125 -23.046875 C 12.691406 -23.046875 11.644531 -22.722656 10.6875 -22.078125 C 9.738281 -21.441406 8.960938 -20.546875 8.359375 -19.390625 C 7.753906 -18.242188 7.390625 -16.929688 7.265625 -15.453125 Z M 20.015625 -15.453125 "/></g></g></g><g fill="#0330ab" fill-opacity="1"><g transform="translate(567.974098, 494.467679)"><g><path d="M 12.046875 0.640625 C 9.535156 0.640625 7.269531 0.160156 5.25 -0.796875 C 4.207031 -1.285156 3.378906 -1.953125 2.765625 -2.796875 C 2.160156 -3.648438 1.859375 -4.617188 1.859375 -5.703125 C 1.859375 -6.359375 2.003906 -6.953125 2.296875 -7.484375 C 2.597656 -8.023438 2.992188 -8.441406 3.484375 -8.734375 C 3.972656 -9.035156 4.5 -9.1875 5.0625 -9.1875 C 5.988281 -9.1875 6.75 -8.9375 7.34375 -8.4375 C 7.9375 -7.9375 8.234375 -7.242188 8.234375 -6.359375 C 8.234375 -5.835938 8.125 -5.363281 7.90625 -4.9375 C 7.695312 -4.519531 7.410156 -4.191406 7.046875 -3.953125 C 6.691406 -3.710938 6.320312 -3.59375 5.9375 -3.59375 C 6.539062 -3.15625 7.351562 -2.789062 8.375 -2.5 C 9.40625 -2.207031 10.425781 -2.0625 11.4375 -2.0625 C 12.738281 -2.0625 13.84375 -2.1875 14.75 -2.4375 C 15.664062 -2.6875 16.445312 -3.117188 17.09375 -3.734375 C 17.757812 -4.359375 18.09375 -5.175781 18.09375 -6.1875 C 18.09375 -6.925781 17.863281 -7.59375 17.40625 -8.1875 C 16.957031 -8.78125 16.351562 -9.25 15.59375 -9.59375 C 13.882812 -10.351562 12.046875 -10.992188 10.078125 -11.515625 C 9.066406 -11.773438 8.078125 -12.109375 7.109375 -12.515625 C 6.148438 -12.921875 5.304688 -13.375 4.578125 -13.875 C 3.796875 -14.394531 3.179688 -15.066406 2.734375 -15.890625 C 2.285156 -16.722656 2.0625 -17.65625 2.0625 -18.6875 C 2.0625 -19.71875 2.285156 -20.65625 2.734375 -21.5 C 3.179688 -22.351562 3.769531 -23.054688 4.5 -23.609375 C 5.1875 -24.109375 5.976562 -24.535156 6.875 -24.890625 C 7.78125 -25.253906 8.660156 -25.503906 9.515625 -25.640625 C 10.390625 -25.765625 11.1875 -25.828125 11.90625 -25.828125 C 13.03125 -25.828125 14.164062 -25.703125 15.3125 -25.453125 C 16.46875 -25.203125 17.546875 -24.851562 18.546875 -24.40625 C 19.554688 -23.914062 20.363281 -23.289062 20.96875 -22.53125 C 21.582031 -21.78125 21.890625 -20.96875 21.890625 -20.09375 C 21.890625 -19.414062 21.753906 -18.804688 21.484375 -18.265625 C 21.210938 -17.734375 20.84375 -17.316406 20.375 -17.015625 C 19.90625 -16.722656 19.40625 -16.578125 18.875 -16.578125 C 17.945312 -16.578125 17.175781 -16.847656 16.5625 -17.390625 C 15.957031 -17.941406 15.65625 -18.675781 15.65625 -19.59375 C 15.65625 -20 15.753906 -20.394531 15.953125 -20.78125 C 16.160156 -21.164062 16.382812 -21.453125 16.625 -21.640625 L 17.4375 -22.203125 C 15.894531 -22.953125 14.144531 -23.328125 12.1875 -23.328125 C 11.113281 -23.328125 10.140625 -23.164062 9.265625 -22.84375 C 8.390625 -22.519531 7.703125 -22.050781 7.203125 -21.4375 C 6.703125 -20.832031 6.453125 -20.117188 6.453125 -19.296875 C 6.453125 -18.703125 6.675781 -18.160156 7.125 -17.671875 C 7.582031 -17.191406 8.203125 -16.8125 8.984375 -16.53125 C 10.796875 -15.820312 12.640625 -15.21875 14.515625 -14.71875 C 15.515625 -14.4375 16.5 -14.066406 17.46875 -13.609375 C 18.4375 -13.160156 19.300781 -12.65625 20.0625 -12.09375 C 20.84375 -11.53125 21.457031 -10.800781 21.90625 -9.90625 C 22.351562 -9.007812 22.578125 -8.015625 22.578125 -6.921875 C 22.578125 -5.804688 22.375 -4.800781 21.96875 -3.90625 C 21.5625 -3.019531 21.015625 -2.289062 20.328125 -1.71875 C 19.679688 -1.164062 18.894531 -0.703125 17.96875 -0.328125 C 17.050781 0.0351562 16.09375 0.285156 15.09375 0.421875 C 14.144531 0.566406 13.128906 0.640625 12.046875 0.640625 Z M 12.046875 0.640625 "/></g></g></g><g fill="#0330ab" fill-opacity="1"><g transform="translate(592.343145, 494.467679)"><g><path d="M 7.875 -29.578125 C 7.25 -29.578125 6.671875 -29.734375 6.140625 -30.046875 C 5.609375 -30.359375 5.1875 -30.78125 4.875 -31.3125 C 4.5625 -31.84375 4.40625 -32.414062 4.40625 -33.03125 C 4.40625 -33.664062 4.5625 -34.253906 4.875 -34.796875 C 5.1875 -35.335938 5.609375 -35.765625 6.140625 -36.078125 C 6.671875 -36.390625 7.25 -36.546875 7.875 -36.546875 C 8.488281 -36.546875 9.0625 -36.382812 9.59375 -36.0625 C 10.132812 -35.738281 10.566406 -35.304688 10.890625 -34.765625 C 11.210938 -34.234375 11.375 -33.65625 11.375 -33.03125 C 11.375 -32.414062 11.210938 -31.84375 10.890625 -31.3125 C 10.566406 -30.78125 10.132812 -30.359375 9.59375 -30.046875 C 9.0625 -29.734375 8.488281 -29.578125 7.875 -29.578125 Z M 1.296875 0 L 1.296875 -2.625 L 5.8125 -2.625 L 5.8125 -22.53125 L 1.25 -22.53125 L 1.25 -25.15625 L 10.859375 -25.15625 L 10.859375 -2.625 L 15.453125 -2.625 L 15.453125 0 Z M 1.296875 0 "/></g></g></g><g fill="#0330ab" fill-opacity="1"><g transform="translate(607.925283, 494.467679)"><g><path d="M 12.046875 0.640625 C 9.535156 0.640625 7.269531 0.160156 5.25 -0.796875 C 4.207031 -1.285156 3.378906 -1.953125 2.765625 -2.796875 C 2.160156 -3.648438 1.859375 -4.617188 1.859375 -5.703125 C 1.859375 -6.359375 2.003906 -6.953125 2.296875 -7.484375 C 2.597656 -8.023438 2.992188 -8.441406 3.484375 -8.734375 C 3.972656 -9.035156 4.5 -9.1875 5.0625 -9.1875 C 5.988281 -9.1875 6.75 -8.9375 7.34375 -8.4375 C 7.9375 -7.9375 8.234375 -7.242188 8.234375 -6.359375 C 8.234375 -5.835938 8.125 -5.363281 7.90625 -4.9375 C 7.695312 -4.519531 7.410156 -4.191406 7.046875 -3.953125 C 6.691406 -3.710938 6.320312 -3.59375 5.9375 -3.59375 C 6.539062 -3.15625 7.351562 -2.789062 8.375 -2.5 C 9.40625 -2.207031 10.425781 -2.0625 11.4375 -2.0625 C 12.738281 -2.0625 13.84375 -2.1875 14.75 -2.4375 C 15.664062 -2.6875 16.445312 -3.117188 17.09375 -3.734375 C 17.757812 -4.359375 18.09375 -5.175781 18.09375 -6.1875 C 18.09375 -6.925781 17.863281 -7.59375 17.40625 -8.1875 C 16.957031 -8.78125 16.351562 -9.25 15.59375 -9.59375 C 13.882812 -10.351562 12.046875 -10.992188 10.078125 -11.515625 C 9.066406 -11.773438 8.078125 -12.109375 7.109375 -12.515625 C 6.148438 -12.921875 5.304688 -13.375 4.578125 -13.875 C 3.796875 -14.394531 3.179688 -15.066406 2.734375 -15.890625 C 2.285156 -16.722656 2.0625 -17.65625 2.0625 -18.6875 C 2.0625 -19.71875 2.285156 -20.65625 2.734375 -21.5 C 3.179688 -22.351562 3.769531 -23.054688 4.5 -23.609375 C 5.1875 -24.109375 5.976562 -24.535156 6.875 -24.890625 C 7.78125 -25.253906 8.660156 -25.503906 9.515625 -25.640625 C 10.390625 -25.765625 11.1875 -25.828125 11.90625 -25.828125 C 13.03125 -25.828125 14.164062 -25.703125 15.3125 -25.453125 C 16.46875 -25.203125 17.546875 -24.851562 18.546875 -24.40625 C 19.554688 -23.914062 20.363281 -23.289062 20.96875 -22.53125 C 21.582031 -21.78125 21.890625 -20.96875 21.890625 -20.09375 C 21.890625 -19.414062 21.753906 -18.804688 21.484375 -18.265625 C 21.210938 -17.734375 20.84375 -17.316406 20.375 -17.015625 C 19.90625 -16.722656 19.40625 -16.578125 18.875 -16.578125 C 17.945312 -16.578125 17.175781 -16.847656 16.5625 -17.390625 C 15.957031 -17.941406 15.65625 -18.675781 15.65625 -19.59375 C 15.65625 -20 15.753906 -20.394531 15.953125 -20.78125 C 16.160156 -21.164062 16.382812 -21.453125 16.625 -21.640625 L 17.4375 -22.203125 C 15.894531 -22.953125 14.144531 -23.328125 12.1875 -23.328125 C 11.113281 -23.328125 10.140625 -23.164062 9.265625 -22.84375 C 8.390625 -22.519531 7.703125 -22.050781 7.203125 -21.4375 C 6.703125 -20.832031 6.453125 -20.117188 6.453125 -19.296875 C 6.453125 -18.703125 6.675781 -18.160156 7.125 -17.671875 C 7.582031 -17.191406 8.203125 -16.8125 8.984375 -16.53125 C 10.796875 -15.820312 12.640625 -15.21875 14.515625 -14.71875 C 15.515625 -14.4375 16.5 -14.066406 17.46875 -13.609375 C 18.4375 -13.160156 19.300781 -12.65625 20.0625 -12.09375 C 20.84375 -11.53125 21.457031 -10.800781 21.90625 -9.90625 C 22.351562 -9.007812 22.578125 -8.015625 22.578125 -6.921875 C 22.578125 -5.804688 22.375 -4.800781 21.96875 -3.90625 C 21.5625 -3.019531 21.015625 -2.289062 20.328125 -1.71875 C 19.679688 -1.164062 18.894531 -0.703125 17.96875 -0.328125 C 17.050781 0.0351562 16.09375 0.285156 15.09375 0.421875 C 14.144531 0.566406 13.128906 0.640625 12.046875 0.640625 Z M 12.046875 0.640625 "/></g></g></g><g fill="#0330ab" fill-opacity="1"><g transform="translate(632.29433, 494.467679)"><g/></g></g><g fill="#0330ab" fill-opacity="1"><g transform="translate(643.541583, 494.467679)"><g><path d="M 18.46875 0.640625 C 16.363281 0.640625 14.390625 0.289062 12.546875 -0.40625 C 10.710938 -1.101562 9.148438 -2.070312 7.859375 -3.3125 C 6.585938 -4.507812 5.5 -5.898438 4.59375 -7.484375 C 3.6875 -9.078125 3.023438 -10.75 2.609375 -12.5 C 2.179688 -14.226562 1.96875 -16 1.96875 -17.8125 C 1.96875 -20.175781 2.382812 -22.445312 3.21875 -24.625 C 4.0625 -26.800781 5.238281 -28.742188 6.75 -30.453125 C 8.28125 -32.171875 10.203125 -33.523438 12.515625 -34.515625 C 14.828125 -35.503906 17.335938 -36 20.046875 -36 C 22.609375 -36 24.9375 -35.519531 27.03125 -34.5625 C 29.125 -33.613281 30.75 -32.335938 31.90625 -30.734375 C 33.039062 -29.117188 33.609375 -27.351562 33.609375 -25.4375 C 33.609375 -24.78125 33.441406 -24.15625 33.109375 -23.5625 C 32.773438 -22.96875 32.296875 -22.484375 31.671875 -22.109375 C 31.054688 -21.742188 30.359375 -21.5625 29.578125 -21.5625 C 28.847656 -21.5625 28.179688 -21.738281 27.578125 -22.09375 C 26.972656 -22.445312 26.5 -22.90625 26.15625 -23.46875 C 25.8125 -24.03125 25.640625 -24.625 25.640625 -25.25 C 25.640625 -25.9375 25.796875 -26.5625 26.109375 -27.125 C 26.421875 -27.695312 26.8125 -28.148438 27.28125 -28.484375 C 27.75 -28.828125 28.195312 -29 28.625 -29 L 28.71875 -29 C 28.09375 -29.875 27.257812 -30.613281 26.21875 -31.21875 C 25.175781 -31.832031 24.171875 -32.238281 23.203125 -32.4375 C 22.296875 -32.625 21.390625 -32.71875 20.484375 -32.71875 C 18.003906 -32.71875 15.8125 -32.0625 13.90625 -30.75 C 12 -29.4375 10.550781 -27.648438 9.5625 -25.390625 C 8.59375 -23.140625 8.109375 -20.628906 8.109375 -17.859375 C 8.109375 -16.015625 8.398438 -14.222656 8.984375 -12.484375 C 9.578125 -10.753906 10.394531 -9.226562 11.4375 -7.90625 C 12.488281 -6.5625 13.757812 -5.5 15.25 -4.71875 C 16.738281 -3.945312 18.3125 -3.5625 19.96875 -3.5625 C 21.144531 -3.5625 22.296875 -3.785156 23.421875 -4.234375 C 24.546875 -4.679688 25.5 -5.265625 26.28125 -5.984375 C 27.039062 -6.679688 27.644531 -7.425781 28.09375 -8.21875 C 28.539062 -9.019531 28.765625 -9.765625 28.765625 -10.453125 L 28.765625 -13.734375 L 22.125 -13.734375 L 22.125 -17.28125 L 37.390625 -17.28125 L 37.390625 -13.734375 L 33.5625 -13.734375 L 33.5625 0 L 30.734375 0 L 29.578125 -4.953125 C 29.066406 -3.929688 28.375 -3.035156 27.5 -2.265625 C 26.632812 -1.503906 25.679688 -0.921875 24.640625 -0.515625 C 22.648438 0.253906 20.59375 0.640625 18.46875 0.640625 Z M 18.46875 0.640625 "/></g></g></g><g fill="#0330ab" fill-opacity="1"><g transform="translate(681.008989, 494.467679)"><g><path d="M 13.96875 0.640625 C 12.09375 0.640625 10.363281 0.285156 8.78125 -0.421875 C 7.207031 -1.140625 5.90625 -2.125 4.875 -3.375 C 3.863281 -4.59375 3.085938 -5.96875 2.546875 -7.5 C 2.003906 -9.03125 1.734375 -10.617188 1.734375 -12.265625 C 1.734375 -13.679688 1.898438 -15.050781 2.234375 -16.375 C 2.578125 -17.707031 3.078125 -18.9375 3.734375 -20.0625 C 5.171875 -22.519531 7.09375 -24.203125 9.5 -25.109375 C 10.757812 -25.585938 12.15625 -25.828125 13.6875 -25.828125 C 15.28125 -25.828125 16.765625 -25.546875 18.140625 -24.984375 C 19.515625 -24.421875 20.71875 -23.609375 21.75 -22.546875 C 22.800781 -21.453125 23.625 -20.078125 24.21875 -18.421875 C 24.820312 -16.765625 25.140625 -14.929688 25.171875 -12.921875 L 7.109375 -12.921875 L 7.109375 -12.734375 C 7.109375 -10.015625 7.6875 -7.722656 8.84375 -5.859375 C 9.414062 -4.921875 10.1875 -4.191406 11.15625 -3.671875 C 12.125 -3.148438 13.226562 -2.890625 14.46875 -2.890625 C 15.5625 -2.890625 16.617188 -3.117188 17.640625 -3.578125 C 18.660156 -4.035156 19.550781 -4.707031 20.3125 -5.59375 C 21.070312 -6.476562 21.613281 -7.515625 21.9375 -8.703125 L 24.6875 -7.828125 C 24.28125 -6.109375 23.582031 -4.613281 22.59375 -3.34375 C 21.613281 -2.070312 20.390625 -1.085938 18.921875 -0.390625 C 17.453125 0.296875 15.800781 0.640625 13.96875 0.640625 Z M 20.015625 -15.453125 C 19.984375 -16.929688 19.691406 -18.242188 19.140625 -19.390625 C 18.585938 -20.546875 17.84375 -21.441406 16.90625 -22.078125 C 15.976562 -22.722656 14.953125 -23.046875 13.828125 -23.046875 C 12.691406 -23.046875 11.644531 -22.722656 10.6875 -22.078125 C 9.738281 -21.441406 8.960938 -20.546875 8.359375 -19.390625 C 7.753906 -18.242188 7.390625 -16.929688 7.265625 -15.453125 Z M 20.015625 -15.453125 "/></g></g></g><g fill="#0330ab" fill-opacity="1"><g transform="translate(707.955521, 494.467679)"><g><path d="M 1.15625 -2.625 L 5.71875 -2.625 L 5.71875 -22.53125 L 1.15625 -22.53125 L 1.15625 -25.15625 L 10.03125 -25.546875 L 10.625 -20.4375 C 11.101562 -21.5625 11.785156 -22.53125 12.671875 -23.34375 C 13.566406 -24.15625 14.5625 -24.769531 15.65625 -25.1875 C 16.75 -25.613281 17.851562 -25.828125 18.96875 -25.828125 C 19.5 -25.828125 19.96875 -25.800781 20.375 -25.75 C 20.789062 -25.707031 21.25 -25.609375 21.75 -25.453125 C 22.3125 -25.285156 22.804688 -25.066406 23.234375 -24.796875 C 23.671875 -24.535156 24.113281 -24.175781 24.5625 -23.71875 C 25.03125 -23.238281 25.410156 -22.6875 25.703125 -22.0625 C 26.003906 -21.445312 26.257812 -20.6875 26.46875 -19.78125 C 26.65625 -18.875 26.75 -17.851562 26.75 -16.71875 L 26.75 -2.625 L 31.546875 -2.625 L 31.546875 0 L 17.421875 0 L 17.421875 -2.625 L 21.703125 -2.625 L 21.703125 -16.671875 C 21.703125 -18.648438 21.3125 -20.132812 20.53125 -21.125 C 19.75 -22.125 18.648438 -22.625 17.234375 -22.625 C 16.359375 -22.625 15.546875 -22.457031 14.796875 -22.125 C 14.054688 -21.800781 13.4375 -21.347656 12.9375 -20.765625 C 12.457031 -20.203125 12.046875 -19.535156 11.703125 -18.765625 C 11.367188 -17.992188 11.132812 -17.1875 11 -16.34375 C 10.84375 -15.5625 10.765625 -14.691406 10.765625 -13.734375 L 10.765625 -2.625 L 15.03125 -2.625 L 15.03125 0 L 1.15625 0 Z M 1.15625 -2.625 "/></g></g></g><g fill="#0330ab" fill-opacity="1"><g transform="translate(739.7993, 494.467679)"><g><path d="M 13.96875 0.640625 C 12.09375 0.640625 10.363281 0.285156 8.78125 -0.421875 C 7.207031 -1.140625 5.90625 -2.125 4.875 -3.375 C 3.863281 -4.59375 3.085938 -5.96875 2.546875 -7.5 C 2.003906 -9.03125 1.734375 -10.617188 1.734375 -12.265625 C 1.734375 -13.679688 1.898438 -15.050781 2.234375 -16.375 C 2.578125 -17.707031 3.078125 -18.9375 3.734375 -20.0625 C 5.171875 -22.519531 7.09375 -24.203125 9.5 -25.109375 C 10.757812 -25.585938 12.15625 -25.828125 13.6875 -25.828125 C 15.28125 -25.828125 16.765625 -25.546875 18.140625 -24.984375 C 19.515625 -24.421875 20.71875 -23.609375 21.75 -22.546875 C 22.800781 -21.453125 23.625 -20.078125 24.21875 -18.421875 C 24.820312 -16.765625 25.140625 -14.929688 25.171875 -12.921875 L 7.109375 -12.921875 L 7.109375 -12.734375 C 7.109375 -10.015625 7.6875 -7.722656 8.84375 -5.859375 C 9.414062 -4.921875 10.1875 -4.191406 11.15625 -3.671875 C 12.125 -3.148438 13.226562 -2.890625 14.46875 -2.890625 C 15.5625 -2.890625 16.617188 -3.117188 17.640625 -3.578125 C 18.660156 -4.035156 19.550781 -4.707031 20.3125 -5.59375 C 21.070312 -6.476562 21.613281 -7.515625 21.9375 -8.703125 L 24.6875 -7.828125 C 24.28125 -6.109375 23.582031 -4.613281 22.59375 -3.34375 C 21.613281 -2.070312 20.390625 -1.085938 18.921875 -0.390625 C 17.453125 0.296875 15.800781 0.640625 13.96875 0.640625 Z M 20.015625 -15.453125 C 19.984375 -16.929688 19.691406 -18.242188 19.140625 -19.390625 C 18.585938 -20.546875 17.84375 -21.441406 16.90625 -22.078125 C 15.976562 -22.722656 14.953125 -23.046875 13.828125 -23.046875 C 12.691406 -23.046875 11.644531 -22.722656 10.6875 -22.078125 C 9.738281 -21.441406 8.960938 -20.546875 8.359375 -19.390625 C 7.753906 -18.242188 7.390625 -16.929688 7.265625 -15.453125 Z M 20.015625 -15.453125 "/></g></g></g><g fill="#0330ab" fill-opacity="1"><g transform="translate(766.745832, 494.467679)"><g><path d="M 1.15625 -2.625 L 5.71875 -2.625 L 5.71875 -22.53125 L 1.15625 -22.53125 L 1.15625 -25.15625 L 10.03125 -25.546875 L 10.671875 -20.0625 C 11.054688 -21.394531 11.765625 -22.644531 12.796875 -23.8125 C 13.347656 -24.4375 14.023438 -24.925781 14.828125 -25.28125 C 15.628906 -25.644531 16.492188 -25.828125 17.421875 -25.828125 C 18.273438 -25.828125 19.050781 -25.664062 19.75 -25.34375 C 20.457031 -25.03125 21.019531 -24.566406 21.4375 -23.953125 C 21.851562 -23.347656 22.0625 -22.628906 22.0625 -21.796875 C 22.0625 -21.015625 21.898438 -20.332031 21.578125 -19.75 C 21.253906 -19.164062 20.816406 -18.71875 20.265625 -18.40625 C 19.722656 -18.101562 19.125 -17.953125 18.46875 -17.953125 C 17.550781 -17.953125 16.765625 -18.238281 16.109375 -18.8125 C 15.460938 -19.394531 15.140625 -20.148438 15.140625 -21.078125 C 15.140625 -21.367188 15.210938 -21.6875 15.359375 -22.03125 C 15.515625 -22.375 15.675781 -22.65625 15.84375 -22.875 L 16.109375 -23.140625 C 15.179688 -23.140625 14.359375 -22.851562 13.640625 -22.28125 C 12.921875 -21.707031 12.359375 -20.921875 11.953125 -19.921875 C 11.160156 -17.984375 10.765625 -15.835938 10.765625 -13.484375 L 10.765625 -2.625 L 16.03125 -2.625 L 16.03125 0 L 1.15625 0 Z M 1.15625 -2.625 "/></g></g></g><g fill="#0330ab" fill-opacity="1"><g transform="translate(789.099759, 494.467679)"><g><path d="M 8.34375 0.640625 C 7.0625 0.640625 5.925781 0.410156 4.9375 -0.046875 C 3.957031 -0.515625 3.191406 -1.1875 2.640625 -2.0625 C 2.097656 -2.9375 1.828125 -3.960938 1.828125 -5.140625 C 1.828125 -6.054688 2.035156 -6.898438 2.453125 -7.671875 C 2.867188 -8.453125 3.4375 -9.109375 4.15625 -9.640625 C 4.84375 -10.148438 5.625 -10.640625 6.5 -11.109375 C 7.382812 -11.578125 8.289062 -11.984375 9.21875 -12.328125 C 11.09375 -13.003906 12.78125 -13.78125 14.28125 -14.65625 C 15 -15.070312 15.5625 -15.578125 15.96875 -16.171875 C 16.375 -16.765625 16.578125 -17.40625 16.578125 -18.09375 C 16.578125 -19.84375 16.144531 -21.160156 15.28125 -22.046875 C 14.425781 -22.929688 13.191406 -23.375 11.578125 -23.375 C 10.453125 -23.375 9.394531 -23.195312 8.40625 -22.84375 C 7.414062 -22.488281 6.644531 -22.007812 6.09375 -21.40625 C 7.0625 -21.40625 7.847656 -21.140625 8.453125 -20.609375 C 9.054688 -20.085938 9.359375 -19.445312 9.359375 -18.6875 C 9.359375 -18.039062 9.210938 -17.460938 8.921875 -16.953125 C 8.628906 -16.453125 8.234375 -16.0625 7.734375 -15.78125 C 7.234375 -15.5 6.6875 -15.359375 6.09375 -15.359375 C 5.125 -15.359375 4.304688 -15.691406 3.640625 -16.359375 C 2.984375 -17.035156 2.65625 -17.96875 2.65625 -19.15625 C 2.65625 -19.789062 2.863281 -20.476562 3.28125 -21.21875 C 3.707031 -21.96875 4.300781 -22.691406 5.0625 -23.390625 C 5.863281 -24.128906 6.929688 -24.71875 8.265625 -25.15625 C 9.597656 -25.601562 11.039062 -25.828125 12.59375 -25.828125 C 13.882812 -25.828125 15.050781 -25.679688 16.09375 -25.390625 C 17.144531 -25.109375 18.09375 -24.65625 18.9375 -24.03125 C 19.800781 -23.382812 20.460938 -22.5 20.921875 -21.375 C 21.378906 -20.25 21.609375 -18.929688 21.609375 -17.421875 L 21.609375 -6.640625 C 21.609375 -5.960938 21.691406 -5.351562 21.859375 -4.8125 C 22.023438 -4.28125 22.3125 -3.800781 22.71875 -3.375 C 23.164062 -2.925781 23.71875 -2.703125 24.375 -2.703125 C 26.363281 -2.703125 27.359375 -4.09375 27.359375 -6.875 L 27.359375 -10.359375 L 29.90625 -10.359375 L 29.90625 -7.34375 C 29.90625 -5.789062 29.738281 -4.472656 29.40625 -3.390625 C 29.082031 -2.304688 28.609375 -1.484375 27.984375 -0.921875 C 27.378906 -0.367188 26.707031 0.0234375 25.96875 0.265625 C 25.238281 0.515625 24.375 0.640625 23.375 0.640625 C 22.289062 0.640625 21.300781 0.425781 20.40625 0 C 19.507812 -0.425781 18.75 -1.078125 18.125 -1.953125 C 17.445312 -2.867188 17.054688 -3.960938 16.953125 -5.234375 C 16.515625 -4.109375 15.851562 -3.097656 14.96875 -2.203125 C 14.082031 -1.316406 13.0625 -0.617188 11.90625 -0.109375 C 10.75 0.390625 9.5625 0.640625 8.34375 0.640625 Z M 9.5625 -2.75 C 10.582031 -2.75 11.644531 -3.050781 12.75 -3.65625 C 13.863281 -4.269531 14.78125 -5.050781 15.5 -6 C 16.21875 -6.925781 16.578125 -7.828125 16.578125 -8.703125 L 16.578125 -13.6875 C 15.679688 -12.800781 14.601562 -11.96875 13.34375 -11.1875 C 12.09375 -10.40625 10.953125 -9.78125 9.921875 -9.3125 C 8.992188 -8.90625 8.242188 -8.367188 7.671875 -7.703125 C 7.109375 -7.035156 6.828125 -6.257812 6.828125 -5.375 C 6.828125 -4.570312 7.0625 -3.929688 7.53125 -3.453125 C 8.007812 -2.984375 8.6875 -2.75 9.5625 -2.75 Z M 9.5625 -2.75 "/></g></g></g><g fill="#0330ab" fill-opacity="1"><g transform="translate(818.787837, 494.467679)"><g><path d="M 11.90625 0.640625 C 9.894531 0.640625 8.171875 0.0390625 6.734375 -1.15625 C 5.984375 -1.757812 5.390625 -2.5625 4.953125 -3.5625 C 4.523438 -4.5625 4.3125 -5.679688 4.3125 -6.921875 L 4.3125 -22.53125 L -0.46875 -22.53125 L -0.46875 -23.625 C 0.6875 -23.96875 1.753906 -24.59375 2.734375 -25.5 C 3.722656 -26.40625 4.53125 -27.429688 5.15625 -28.578125 C 5.738281 -29.609375 6.253906 -30.65625 6.703125 -31.71875 C 7.285156 -33.039062 7.675781 -33.890625 7.875 -34.265625 C 8.207031 -34.941406 8.5 -35.28125 8.75 -35.28125 C 8.9375 -35.28125 9.082031 -35.207031 9.1875 -35.0625 C 9.300781 -34.925781 9.359375 -34.722656 9.359375 -34.453125 L 9.359375 -25.15625 L 18.59375 -25.15625 L 18.59375 -22.484375 L 9.359375 -22.484375 L 9.359375 -6.78125 C 9.359375 -5.4375 9.660156 -4.410156 10.265625 -3.703125 C 10.878906 -3.003906 11.71875 -2.65625 12.78125 -2.65625 C 14.070312 -2.65625 15.023438 -3.078125 15.640625 -3.921875 C 16.265625 -4.773438 16.578125 -6.203125 16.578125 -8.203125 L 16.578125 -11.578125 L 19.390625 -11.578125 L 19.390625 -8.703125 C 19.390625 -6.578125 19.144531 -4.832031 18.65625 -3.46875 C 18.175781 -2.113281 17.390625 -1.085938 16.296875 -0.390625 C 15.203125 0.296875 13.738281 0.640625 11.90625 0.640625 Z M 11.90625 0.640625 "/></g></g></g><g fill="#0330ab" fill-opacity="1"><g transform="translate(839.688959, 494.467679)"><g><path d="M 14.015625 0.640625 C 11.566406 0.640625 9.410156 0.0703125 7.546875 -1.0625 C 5.691406 -2.195312 4.257812 -3.765625 3.25 -5.765625 C 2.238281 -7.765625 1.734375 -10.039062 1.734375 -12.59375 C 1.734375 -15.125 2.210938 -17.378906 3.171875 -19.359375 C 4.140625 -21.347656 5.550781 -22.921875 7.40625 -24.078125 C 9.28125 -25.242188 11.46875 -25.828125 13.96875 -25.828125 C 15.8125 -25.828125 17.507812 -25.488281 19.0625 -24.8125 C 20.625 -24.144531 21.925781 -23.210938 22.96875 -22.015625 C 24 -20.828125 24.785156 -19.421875 25.328125 -17.796875 C 25.878906 -16.179688 26.15625 -14.445312 26.15625 -12.59375 C 26.15625 -10.070312 25.675781 -7.820312 24.71875 -5.84375 C 23.769531 -3.875 22.375 -2.3125 20.53125 -1.15625 C 18.6875 0.0390625 16.515625 0.640625 14.015625 0.640625 Z M 14.015625 -2.34375 C 15.390625 -2.34375 16.585938 -2.753906 17.609375 -3.578125 C 18.640625 -4.398438 19.425781 -5.5625 19.96875 -7.0625 C 20.519531 -8.5625 20.796875 -10.300781 20.796875 -12.28125 C 20.796875 -14.457031 20.5625 -16.320312 20.09375 -17.875 C 19.625 -19.425781 18.878906 -20.671875 17.859375 -21.609375 C 16.816406 -22.566406 15.519531 -23.046875 13.96875 -23.046875 C 12.457031 -23.046875 11.171875 -22.578125 10.109375 -21.640625 C 9.046875 -20.703125 8.28125 -19.421875 7.8125 -17.796875 C 7.34375 -16.234375 7.109375 -14.394531 7.109375 -12.28125 C 7.109375 -10.300781 7.382812 -8.5625 7.9375 -7.0625 C 8.488281 -5.5625 9.285156 -4.398438 10.328125 -3.578125 C 11.378906 -2.753906 12.609375 -2.34375 14.015625 -2.34375 Z M 14.015625 -2.34375 "/></g></g></g><g fill="#0330ab" fill-opacity="1"><g transform="translate(867.549371, 494.467679)"><g><path d="M 1.15625 -2.625 L 5.71875 -2.625 L 5.71875 -22.53125 L 1.15625 -22.53125 L 1.15625 -25.15625 L 10.03125 -25.546875 L 10.671875 -20.0625 C 11.054688 -21.394531 11.765625 -22.644531 12.796875 -23.8125 C 13.347656 -24.4375 14.023438 -24.925781 14.828125 -25.28125 C 15.628906 -25.644531 16.492188 -25.828125 17.421875 -25.828125 C 18.273438 -25.828125 19.050781 -25.664062 19.75 -25.34375 C 20.457031 -25.03125 21.019531 -24.566406 21.4375 -23.953125 C 21.851562 -23.347656 22.0625 -22.628906 22.0625 -21.796875 C 22.0625 -21.015625 21.898438 -20.332031 21.578125 -19.75 C 21.253906 -19.164062 20.816406 -18.71875 20.265625 -18.40625 C 19.722656 -18.101562 19.125 -17.953125 18.46875 -17.953125 C 17.550781 -17.953125 16.765625 -18.238281 16.109375 -18.8125 C 15.460938 -19.394531 15.140625 -20.148438 15.140625 -21.078125 C 15.140625 -21.367188 15.210938 -21.6875 15.359375 -22.03125 C 15.515625 -22.375 15.675781 -22.65625 15.84375 -22.875 L 16.109375 -23.140625 C 15.179688 -23.140625 14.359375 -22.851562 13.640625 -22.28125 C 12.921875 -21.707031 12.359375 -20.921875 11.953125 -19.921875 C 11.160156 -17.984375 10.765625 -15.835938 10.765625 -13.484375 L 10.765625 -2.625 L 16.03125 -2.625 L 16.03125 0 L 1.15625 0 Z M 1.15625 -2.625 "/></g></g></g></svg>